<svg width="27" height="24" viewBox="0 0 27 24" fill="none" xmlns="http://www.w3.org/2000/svg">
<path d="M14.9506 10.0563H11.9312V7.03694C11.9312 6.80629 11.8263 6.57564 11.6795 6.42886C11.5328 6.28209 11.3021 6.17725 11.0715 6.17725C10.5892 6.17725 10.2118 6.55467 10.2118 7.03694V10.0563H7.1714C6.94075 10.0563 6.7101 10.1612 6.56332 10.308C6.56332 10.308 6.56332 10.308 6.54236 10.3289C6.39558 10.4757 6.31171 10.6854 6.31171 10.916C6.31171 11.0628 6.35364 11.1886 6.41655 11.3144C6.56332 11.587 6.85688 11.7757 7.19237 11.7757H10.2118V14.7951C10.2118 15.0258 10.3166 15.2564 10.4634 15.4032C10.6102 15.55 10.8408 15.6548 11.0715 15.6548C11.5537 15.6548 11.9312 15.2774 11.9312 14.7951V11.7967H14.9506C15.1812 11.7967 15.4119 11.6919 15.5586 11.5451C15.7054 11.3983 15.8103 11.1677 15.8103 10.937C15.8103 10.4547 15.4328 10.0563 14.9506 10.0563Z" fill="#787878"/>
<path d="M21.3663 20.8757C21.2195 20.8757 21.0937 20.9177 20.9679 21.0015C19.9195 21.6725 18.7453 22.1338 17.5291 22.3435C17.1098 22.4274 16.8372 22.8048 16.921 23.2242C16.9839 23.5806 17.2985 23.8532 17.6549 23.8532C17.6969 23.8532 17.7388 23.8532 17.7807 23.8322C18.1162 23.7693 18.4517 23.7064 18.7662 23.6016C18.7662 23.6016 18.7662 23.6016 18.7872 23.6016C19.2066 23.4338 19.5577 23.3845 19.9351 23.1748C20.0819 23.091 20.403 22.9441 20.5497 22.8602C20.9062 22.6295 22.3644 21.9455 21.8669 21.1333C21.5669 20.8757 21.5969 20.8757 21.3663 20.8757Z" fill="#787878"/>
<path d="M26.7258 11.0535C26.8097 11.4519 26.8323 11.8519 26.8742 12.2503L26.9383 12.8919C26.9703 13.0649 26.9646 13.0843 26.9856 13.5789V13.5999V13.6208V13.6418V13.6628V13.6837V13.7047V13.7257C26.9646 13.8515 26.9646 13.9563 26.9646 14.0821V14.1031V14.1241V14.145V14.166C26.9436 14.5644 26.6082 14.8789 26.2098 14.8789H26.1678C25.7485 14.858 25.4339 14.5015 25.4549 14.0821C25.4759 13.8934 25.4759 13.6837 25.4759 13.4741C25.4759 12.4257 25.3081 11.3982 24.9726 10.4127C24.8468 10.0143 25.0565 9.57399 25.4549 9.44819C25.5388 9.42722 25.6226 9.40625 25.7065 9.40625C26.021 9.40625 26.3146 9.59496 26.4194 9.90948L26.6711 10.7901L26.7258 11.0535Z" fill="#787878"/>
<path d="M25.7699 15.6757C25.686 15.6548 25.6021 15.6338 25.5183 15.6338C25.2038 15.6338 24.9102 15.8225 24.8054 16.137C24.386 17.3112 23.757 18.3806 22.9182 19.3242C22.6456 19.6387 22.6666 20.121 22.9811 20.3935C23.1279 20.5194 23.2957 20.5823 23.4844 20.5823C23.694 20.5823 23.9037 20.4984 24.0505 20.3306C24.0715 20.2887 24.1134 20.2677 24.1344 20.2468C24.1344 20.2468 24.1344 20.2468 24.1553 20.2258C24.1553 20.2258 24.1553 20.2048 24.1763 20.2048L24.1973 20.1839C24.1973 20.1839 24.1973 20.1629 24.2183 20.1629C24.2183 20.1629 24.2183 20.1629 24.2183 20.1419C24.2183 20.1419 24.2183 20.121 24.2392 20.121C24.4489 19.7645 24.6586 19.408 24.8473 19.0516C25.036 18.6742 25.3715 18.2877 25.5183 17.8893C26.3701 16.137 26.1683 15.8015 25.7699 15.6757Z" fill="#787878"/>
<path d="M24.7426 7.79156C24.6168 7.87543 24.47 7.91737 24.3232 7.91737C24.1558 7.91737 23.7962 7.87068 23.6967 7.68391C23.5971 7.49714 22.4234 6.43375 21.849 5.9254C21.5135 5.69475 21.4087 5.23345 21.6393 4.87699C21.7861 4.66731 22.0167 4.5415 22.2684 4.5415C22.4151 4.5415 22.5619 4.58344 22.6877 4.66731L22.6877 4.66732C22.9603 4.85603 23.2329 5.04474 23.5055 5.25442C23.7571 5.46409 24.0087 5.69474 24.2603 5.92538L24.2603 5.9254L24.2813 5.94637L24.3442 6.00927L24.3652 6.03024L24.3861 6.05121L24.4071 6.07218L24.4281 6.09314L24.491 6.15605C24.512 6.15605 24.512 6.17702 24.512 6.17702C24.5539 6.21895 24.5749 6.26089 24.6168 6.30282L24.9313 6.74315C25.1829 7.07864 25.0781 7.56091 24.7426 7.79156Z" fill="#787878"/>
<path d="M19.6471 3.36739C19.7729 2.969 19.5632 2.54963 19.1648 2.42382C19.039 2.38189 18.9132 2.33995 18.7874 2.31898H18.7664C18.7664 2.31898 18.7664 2.31898 18.7455 2.31898C18.7455 2.31898 18.7455 2.31898 18.7245 2.31898C18.7245 2.31898 18.7245 2.31898 18.7035 2.31898C18.7035 2.31898 18.7035 2.31898 18.6826 2.31898C18.6826 2.31898 18.6826 2.31898 18.6616 2.31898C18.6616 2.31898 18.6616 2.31898 18.6406 2.31898C18.6406 2.31898 18.6406 2.31898 18.6197 2.31898C18.6197 2.31898 18.6197 2.31898 18.5987 2.31898C18.5987 2.31898 18.5987 2.31898 18.5777 2.31898C18.5777 2.31898 18.5777 2.31898 18.5568 2.31898C18.5568 2.31898 18.5568 2.31898 18.5358 2.31898C18.5358 2.31898 18.5358 2.31898 18.5148 2.31898C18.3261 2.27705 18.1374 2.23511 17.9277 2.21414C16.0196 0.788313 13.7341 0.0124936 11.3228 0.0124936C8.11465 -0.134283 5.3259 1.01896 3.25006 3.11577C1.17421 5.21258 0 7.98037 0 10.9369C0 13.8934 1.15325 16.6612 3.22909 18.758C5.11622 20.6451 7.59045 21.7774 10.2324 21.9661C10.1905 22.2806 10.3373 22.5951 10.6308 22.7629C11.8889 23.4339 13.2728 23.8532 14.7406 24C14.7615 24 14.7825 24 14.8035 24C15.1809 24 15.5164 23.7064 15.5583 23.3081C15.6003 22.8887 15.2857 22.5322 14.8874 22.4903C14.0486 22.4064 13.2099 22.2177 12.4341 21.9242C14.8664 21.6306 17.11 20.5403 18.8713 18.7789C20.9681 16.6821 22.1004 13.9143 22.1004 10.9578C22.1004 8.27392 21.1568 5.73678 19.4165 3.74482C19.5213 3.61901 19.6052 3.51417 19.6471 3.36739ZM20.381 10.9369C20.381 16.0741 16.1874 20.2677 11.0502 20.2677C10.4841 20.2677 9.93888 20.2257 9.39371 20.1209C8.40821 19.9532 7.48561 19.6177 6.62592 19.1564C3.73232 17.5628 1.74035 14.4805 1.74035 10.9369C1.74035 5.79969 5.93397 1.60607 11.0712 1.60607C12.0776 1.60607 13.0631 1.77381 13.9648 2.06737L16.6277 3.45126C18.9132 5.17065 20.381 7.87553 20.381 10.9369Z" fill="#787878"/>
</svg>
