<svg width="14" height="13" viewBox="0 0 14 13" fill="none" xmlns="http://www.w3.org/2000/svg">
<path d="M1.52389 12.6633C1.33149 12.663 1.14807 12.5819 1.01839 12.4397C0.886313 12.2987 0.820685 12.1081 0.837994 11.9157L1.00604 10.0679L8.76904 2.30763L11.1951 4.73297L3.43412 12.4925L1.58631 12.6606C1.56505 12.6626 1.54378 12.6633 1.52389 12.6633ZM11.6793 4.24804L9.25397 1.8227L10.7088 0.367913C10.8374 0.239117 11.012 0.166748 11.194 0.166748C11.3761 0.166748 11.5507 0.239117 11.6793 0.367913L13.1341 1.8227C13.2629 1.95136 13.3353 2.12593 13.3353 2.30798C13.3353 2.49002 13.2629 2.6646 13.1341 2.79325L11.68 4.24736L11.6793 4.24804Z" fill="#0E7D7D"/>
</svg>
