<svg width="32" height="40" viewBox="0 0 32 40" fill="none" xmlns="http://www.w3.org/2000/svg">
<path d="M1.77775 40H29.5555C30.476 40 31.2222 39.2538 31.2222 38.3333V11.8015C31.2222 11.3594 31.0466 10.9355 30.734 10.623L20.5992 0.488155C20.2867 0.175595 19.8628 0 19.4207 0H1.77775C0.857276 0 0.111084 0.746193 0.111084 1.66667V38.3333C0.111084 39.2538 0.857275 40 1.77775 40Z" fill="white"/>
<path fill-rule="evenodd" clip-rule="evenodd" d="M1.77775 39.1837H29.5555C30.0252 39.1837 30.4059 38.803 30.4059 38.3333V11.8015C30.4059 11.5759 30.3163 11.3597 30.1568 11.2002L20.022 1.06539C19.8625 0.905916 19.6462 0.816327 19.4207 0.816327H1.77775C1.30812 0.816327 0.92741 1.19704 0.92741 1.66667V38.3333C0.92741 38.803 1.30812 39.1837 1.77775 39.1837ZM20.5992 0.488155L30.734 10.623C31.0466 10.9355 31.2222 11.3594 31.2222 11.8015V38.3333C31.2222 39.2538 30.476 40 29.5555 40H1.77775C0.857275 40 0.111084 39.2538 0.111084 38.3333V1.66667C0.111084 0.746193 0.857276 0 1.77775 0H19.4207C19.8628 0 20.2867 0.175595 20.5992 0.488155Z" fill="#E9E9E9"/>
<path opacity="0.2" d="M24 11.6667C23.1111 11.6667 21.963 11.2963 21.5 11.1111L25.1111 10.2778L30.6667 11.1111C30.8519 11.6667 31.1667 12.6667 30.9444 12.2222C30.6667 11.6667 25.1111 11.6667 24 11.6667Z" fill="black"/>
<path d="M21.7778 11.1111H31.2222L20.1111 0V9.44444C20.1111 10.3649 20.8573 11.1111 21.7778 11.1111Z" fill="#275FCF"/>
<path d="M29.8333 11.1111C30.7221 11.1111 31.1295 12.4074 31.2221 13.0556V11.1111H29.8333Z" fill="#95B8FF"/>
<path d="M5.26416 33.638C5.26416 33.3858 5.3298 33.1924 5.46107 33.0576C5.59234 32.9229 5.78234 32.8555 6.03106 32.8555C6.28324 32.8555 6.47496 32.9264 6.60624 33.068C6.73751 33.2062 6.80314 33.3962 6.80314 33.638C6.80314 33.8833 6.73578 34.0784 6.60105 34.2235C6.46978 34.3652 6.27979 34.436 6.03106 34.436C5.78234 34.436 5.59234 34.3652 5.46107 34.2235C5.3298 34.0819 5.26416 33.8867 5.26416 33.638Z" fill="#275FCF"/>
<path d="M10.3008 34.3893C9.58575 34.3893 9.02785 34.1303 8.62712 33.6121C8.2264 33.0939 8.02604 32.3667 8.02604 31.4306C8.02604 30.4909 8.22813 29.7603 8.6323 29.2387C9.03994 28.7136 9.60302 28.4511 10.3216 28.4511C11.0746 28.4511 11.6481 28.7291 12.0419 29.2853H12.1041C12.0454 28.8742 12.016 28.5495 12.016 28.3111V26.2229H13.2389V34.2857H12.2854L12.073 33.5344H12.016C11.6256 34.1044 11.0539 34.3893 10.3008 34.3893ZM10.6273 33.4048C11.1282 33.4048 11.4926 33.2649 11.7206 32.9851C11.9486 32.7018 12.0661 32.2441 12.073 31.6119V31.4409C12.073 30.7189 11.9555 30.2059 11.7206 29.9019C11.4857 29.5979 11.1178 29.446 10.6169 29.446C10.1886 29.446 9.85865 29.6204 9.6272 29.9693C9.39575 30.3148 9.28002 30.8088 9.28002 31.4513C9.28002 32.0869 9.3923 32.5723 9.61684 32.9074C9.84138 33.239 10.1782 33.4048 10.6273 33.4048Z" fill="#275FCF"/>
<path d="M20.0633 31.4098C20.0633 32.346 19.8232 33.0766 19.343 33.6017C18.8628 34.1268 18.1944 34.3893 17.3377 34.3893C16.8022 34.3893 16.3289 34.2684 15.9179 34.0266C15.5068 33.7848 15.1907 33.4376 14.9696 32.9851C14.7485 32.5326 14.638 32.0075 14.638 31.4098C14.638 30.4806 14.8763 29.7551 15.353 29.2335C15.8298 28.7119 16.5017 28.4511 17.3688 28.4511C18.1978 28.4511 18.8542 28.7188 19.3378 29.2542C19.8215 29.7862 20.0633 30.5048 20.0633 31.4098ZM15.892 31.4098C15.892 32.7329 16.3808 33.3945 17.3584 33.3945C18.3257 33.3945 18.8093 32.7329 18.8093 31.4098C18.8093 30.1006 18.3222 29.446 17.348 29.446C16.8368 29.446 16.4654 29.6152 16.2339 29.9538C16.0059 30.2923 15.892 30.7777 15.892 31.4098Z" fill="#275FCF"/>
<path d="M23.7786 34.3893C22.9115 34.3893 22.2517 34.1372 21.7992 33.6328C21.3501 33.125 21.1255 32.3978 21.1255 31.4513C21.1255 30.4875 21.3604 29.7465 21.8302 29.2283C22.3035 28.7101 22.9858 28.4511 23.877 28.4511C24.4816 28.4511 25.0257 28.5633 25.5093 28.7879L25.1414 29.7672C24.6267 29.5669 24.2018 29.4667 23.8667 29.4667C22.8752 29.4667 22.3795 30.1248 22.3795 31.4409C22.3795 32.0835 22.5021 32.5671 22.7474 32.8918C22.9961 33.2131 23.3589 33.3737 23.8356 33.3737C24.3779 33.3737 24.8909 33.239 25.3746 32.9695V34.0318C25.1569 34.1596 24.9238 34.2512 24.675 34.3064C24.4298 34.3617 24.1309 34.3893 23.7786 34.3893Z" fill="#275FCF"/>
</svg>
