<svg width="32" height="40" viewBox="0 0 32 40" fill="none" xmlns="http://www.w3.org/2000/svg">
<path d="M1.66667 40H29.4444C30.3649 40 31.1111 39.2538 31.1111 38.3333V11.8015C31.1111 11.3594 30.9355 10.9355 30.623 10.623L20.4882 0.488155C20.1756 0.175595 19.7517 0 19.3096 0H1.66667C0.746192 0 0 0.746193 0 1.66667V38.3333C0 39.2538 0.746191 40 1.66667 40Z" fill="white"/>
<path fill-rule="evenodd" clip-rule="evenodd" d="M1.66667 39.1837H29.4444C29.9141 39.1837 30.2948 38.803 30.2948 38.3333V11.8015C30.2948 11.5759 30.2052 11.3597 30.0457 11.2002L19.9109 1.06539C19.7515 0.905916 19.5352 0.816327 19.3096 0.816327H1.66667C1.19704 0.816327 0.816326 1.19704 0.816326 1.66667V38.3333C0.816326 38.803 1.19704 39.1837 1.66667 39.1837ZM20.4882 0.488155L30.623 10.623C30.9355 10.9355 31.1111 11.3594 31.1111 11.8015V38.3333C31.1111 39.2538 30.3649 40 29.4444 40H1.66667C0.746191 40 0 39.2538 0 38.3333V1.66667C0 0.746193 0.746192 0 1.66667 0H19.3096C19.7517 0 20.1756 0.175595 20.4882 0.488155Z" fill="#E9E9E9"/>
<path opacity="0.2" d="M23.8889 11.6667C23 11.6667 21.8519 11.2963 21.3889 11.1111L25 10.2778L30.5556 11.1111C30.7408 11.6667 31.0556 12.6667 30.8334 12.2222C30.5556 11.6667 25 11.6667 23.8889 11.6667Z" fill="black"/>
<path d="M21.6667 11.1111H31.1111L20 0V9.44444C20 10.3649 20.7462 11.1111 21.6667 11.1111Z" fill="#275FCF"/>
<path d="M29.7222 11.1111C30.6111 11.1111 31.0185 12.4074 31.1111 13.0556V11.1111H29.7222Z" fill="#95B8FF"/>
<path d="M1.82227 33.638C1.82227 33.3858 1.8879 33.1924 2.01917 33.0576C2.15044 32.9229 2.34044 32.8555 2.58917 32.8555C2.84135 32.8555 3.03307 32.9264 3.16434 33.068C3.29561 33.2062 3.36125 33.3962 3.36125 33.638C3.36125 33.8833 3.29389 34.0784 3.15916 34.2235C3.02789 34.3652 2.83789 34.436 2.58917 34.436C2.34044 34.436 2.15044 34.3652 2.01917 34.2235C1.8879 34.0819 1.82227 33.8867 1.82227 33.638Z" fill="#275FCF"/>
<path d="M6.85894 34.3893C6.14385 34.3893 5.58595 34.1303 5.18523 33.6121C4.78451 33.0939 4.58414 32.3667 4.58414 31.4306C4.58414 30.4909 4.78623 29.7603 5.19041 29.2387C5.59804 28.7136 6.16113 28.4511 6.87966 28.4511C7.63275 28.4511 8.20619 28.7291 8.60001 29.2853H8.66219C8.60346 28.8742 8.5741 28.5495 8.5741 28.3111V26.2229H9.79699V34.2857H8.84355L8.6311 33.5344H8.5741C8.18374 34.1044 7.61202 34.3893 6.85894 34.3893ZM7.18539 33.4048C7.68629 33.4048 8.05074 33.2649 8.27874 32.9851C8.50674 32.7018 8.62419 32.2441 8.6311 31.6119V31.4409C8.6311 30.7189 8.51365 30.2059 8.27874 29.9019C8.04383 29.5979 7.67593 29.446 7.17502 29.446C6.74667 29.446 6.41676 29.6204 6.18531 29.9693C5.95386 30.3148 5.83813 30.8088 5.83813 31.4513C5.83813 32.0869 5.9504 32.5723 6.17494 32.9074C6.39949 33.239 6.7363 33.4048 7.18539 33.4048Z" fill="#275FCF"/>
<path d="M16.6214 31.4098C16.6214 32.346 16.3813 33.0766 15.9011 33.6017C15.4209 34.1268 14.7525 34.3893 13.8958 34.3893C13.3603 34.3893 12.8871 34.2684 12.476 34.0266C12.0649 33.7848 11.7488 33.4376 11.5277 32.9851C11.3066 32.5326 11.1961 32.0075 11.1961 31.4098C11.1961 30.4806 11.4344 29.7551 11.9112 29.2335C12.3879 28.7119 13.0598 28.4511 13.9269 28.4511C14.7559 28.4511 15.4123 28.7188 15.8959 29.2542C16.3796 29.7862 16.6214 30.5048 16.6214 31.4098ZM12.4501 31.4098C12.4501 32.7329 12.9389 33.3945 13.9165 33.3945C14.8838 33.3945 15.3674 32.7329 15.3674 31.4098C15.3674 30.1006 14.8803 29.446 13.9061 29.446C13.3949 29.446 13.0235 29.6152 12.7921 29.9538C12.5641 30.2923 12.4501 30.7777 12.4501 31.4098Z" fill="#275FCF"/>
<path d="M20.3367 34.3893C19.4696 34.3893 18.8098 34.1372 18.3573 33.6328C17.9082 33.125 17.6836 32.3978 17.6836 31.4513C17.6836 30.4875 17.9185 29.7465 18.3884 29.2283C18.8616 28.7101 19.5439 28.4511 20.4351 28.4511C21.0397 28.4511 21.5838 28.5633 22.0674 28.7879L21.6995 29.7672C21.1848 29.5669 20.7599 29.4667 20.4248 29.4667C19.4333 29.4667 18.9376 30.1248 18.9376 31.4409C18.9376 32.0835 19.0603 32.5671 19.3055 32.8918C19.5542 33.2131 19.917 33.3737 20.3937 33.3737C20.9361 33.3737 21.449 33.239 21.9327 32.9695V34.0318C21.715 34.1596 21.4819 34.2512 21.2331 34.3064C20.9879 34.3617 20.6891 34.3893 20.3367 34.3893Z" fill="#275FCF"/>
<path d="M24.5546 31.358L22.6322 28.5547H24.0209L25.3267 30.56L26.6429 28.5547H28.0212L26.0936 31.358L28.1197 34.2857H26.7414L25.3267 32.1405L23.9173 34.2857H22.5389L24.5546 31.358Z" fill="#275FCF"/>
</svg>
