<svg width="32" height="40" viewBox="0 0 32 40" fill="none" xmlns="http://www.w3.org/2000/svg">
<rect width="31.1111" height="40" fill="white"/>
<path d="M1.66667 40H29.4444C30.3649 40 31.1111 39.2538 31.1111 38.3333V11.8015C31.1111 11.3594 30.9355 10.9355 30.623 10.623L20.4882 0.488155C20.1756 0.175595 19.7517 0 19.3096 0H1.66667C0.746192 0 0 0.746193 0 1.66667V38.3333C0 39.2538 0.746191 40 1.66667 40Z" fill="white"/>
<path fill-rule="evenodd" clip-rule="evenodd" d="M1.66667 39.1837H29.4444C29.9141 39.1837 30.2948 38.803 30.2948 38.3333V11.8015C30.2948 11.5759 30.2052 11.3597 30.0457 11.2002L19.9109 1.06539C19.7515 0.905916 19.5352 0.816327 19.3096 0.816327H1.66667C1.19704 0.816327 0.816326 1.19704 0.816326 1.66667V38.3333C0.816326 38.803 1.19704 39.1837 1.66667 39.1837ZM20.4882 0.488155L30.623 10.623C30.9355 10.9355 31.1111 11.3594 31.1111 11.8015V38.3333C31.1111 39.2538 30.3649 40 29.4444 40H1.66667C0.746191 40 0 39.2538 0 38.3333V1.66667C0 0.746193 0.746192 0 1.66667 0H19.3096C19.7517 0 20.1756 0.175595 20.4882 0.488155Z" fill="#E9E9E9"/>
<path opacity="0.2" d="M23.8887 11.6667C22.9998 11.6667 21.8516 11.2964 21.3887 11.1112L24.9998 10.2778L30.5553 11.1112C30.7405 11.6667 31.0553 12.6667 30.8331 12.2223C30.5553 11.6667 24.9998 11.6667 23.8887 11.6667Z" fill="black"/>
<path d="M21.6667 11.1111H31.1111L20 0V9.44444C20 10.3649 20.7462 11.1111 21.6667 11.1111Z" fill="#481ACC"/>
<path d="M29.7227 11.1113C30.6115 11.1113 31.019 12.4076 31.1115 13.0558V11.1113H29.7227Z" fill="#95B8FF"/>
<path d="M6.58789 33.6378C6.58789 33.3856 6.65353 33.1922 6.7848 33.0574C6.91607 32.9227 7.10607 32.8553 7.35479 32.8553C7.60697 32.8553 7.7987 32.9262 7.92997 33.0678C8.06124 33.206 8.12687 33.396 8.12687 33.6378C8.12687 33.8831 8.05951 34.0782 7.92478 34.2233C7.79351 34.365 7.60352 34.4358 7.35479 34.4358C7.10607 34.4358 6.91607 34.365 6.7848 34.2233C6.65353 34.0817 6.58789 33.8865 6.58789 33.6378Z" fill="#481ACC"/>
<path d="M9.10623 36.8349C8.74005 36.8349 8.43605 36.7918 8.19424 36.7054V35.7416C8.42914 35.8038 8.66923 35.8349 8.9145 35.8349C9.43268 35.8349 9.69177 35.5412 9.69177 34.954V28.5545H10.9095V35.0369C10.9095 35.6276 10.754 36.0749 10.4431 36.3789C10.1357 36.6829 9.69004 36.8349 9.10623 36.8349ZM9.61922 27.0362C9.61922 26.8186 9.67795 26.6511 9.7954 26.5336C9.91631 26.4161 10.0873 26.3574 10.3084 26.3574C10.5226 26.3574 10.6884 26.4161 10.8058 26.5336C10.9268 26.6511 10.9872 26.8186 10.9872 27.0362C10.9872 27.2435 10.9268 27.4076 10.8058 27.5285C10.6884 27.646 10.5226 27.7047 10.3084 27.7047C10.0873 27.7047 9.91631 27.646 9.7954 27.5285C9.67795 27.4076 9.61922 27.2435 9.61922 27.0362Z" fill="#481ACC"/>
<path d="M15.5627 34.3891C14.8373 34.3891 14.2742 34.1283 13.8734 33.6067H13.8009C13.8493 34.0903 13.8734 34.384 13.8734 34.4876V36.8349H12.6557V28.5545H13.6403C13.6679 28.6616 13.7249 28.9172 13.8113 29.3214H13.8734C14.2534 28.741 14.8234 28.4509 15.5834 28.4509C16.2985 28.4509 16.8547 28.7099 17.252 29.2281C17.6527 29.7463 17.853 30.4735 17.853 31.4096C17.853 32.3458 17.6492 33.0764 17.2416 33.6015C16.8374 34.1266 16.2778 34.3891 15.5627 34.3891ZM15.2673 29.4458C14.7837 29.4458 14.4296 29.5874 14.2051 29.8707C13.984 30.1539 13.8734 30.6065 13.8734 31.2283V31.4096C13.8734 32.1074 13.984 32.6135 14.2051 32.9279C14.4262 33.2388 14.7872 33.3943 15.2881 33.3943C15.7095 33.3943 16.0342 33.2215 16.2622 32.8761C16.4902 32.5306 16.6042 32.0384 16.6042 31.3993C16.6042 30.7567 16.4902 30.2714 16.2622 29.9432C16.0377 29.6116 15.7061 29.4458 15.2673 29.4458Z" fill="#481ACC"/>
<path d="M24.1074 28.5545V29.2229L23.1281 29.4043C23.2179 29.5252 23.2922 29.6737 23.3509 29.8499C23.4096 30.0261 23.439 30.2127 23.439 30.4096C23.439 31.0003 23.2352 31.4649 22.8275 31.8035C22.4199 32.142 21.8585 32.3113 21.1435 32.3113C20.9604 32.3113 20.7945 32.2974 20.646 32.2698C20.3835 32.4322 20.2522 32.6222 20.2522 32.8398C20.2522 32.9711 20.3126 33.0695 20.4336 33.1352C20.5579 33.2008 20.7842 33.2336 21.1124 33.2336H22.1124C22.7446 33.2336 23.2248 33.3683 23.553 33.6378C23.8812 33.9072 24.0452 34.2959 24.0452 34.8037C24.0452 35.4531 23.7775 35.954 23.2421 36.3064C22.7066 36.6588 21.9328 36.8349 20.9206 36.8349C20.1399 36.8349 19.544 36.6968 19.1329 36.4204C18.7218 36.144 18.5163 35.7502 18.5163 35.239C18.5163 34.8866 18.6268 34.5895 18.8479 34.3477C19.0725 34.1093 19.3851 33.9435 19.7858 33.8502C19.6235 33.7812 19.4887 33.6706 19.3817 33.5186C19.278 33.3632 19.2262 33.2008 19.2262 33.0315C19.2262 32.8173 19.2867 32.636 19.4076 32.4874C19.5285 32.3389 19.7081 32.1921 19.9465 32.047C19.6494 31.9192 19.4076 31.7119 19.221 31.4252C19.0379 31.135 18.9464 30.7965 18.9464 30.4096C18.9464 29.7877 19.1416 29.3058 19.5319 28.9638C19.9257 28.6219 20.4854 28.4509 21.2108 28.4509C21.3732 28.4509 21.5425 28.4629 21.7186 28.4871C21.8983 28.5079 22.033 28.5303 22.1228 28.5545H24.1074ZM19.6045 35.1768C19.6045 35.4393 19.7219 35.6414 19.9568 35.783C20.1952 35.9247 20.5286 35.9955 20.9569 35.9955C21.6202 35.9955 22.1142 35.9005 22.4389 35.7105C22.7636 35.5205 22.926 35.2683 22.926 34.954C22.926 34.7052 22.8362 34.5273 22.6565 34.4202C22.4803 34.3166 22.1504 34.2648 21.6668 34.2648H20.7445C20.3956 34.2648 20.1175 34.346 19.9102 34.5083C19.7064 34.6741 19.6045 34.897 19.6045 35.1768ZM20.1278 30.4096C20.1278 30.7688 20.2194 31.0452 20.4025 31.2386C20.589 31.4321 20.855 31.5288 21.2005 31.5288C21.9052 31.5288 22.2575 31.1523 22.2575 30.3992C22.2575 30.0261 22.1694 29.7394 21.9933 29.539C21.8205 29.3352 21.5563 29.2333 21.2005 29.2333C20.8481 29.2333 20.5804 29.3335 20.3973 29.5338C20.2176 29.7342 20.1278 30.0261 20.1278 30.4096Z" fill="#481ACC"/>
</svg>
