<svg width="32" height="40" viewBox="0 0 32 40" fill="none" xmlns="http://www.w3.org/2000/svg">
<path d="M1.66667 40H29.4444C30.3649 40 31.1111 39.2538 31.1111 38.3333V11.8015C31.1111 11.3594 30.9355 10.9355 30.623 10.623L20.4882 0.488155C20.1756 0.175595 19.7517 0 19.3096 0H1.66667C0.746192 0 0 0.746193 0 1.66667V38.3333C0 39.2538 0.746191 40 1.66667 40Z" fill="white"/>
<path fill-rule="evenodd" clip-rule="evenodd" d="M1.66667 39.1837H29.4444C29.9141 39.1837 30.2948 38.803 30.2948 38.3333V11.8015C30.2948 11.5759 30.2052 11.3597 30.0457 11.2002L19.9109 1.06539C19.7515 0.905916 19.5352 0.816327 19.3096 0.816327H1.66667C1.19704 0.816327 0.816326 1.19704 0.816326 1.66667V38.3333C0.816326 38.803 1.19704 39.1837 1.66667 39.1837ZM20.4882 0.488155L30.623 10.623C30.9355 10.9355 31.1111 11.3594 31.1111 11.8015V38.3333C31.1111 39.2538 30.3649 40 29.4444 40H1.66667C0.746191 40 0 39.2538 0 38.3333V1.66667C0 0.746193 0.746192 0 1.66667 0H19.3096C19.7517 0 20.1756 0.175595 20.4882 0.488155Z" fill="#E9E9E9"/>
<path opacity="0.2" d="M23.8889 11.6667C23 11.6667 21.8519 11.2963 21.3889 11.1111L25 10.2778L30.5556 11.1111C30.7408 11.6667 31.0556 12.6667 30.8334 12.2222C30.5556 11.6667 25 11.6667 23.8889 11.6667Z" fill="black"/>
<path d="M21.6667 11.1111H31.1111L20 0V9.44444C20 10.3649 20.7462 11.1111 21.6667 11.1111Z" fill="#7B27CF"/>
<path d="M29.7222 11.1111C30.6111 11.1111 31.0185 12.4074 31.1111 13.0556V11.1111H29.7222Z" fill="#95B8FF"/>
<path d="M5.85254 33.638C5.85254 33.3858 5.91817 33.1924 6.04945 33.0576C6.18072 32.9229 6.37072 32.8555 6.61944 32.8555C6.87162 32.8555 7.06334 32.9264 7.19461 33.068C7.32589 33.2062 7.39152 33.3962 7.39152 33.638C7.39152 33.8833 7.32416 34.0784 7.18943 34.2235C7.05816 34.3652 6.86816 34.436 6.61944 34.436C6.37072 34.436 6.18072 34.3652 6.04945 34.2235C5.91817 34.0819 5.85254 33.8867 5.85254 33.638Z" fill="#7B27CF"/>
<path d="M14.0397 31.4098C14.0397 32.346 13.7996 33.0766 13.3195 33.6017C12.8393 34.1268 12.1708 34.3893 11.3141 34.3893C10.7787 34.3893 10.3054 34.2684 9.89431 34.0266C9.48323 33.7848 9.16714 33.4376 8.94605 32.9851C8.72496 32.5326 8.61442 32.0075 8.61442 31.4098C8.61442 30.4806 8.85278 29.7551 9.3295 29.2335C9.80622 28.7119 10.4781 28.4511 11.3452 28.4511C12.1743 28.4511 12.8306 28.7188 13.3143 29.2542C13.7979 29.7862 14.0397 30.5048 14.0397 31.4098ZM9.8684 31.4098C9.8684 32.7329 10.3572 33.3944 11.3348 33.3944C12.3021 33.3944 12.7857 32.7329 12.7857 31.4098C12.7857 30.1006 12.2986 29.4459 11.3245 29.4459C10.8132 29.4459 10.4419 29.6152 10.2104 29.9538C9.9824 30.2923 9.8684 30.7777 9.8684 31.4098Z" fill="#7B27CF"/>
<path d="M17.3768 34.3893C16.6617 34.3893 16.1038 34.1303 15.7031 33.6121C15.3023 33.0939 15.102 32.3667 15.102 31.4306C15.102 30.4909 15.3041 29.7603 15.7082 29.2387C16.1159 28.7136 16.679 28.4511 17.3975 28.4511C18.1506 28.4511 18.724 28.7291 19.1178 29.2853H19.18C19.1213 28.8742 19.0919 28.5495 19.0919 28.3111V26.2229H20.3148V34.2857H19.3614L19.1489 33.5344H19.0919C18.7016 34.1044 18.1299 34.3893 17.3768 34.3893ZM17.7032 33.4048C18.2041 33.4048 18.5686 33.2649 18.7966 32.9851C19.0246 32.7018 19.142 32.2441 19.1489 31.6119V31.4409C19.1489 30.7189 19.0315 30.2059 18.7966 29.9019C18.5617 29.5979 18.1938 29.4459 17.6929 29.4459C17.2645 29.4459 16.9346 29.6204 16.7031 29.9693C16.4717 30.3148 16.356 30.8088 16.356 31.4513C16.356 32.0869 16.4682 32.5723 16.6928 32.9074C16.9173 33.239 17.2541 33.4048 17.7032 33.4048Z" fill="#7B27CF"/>
<path d="M24.9318 29.477H23.5327V34.2857H22.3098V29.477H21.3667V28.907L22.3098 28.534V28.1609C22.3098 27.4838 22.4687 26.9829 22.7865 26.6582C23.1043 26.33 23.5897 26.1659 24.2426 26.1659C24.671 26.1659 25.0924 26.2367 25.507 26.3783L25.1857 27.3007C24.8851 27.204 24.5984 27.1556 24.3255 27.1556C24.0492 27.1556 23.8471 27.242 23.7192 27.4147C23.5949 27.584 23.5327 27.8396 23.5327 28.1816V28.5547H24.9318V29.477Z" fill="#7B27CF"/>
</svg>
