<svg width="32" height="40" viewBox="0 0 32 40" fill="none" xmlns="http://www.w3.org/2000/svg">
<path d="M1.77775 40H29.5555C30.476 40 31.2222 39.2538 31.2222 38.3333V11.8015C31.2222 11.3594 31.0466 10.9355 30.734 10.623L20.5992 0.488155C20.2867 0.175595 19.8628 0 19.4207 0H1.77775C0.857276 0 0.111084 0.746193 0.111084 1.66667V38.3333C0.111084 39.2538 0.857275 40 1.77775 40Z" fill="white"/>
<path fill-rule="evenodd" clip-rule="evenodd" d="M1.77775 39.1837H29.5555C30.0252 39.1837 30.4059 38.803 30.4059 38.3333V11.8015C30.4059 11.5759 30.3163 11.3597 30.1568 11.2002L20.022 1.06539C19.8625 0.905916 19.6462 0.816327 19.4207 0.816327H1.77775C1.30812 0.816327 0.92741 1.19704 0.92741 1.66667V38.3333C0.92741 38.803 1.30812 39.1837 1.77775 39.1837ZM20.5992 0.488155L30.734 10.623C31.0466 10.9355 31.2222 11.3594 31.2222 11.8015V38.3333C31.2222 39.2538 30.476 40 29.5555 40H1.77775C0.857275 40 0.111084 39.2538 0.111084 38.3333V1.66667C0.111084 0.746193 0.857276 0 1.77775 0H19.4207C19.8628 0 20.2867 0.175595 20.5992 0.488155Z" fill="#E9E9E9"/>
<path opacity="0.2" d="M24 11.6667C23.1111 11.6667 21.963 11.2963 21.5 11.1111L25.1111 10.2778L30.6667 11.1111C30.8519 11.6667 31.1667 12.6667 30.9444 12.2222C30.6667 11.6667 25.1111 11.6667 24 11.6667Z" fill="black"/>
<path d="M21.7778 11.1111H31.2222L20.1111 0V9.44444C20.1111 10.3649 20.8573 11.1111 21.7778 11.1111Z" fill="#7B27CF"/>
<path d="M29.8333 11.1111C30.7221 11.1111 31.1295 12.4074 31.2221 13.0556V11.1111H29.8333Z" fill="#95B8FF"/>
<path d="M5.80298 33.638C5.80298 33.3858 5.86861 33.1924 5.99989 33.0576C6.13116 32.9229 6.32115 32.8556 6.56988 32.8556C6.82206 32.8556 7.01378 32.9264 7.14505 33.068C7.27633 33.2062 7.34196 33.3962 7.34196 33.638C7.34196 33.8833 7.2746 34.0784 7.13987 34.2235C7.0086 34.3652 6.8186 34.436 6.56988 34.436C6.32115 34.436 6.13116 34.3652 5.99989 34.2235C5.86861 34.0819 5.80298 33.8867 5.80298 33.638Z" fill="#7B27CF"/>
<path d="M13.9902 31.4098C13.9902 32.346 13.7501 33.0766 13.2699 33.6017C12.7897 34.1268 12.1213 34.3894 11.2646 34.3894C10.7291 34.3894 10.2558 34.2684 9.84475 34.0266C9.43367 33.7848 9.11758 33.4376 8.89649 32.9851C8.6754 32.5326 8.56486 32.0075 8.56486 31.4098C8.56486 30.4806 8.80322 29.7551 9.27994 29.2335C9.75666 28.7119 10.4286 28.4511 11.2956 28.4511C12.1247 28.4511 12.7811 28.7188 13.2647 29.2542C13.7483 29.7862 13.9902 30.5048 13.9902 31.4098ZM9.81884 31.4098C9.81884 32.7329 10.3077 33.3945 11.2853 33.3945C12.2525 33.3945 12.7362 32.7329 12.7362 31.4098C12.7362 30.1006 12.2491 29.446 11.2749 29.446C10.7636 29.446 10.3923 29.6152 10.1608 29.9538C9.93284 30.2923 9.81884 30.7777 9.81884 31.4098Z" fill="#7B27CF"/>
<path d="M17.3272 34.3894C16.6121 34.3894 16.0542 34.1303 15.6535 33.6121C15.2528 33.0939 15.0524 32.3667 15.0524 31.4306C15.0524 30.4909 15.2545 29.7603 15.6587 29.2387C16.0663 28.7136 16.6294 28.4511 17.3479 28.4511C18.101 28.4511 18.6745 28.7291 19.0683 29.2853H19.1305C19.0717 28.8742 19.0424 28.5495 19.0424 28.3111V26.2229H20.2653V34.2857H19.3118L19.0994 33.5344H19.0424C18.652 34.1044 18.0803 34.3894 17.3272 34.3894ZM17.6537 33.4048C18.1546 33.4048 18.519 33.2649 18.747 32.9851C18.975 32.7018 19.0925 32.2441 19.0994 31.6119V31.4409C19.0994 30.7189 18.9819 30.2059 18.747 29.9019C18.5121 29.598 18.1442 29.446 17.6433 29.446C17.2149 29.446 16.885 29.6204 16.6536 29.9693C16.4221 30.3148 16.3064 30.8088 16.3064 31.4513C16.3064 32.0869 16.4187 32.5723 16.6432 32.9074C16.8678 33.239 17.2046 33.4048 17.6537 33.4048Z" fill="#7B27CF"/>
<path d="M24.1412 33.4048C24.4383 33.4048 24.7354 33.3582 25.0325 33.2649V34.1821C24.8978 34.2408 24.7233 34.2892 24.5091 34.3272C24.2984 34.3686 24.079 34.3894 23.851 34.3894C22.6972 34.3894 22.1203 33.7814 22.1203 32.5654V29.477H21.3379V28.9381L22.1773 28.4925L22.5919 27.28H23.3432V28.5547H24.9755V29.477H23.3432V32.5446C23.3432 32.8383 23.4158 33.0559 23.5609 33.1975C23.7094 33.3357 23.9029 33.4048 24.1412 33.4048Z" fill="#7B27CF"/>
</svg>
