<svg width="32" height="40" viewBox="0 0 32 40" fill="none" xmlns="http://www.w3.org/2000/svg">
<path d="M1.66667 40H29.4444C30.3649 40 31.1111 39.2538 31.1111 38.3333V11.8015C31.1111 11.3594 30.9355 10.9355 30.623 10.623L20.4882 0.488155C20.1756 0.175595 19.7517 0 19.3096 0H1.66667C0.746192 0 0 0.746193 0 1.66667V38.3333C0 39.2538 0.746191 40 1.66667 40Z" fill="white"/>
<path fill-rule="evenodd" clip-rule="evenodd" d="M1.66667 39.1837H29.4444C29.9141 39.1837 30.2948 38.803 30.2948 38.3333V11.8015C30.2948 11.5759 30.2052 11.3597 30.0457 11.2002L19.9109 1.06539C19.7515 0.905916 19.5352 0.816327 19.3096 0.816327H1.66667C1.19704 0.816327 0.816326 1.19704 0.816326 1.66667V38.3333C0.816326 38.803 1.19704 39.1837 1.66667 39.1837ZM20.4882 0.488155L30.623 10.623C30.9355 10.9355 31.1111 11.3594 31.1111 11.8015V38.3333C31.1111 39.2538 30.3649 40 29.4444 40H1.66667C0.746191 40 0 39.2538 0 38.3333V1.66667C0 0.746193 0.746192 0 1.66667 0H19.3096C19.7517 0 20.1756 0.175595 20.4882 0.488155Z" fill="#E9E9E9"/>
<path opacity="0.2" d="M23.8889 11.6667C23 11.6667 21.8519 11.2963 21.3889 11.1111L25 10.2778L30.5556 11.1111C30.7408 11.6667 31.0556 12.6667 30.8334 12.2222C30.5556 11.6667 25 11.6667 23.8889 11.6667Z" fill="black"/>
<path d="M21.6667 11.1111H31.1111L20 0V9.44444C20 10.3649 20.7462 11.1111 21.6667 11.1111Z" fill="#CC4B4C"/>
<path d="M29.7222 11.1111C30.6111 11.1111 31.0185 12.4074 31.1111 13.0556V11.1111H29.7222Z" fill="#FFA6A7"/>
<path d="M5.79053 33.638C5.79053 33.3858 5.85616 33.1924 5.98743 33.0576C6.11871 32.9229 6.3087 32.8555 6.55743 32.8555C6.80961 32.8555 7.00133 32.9264 7.1326 33.068C7.26387 33.2062 7.32951 33.3962 7.32951 33.638C7.32951 33.8833 7.26215 34.0784 7.12742 34.2235C6.99615 34.3652 6.80615 34.436 6.55743 34.436C6.3087 34.436 6.11871 34.3652 5.98743 34.2235C5.85616 34.0819 5.79053 33.8867 5.79053 33.638Z" fill="#CC4B4C"/>
<path d="M11.8014 34.3893C11.0759 34.3893 10.5128 34.1285 10.1121 33.6069H10.0396C10.0879 34.0905 10.1121 34.3842 10.1121 34.4878V36.8351H8.8944V28.5547H9.87894C9.90657 28.6618 9.96357 28.9174 10.0499 29.3216H10.1121C10.4921 28.7412 11.0621 28.451 11.8221 28.451C12.5372 28.451 13.0934 28.7101 13.4906 29.2283C13.8913 29.7465 14.0917 30.4737 14.0917 31.4098C14.0917 32.346 13.8879 33.0766 13.4803 33.6017C13.0761 34.1268 12.5165 34.3893 11.8014 34.3893ZM11.506 29.4459C11.0224 29.4459 10.6683 29.5876 10.4437 29.8709C10.2227 30.1541 10.1121 30.6067 10.1121 31.2285V31.4098C10.1121 32.1076 10.2227 32.6137 10.4437 32.9281C10.6648 33.239 11.0258 33.3944 11.5267 33.3944C11.9482 33.3944 12.2729 33.2217 12.5009 32.8763C12.7289 32.5308 12.8429 32.0386 12.8429 31.3995C12.8429 30.7569 12.7289 30.2716 12.5009 29.9434C12.2764 29.6118 11.9447 29.4459 11.506 29.4459Z" fill="#CC4B4C"/>
<path d="M17.4391 34.3893C16.724 34.3893 16.1661 34.1303 15.7654 33.6121C15.3647 33.0939 15.1643 32.3667 15.1643 31.4306C15.1643 30.4909 15.3664 29.7603 15.7706 29.2387C16.1782 28.7136 16.7413 28.451 17.4599 28.451C18.2129 28.451 18.7864 28.7291 19.1802 29.2853H19.2424C19.1837 28.8742 19.1543 28.5495 19.1543 28.3111V26.2229H20.3772V34.2857H19.4237L19.2113 33.5344H19.1543C18.7639 34.1044 18.1922 34.3893 17.4391 34.3893ZM17.7656 33.4048C18.2665 33.4048 18.6309 33.2649 18.8589 32.9851C19.0869 32.7018 19.2044 32.2441 19.2113 31.6119V31.4409C19.2113 30.7189 19.0938 30.2059 18.8589 29.9019C18.624 29.5979 18.2561 29.4459 17.7552 29.4459C17.3269 29.4459 16.9969 29.6204 16.7655 29.9693C16.534 30.3148 16.4183 30.8088 16.4183 31.4513C16.4183 32.0869 16.5306 32.5723 16.7551 32.9074C16.9797 33.239 17.3165 33.4048 17.7656 33.4048Z" fill="#CC4B4C"/>
<path d="M24.9941 29.477H23.5951V34.2857H22.3722V29.477H21.4291V28.907L22.3722 28.534V28.1609C22.3722 27.4838 22.5311 26.9829 22.8489 26.6582C23.1667 26.33 23.6521 26.1659 24.305 26.1659C24.7333 26.1659 25.1548 26.2367 25.5693 26.3783L25.248 27.3007C24.9475 27.204 24.6608 27.1556 24.3879 27.1556C24.1115 27.1556 23.9094 27.242 23.7816 27.4147C23.6572 27.584 23.5951 27.8396 23.5951 28.1816V28.5547H24.9941V29.477Z" fill="#CC4B4C"/>
</svg>
