<svg width="32" height="40" viewBox="0 0 32 40" fill="none" xmlns="http://www.w3.org/2000/svg">
<path d="M1.66667 40H29.4444C30.3649 40 31.1111 39.2538 31.1111 38.3333V11.8015C31.1111 11.3594 30.9355 10.9355 30.623 10.623L20.4882 0.488155C20.1756 0.175595 19.7517 0 19.3096 0H1.66667C0.746192 0 0 0.746193 0 1.66667V38.3333C0 39.2538 0.746191 40 1.66667 40Z" fill="white"/>
<path fill-rule="evenodd" clip-rule="evenodd" d="M1.66667 39.1837H29.4444C29.9141 39.1837 30.2948 38.803 30.2948 38.3333V11.8015C30.2948 11.5759 30.2052 11.3597 30.0457 11.2002L19.9109 1.06539C19.7515 0.905916 19.5352 0.816327 19.3096 0.816327H1.66667C1.19704 0.816327 0.816326 1.19704 0.816326 1.66667V38.3333C0.816326 38.803 1.19704 39.1837 1.66667 39.1837ZM20.4882 0.488155L30.623 10.623C30.9355 10.9355 31.1111 11.3594 31.1111 11.8015V38.3333C31.1111 39.2538 30.3649 40 29.4444 40H1.66667C0.746191 40 0 39.2538 0 38.3333V1.66667C0 0.746193 0.746192 0 1.66667 0H19.3096C19.7517 0 20.1756 0.175595 20.4882 0.488155Z" fill="#E9E9E9"/>
<path opacity="0.2" d="M23.8889 11.6667C23 11.6667 21.8519 11.2963 21.3889 11.1111L25 10.2778L30.5556 11.1111C30.7408 11.6667 31.0556 12.6667 30.8334 12.2222C30.5556 11.6667 25 11.6667 23.8889 11.6667Z" fill="black"/>
<path d="M21.6667 11.1111H31.1111L20 0V9.44444C20 10.3649 20.7462 11.1111 21.6667 11.1111Z" fill="#DB5A2F"/>
<path d="M29.7222 11.1111C30.6111 11.1111 31.0185 12.4074 31.1111 13.0556V11.1111H29.7222Z" fill="#FFAC90"/>
<path d="M4.81348 33.638C4.81348 33.3858 4.87911 33.1924 5.01038 33.0576C5.14165 32.9229 5.33165 32.8555 5.58038 32.8555C5.83256 32.8555 6.02428 32.9264 6.15555 33.068C6.28682 33.2062 6.35246 33.3962 6.35246 33.638C6.35246 33.8833 6.2851 34.0784 6.15037 34.2235C6.0191 34.3652 5.8291 34.436 5.58038 34.436C5.33165 34.436 5.14165 34.3652 5.01038 34.2235C4.87911 34.0819 4.81348 33.8867 4.81348 33.638Z" fill="#DB5A2F"/>
<path d="M10.8243 34.3893C10.0989 34.3893 9.53579 34.1285 9.13506 33.6069H9.06252C9.11088 34.0905 9.13506 34.3842 9.13506 34.4878V36.8351H7.91735V28.5547H8.90189C8.92952 28.6618 8.98652 28.9174 9.07288 29.3216H9.13506C9.51506 28.7412 10.0851 28.4511 10.845 28.4511C11.5601 28.4511 12.1163 28.7101 12.5136 29.2283C12.9143 29.7465 13.1147 30.4737 13.1147 31.4098C13.1147 32.346 12.9108 33.0766 12.5032 33.6017C12.099 34.1268 11.5394 34.3893 10.8243 34.3893ZM10.529 29.446C10.0453 29.446 9.69124 29.5876 9.4667 29.8709C9.24561 30.1541 9.13506 30.6067 9.13506 31.2285V31.4098C9.13506 32.1076 9.24561 32.6137 9.4667 32.9281C9.68779 33.239 10.0488 33.3945 10.5497 33.3945C10.9711 33.3945 11.2959 33.2217 11.5239 32.8763C11.7519 32.5308 11.8659 32.0386 11.8659 31.3995C11.8659 30.7569 11.7519 30.2716 11.5239 29.9434C11.2993 29.6118 10.9677 29.446 10.529 29.446Z" fill="#DB5A2F"/>
<path d="M17.4362 34.3893C16.7108 34.3893 16.1477 34.1285 15.747 33.6069H15.6744C15.7228 34.0905 15.747 34.3842 15.747 34.4878V36.8351H14.5293V28.5547H15.5138C15.5414 28.6618 15.5984 28.9174 15.6848 29.3216H15.747C16.127 28.7412 16.697 28.4511 17.457 28.4511C18.1721 28.4511 18.7282 28.7101 19.1255 29.2283C19.5262 29.7465 19.7266 30.4737 19.7266 31.4098C19.7266 32.346 19.5228 33.0766 19.1151 33.6017C18.711 34.1268 18.1513 34.3893 17.4362 34.3893ZM17.1409 29.446C16.6573 29.446 16.3032 29.5876 16.0786 29.8709C15.8575 30.1541 15.747 30.6067 15.747 31.2285V31.4098C15.747 32.1076 15.8575 32.6137 16.0786 32.9281C16.2997 33.239 16.6607 33.3945 17.1616 33.3945C17.5831 33.3945 17.9078 33.2217 18.1358 32.8763C18.3638 32.5308 18.4778 32.0386 18.4778 31.3995C18.4778 30.7569 18.3638 30.2716 18.1358 29.9434C17.9112 29.6118 17.5796 29.446 17.1409 29.446Z" fill="#DB5A2F"/>
<path d="M23.2761 33.4048C23.5732 33.4048 23.8703 33.3582 24.1674 33.2649V34.1821C24.0326 34.2408 23.8582 34.2892 23.644 34.3272C23.4333 34.3686 23.2139 34.3893 22.9859 34.3893C21.8321 34.3893 21.2552 33.7814 21.2552 32.5654V29.477H20.4728V28.9381L21.3122 28.4925L21.7267 27.28H22.4781V28.5547H24.1104V29.477H22.4781V32.5446C22.4781 32.8383 22.5506 33.0559 22.6957 33.1975C22.8443 33.3357 23.0377 33.4048 23.2761 33.4048Z" fill="#DB5A2F"/>
</svg>
