<svg width="32" height="40" viewBox="0 0 32 40" fill="none" xmlns="http://www.w3.org/2000/svg">
<path d="M1.77775 40H29.5555C30.476 40 31.2222 39.2538 31.2222 38.3333V11.8015C31.2222 11.3594 31.0466 10.9355 30.734 10.623L20.5992 0.488155C20.2867 0.175595 19.8628 0 19.4207 0H1.77775C0.857276 0 0.111084 0.746193 0.111084 1.66667V38.3333C0.111084 39.2538 0.857275 40 1.77775 40Z" fill="white"/>
<path fill-rule="evenodd" clip-rule="evenodd" d="M1.77775 39.1837H29.5555C30.0252 39.1837 30.4059 38.803 30.4059 38.3333V11.8015C30.4059 11.5759 30.3163 11.3597 30.1568 11.2002L20.022 1.06539C19.8625 0.905916 19.6462 0.816327 19.4207 0.816327H1.77775C1.30812 0.816327 0.92741 1.19704 0.92741 1.66667V38.3333C0.92741 38.803 1.30812 39.1837 1.77775 39.1837ZM20.5992 0.488155L30.734 10.623C31.0466 10.9355 31.2222 11.3594 31.2222 11.8015V38.3333C31.2222 39.2538 30.476 40 29.5555 40H1.77775C0.857275 40 0.111084 39.2538 0.111084 38.3333V1.66667C0.111084 0.746193 0.857276 0 1.77775 0H19.4207C19.8628 0 20.2867 0.175595 20.5992 0.488155Z" fill="#E9E9E9"/>
<path opacity="0.2" d="M24 11.6667C23.1111 11.6667 21.963 11.2963 21.5 11.1111L25.1111 10.2778L30.6667 11.1111C30.8519 11.6667 31.1667 12.6667 30.9444 12.2222C30.6667 11.6667 25.1111 11.6667 24 11.6667Z" fill="black"/>
<path d="M21.7778 11.1111H31.2222L20.1111 0V9.44444C20.1111 10.3649 20.8573 11.1111 21.7778 11.1111Z" fill="#DB5A2F"/>
<path d="M29.8333 11.1111C30.7221 11.1111 31.1295 12.4074 31.2221 13.0556V11.1111H29.8333Z" fill="#FFAC90"/>
<path d="M2.81836 33.638C2.81836 33.3858 2.884 33.1924 3.01527 33.0576C3.14654 32.9229 3.33654 32.8555 3.58526 32.8555C3.83744 32.8555 4.02916 32.9264 4.16044 33.068C4.29171 33.2062 4.35734 33.3962 4.35734 33.638C4.35734 33.8833 4.28998 34.0784 4.15525 34.2235C4.02398 34.3652 3.83398 34.436 3.58526 34.436C3.33654 34.436 3.14654 34.3652 3.01527 34.2235C2.884 34.0819 2.81836 33.8867 2.81836 33.638Z" fill="#DB5A2F"/>
<path d="M8.8292 34.3893C8.10375 34.3893 7.54067 34.1285 7.13995 33.6069H7.0674C7.11577 34.0905 7.13995 34.3842 7.13995 34.4878V36.8351H5.92223V28.5547H6.90677C6.9344 28.6618 6.9914 28.9174 7.07777 29.3216H7.13995C7.51994 28.7412 8.08994 28.4511 8.84993 28.4511C9.56501 28.4511 10.1212 28.7101 10.5185 29.2283C10.9192 29.7465 11.1195 30.4737 11.1195 31.4098C11.1195 32.346 10.9157 33.0766 10.5081 33.6017C10.1039 34.1268 9.54428 34.3893 8.8292 34.3893ZM8.53384 29.446C8.05021 29.446 7.69612 29.5876 7.47158 29.8709C7.25049 30.1541 7.13995 30.6067 7.13995 31.2285V31.4098C7.13995 32.1076 7.25049 32.6137 7.47158 32.9281C7.69267 33.239 8.05366 33.3945 8.55457 33.3945C8.97602 33.3945 9.30074 33.2217 9.52874 32.8763C9.75674 32.5308 9.87074 32.0386 9.87074 31.3995C9.87074 30.7569 9.75674 30.2716 9.52874 29.9434C9.3042 29.6118 8.97256 29.446 8.53384 29.446Z" fill="#DB5A2F"/>
<path d="M15.4411 34.3893C14.7157 34.3893 14.1526 34.1285 13.7519 33.6069H13.6793C13.7277 34.0905 13.7519 34.3842 13.7519 34.4878V36.8351H12.5342V28.5547H13.5187C13.5463 28.6618 13.6033 28.9174 13.6897 29.3216H13.7519C14.1319 28.7412 14.7019 28.4511 15.4619 28.4511C16.1769 28.4511 16.7331 28.7101 17.1304 29.2283C17.5311 29.7465 17.7315 30.4737 17.7315 31.4098C17.7315 32.346 17.5276 33.0766 17.12 33.6017C16.7158 34.1268 16.1562 34.3893 15.4411 34.3893ZM15.1458 29.446C14.6621 29.446 14.308 29.5876 14.0835 29.8709C13.8624 30.1541 13.7519 30.6067 13.7519 31.2285V31.4098C13.7519 32.1076 13.8624 32.6137 14.0835 32.9281C14.3046 33.239 14.6656 33.3945 15.1665 33.3945C15.5879 33.3945 15.9127 33.2217 16.1407 32.8763C16.3687 32.5308 16.4827 32.0386 16.4827 31.3995C16.4827 30.7569 16.3687 30.2716 16.1407 29.9434C15.9161 29.6118 15.5845 29.446 15.1458 29.446Z" fill="#DB5A2F"/>
<path d="M21.281 33.4048C21.5781 33.4048 21.8751 33.3582 22.1722 33.2649V34.1821C22.0375 34.2408 21.8631 34.2892 21.6489 34.3272C21.4382 34.3686 21.2188 34.3893 20.9908 34.3893C19.837 34.3893 19.2601 33.7814 19.2601 32.5654V29.477H18.4776V28.9381L19.3171 28.4925L19.7316 27.28H20.483V28.5547H22.1152V29.477H20.483V32.5446C20.483 32.8383 20.5555 33.0559 20.7006 33.1975C20.8492 33.3357 21.0426 33.4048 21.281 33.4048Z" fill="#DB5A2F"/>
<path d="M24.5973 31.358L22.6749 28.5547H24.0636L25.3694 30.56L26.6855 28.5547H28.0639L26.1363 31.358L28.1623 34.2857H26.784L25.3694 32.1405L23.9599 34.2857H22.5816L24.5973 31.358Z" fill="#DB5A2F"/>
</svg>
