<svg width="32" height="40" viewBox="0 0 32 40" fill="none" xmlns="http://www.w3.org/2000/svg">
<path d="M1.77775 40H29.5555C30.476 40 31.2222 39.2538 31.2222 38.3333V11.8015C31.2222 11.3594 31.0466 10.9355 30.734 10.623L20.5992 0.488155C20.2867 0.175595 19.8628 0 19.4207 0H1.77775C0.857276 0 0.111084 0.746193 0.111084 1.66667V38.3333C0.111084 39.2538 0.857275 40 1.77775 40Z" fill="white"/>
<path fill-rule="evenodd" clip-rule="evenodd" d="M1.77775 39.1837H29.5555C30.0252 39.1837 30.4059 38.803 30.4059 38.3333V11.8015C30.4059 11.5759 30.3163 11.3597 30.1568 11.2002L20.022 1.06539C19.8625 0.905916 19.6462 0.816327 19.4207 0.816327H1.77775C1.30812 0.816327 0.92741 1.19704 0.92741 1.66667V38.3333C0.92741 38.803 1.30812 39.1837 1.77775 39.1837ZM20.5992 0.488155L30.734 10.623C31.0466 10.9355 31.2222 11.3594 31.2222 11.8015V38.3333C31.2222 39.2538 30.476 40 29.5555 40H1.77775C0.857275 40 0.111084 39.2538 0.111084 38.3333V1.66667C0.111084 0.746193 0.857276 0 1.77775 0H19.4207C19.8628 0 20.2867 0.175595 20.5992 0.488155Z" fill="#E9E9E9"/>
<path opacity="0.2" d="M24 11.6667C23.1111 11.6667 21.963 11.2963 21.5 11.1111L25.1111 10.2778L30.6667 11.1111C30.8519 11.6667 31.1667 12.6667 30.9444 12.2222C30.6667 11.6667 25.1111 11.6667 24 11.6667Z" fill="black"/>
<path d="M21.7778 11.1111H31.2222L20.1111 0V9.44444C20.1111 10.3649 20.8573 11.1111 21.7778 11.1111Z" fill="#27AE60"/>
<path d="M29.8333 11.1111C30.7221 11.1111 31.1295 12.4074 31.2221 13.0556V11.1111H29.8333Z" fill="#95B8FF"/>
<path d="M7.72656 33.638C7.72656 33.3858 7.7922 33.1924 7.92347 33.0576C8.05474 32.9229 8.24474 32.8555 8.49346 32.8555C8.74564 32.8555 8.93737 32.9264 9.06864 33.068C9.19991 33.2062 9.26555 33.3962 9.26555 33.638C9.26555 33.8833 9.19818 34.0784 9.06346 34.2235C8.93219 34.3652 8.74219 34.436 8.49346 34.436C8.24474 34.436 8.05474 34.3652 7.92347 34.2235C7.7922 34.0819 7.72656 33.8867 7.72656 33.638Z" fill="#27AE60"/>
<path d="M13.7374 28.4511C13.9827 28.4511 14.1848 28.4683 14.3437 28.5029L14.2245 29.6377C14.0518 29.5962 13.8721 29.5755 13.6856 29.5755C13.1985 29.5755 12.803 29.7344 12.499 30.0522C12.1984 30.37 12.0482 30.7828 12.0482 31.2907V34.2857H10.8304V28.5547H11.7839L11.9445 29.5651H12.0067C12.1967 29.2231 12.4437 28.952 12.7477 28.7516C13.0551 28.5512 13.385 28.4511 13.7374 28.4511Z" fill="#27AE60"/>
<path d="M17.546 33.4048C17.8431 33.4048 18.1402 33.3582 18.4373 33.2649V34.1821C18.3025 34.2408 18.1281 34.2892 17.9139 34.3272C17.7032 34.3686 17.4838 34.3893 17.2558 34.3893C16.102 34.3893 15.5251 33.7814 15.5251 32.5654V29.477H14.7427V28.9381L15.5821 28.4925L15.9967 27.28H16.748V28.5547H18.3803V29.477H16.748V32.5446C16.748 32.8383 16.8206 33.0559 16.9656 33.1975C17.1142 33.3357 17.3076 33.4048 17.546 33.4048Z" fill="#27AE60"/>
<path d="M22.4635 29.477H21.0644V34.2857H19.8415V29.477H18.8984V28.907L19.8415 28.534V28.1609C19.8415 27.4838 20.0004 26.9829 20.3182 26.6582C20.6361 26.33 21.1214 26.1659 21.7743 26.1659C22.2027 26.1659 22.6241 26.2367 23.0387 26.3783L22.7174 27.3007C22.4169 27.204 22.1301 27.1556 21.8572 27.1556C21.5809 27.1556 21.3788 27.242 21.251 27.4147C21.1266 27.584 21.0644 27.8396 21.0644 28.1816V28.5547H22.4635V29.477Z" fill="#27AE60"/>
</svg>
