<svg width="32" height="40" viewBox="0 0 32 40" fill="none" xmlns="http://www.w3.org/2000/svg">
<path d="M1.77775 40H29.5555C30.476 40 31.2222 39.2538 31.2222 38.3333V11.8015C31.2222 11.3594 31.0466 10.9355 30.734 10.623L20.5992 0.488155C20.2867 0.175595 19.8628 0 19.4207 0H1.77775C0.857276 0 0.111084 0.746193 0.111084 1.66667V38.3333C0.111084 39.2538 0.857275 40 1.77775 40Z" fill="white"/>
<path fill-rule="evenodd" clip-rule="evenodd" d="M1.77775 39.1837H29.5555C30.0252 39.1837 30.4059 38.803 30.4059 38.3333V11.8015C30.4059 11.5759 30.3163 11.3597 30.1568 11.2002L20.022 1.06539C19.8625 0.905916 19.6462 0.816327 19.4207 0.816327H1.77775C1.30812 0.816327 0.92741 1.19704 0.92741 1.66667V38.3333C0.92741 38.803 1.30812 39.1837 1.77775 39.1837ZM20.5992 0.488155L30.734 10.623C31.0466 10.9355 31.2222 11.3594 31.2222 11.8015V38.3333C31.2222 39.2538 30.476 40 29.5555 40H1.77775C0.857275 40 0.111084 39.2538 0.111084 38.3333V1.66667C0.111084 0.746193 0.857276 0 1.77775 0H19.4207C19.8628 0 20.2867 0.175595 20.5992 0.488155Z" fill="#E9E9E9"/>
<path opacity="0.2" d="M24 11.6667C23.1111 11.6667 21.963 11.2963 21.5 11.1111L25.1111 10.2778L30.6667 11.1111C30.8519 11.6667 31.1667 12.6667 30.9444 12.2222C30.6667 11.6667 25.1111 11.6667 24 11.6667Z" fill="black"/>
<path d="M21.7778 11.1111H31.2222L20.1111 0V9.44444C20.1111 10.3649 20.8573 11.1111 21.7778 11.1111Z" fill="#27AE60"/>
<path d="M29.8333 11.1111C30.7221 11.1111 31.1295 12.4074 31.2221 13.0556V11.1111H29.8333Z" fill="#8BFFBC"/>
<path d="M2.78613 33.638C2.78613 33.3858 2.85177 33.1924 2.98304 33.0576C3.11431 32.9229 3.30431 32.8556 3.55303 32.8556C3.80521 32.8556 3.99694 32.9264 4.12821 33.068C4.25948 33.2062 4.32512 33.3962 4.32512 33.638C4.32512 33.8833 4.25775 34.0784 4.12303 34.2235C3.99176 34.3652 3.80176 34.436 3.55303 34.436C3.30431 34.436 3.11431 34.3652 2.98304 34.2235C2.85177 34.0819 2.78613 33.8867 2.78613 33.638Z" fill="#27AE60"/>
<path d="M7.16472 31.358L5.24229 28.5547H6.631L7.9368 30.56L9.25297 28.5547H10.6313L8.7037 31.358L10.7298 34.2857H9.35142L7.9368 32.1405L6.52736 34.2857H5.14902L7.16472 31.358Z" fill="#27AE60"/>
<path d="M12.9527 34.2857H11.735V26.2229H12.9527V34.2857Z" fill="#27AE60"/>
<path d="M18.549 32.6535C18.549 33.2131 18.3452 33.6432 17.9376 33.9437C17.53 34.2408 16.9462 34.3894 16.1862 34.3894C15.4227 34.3894 14.8095 34.2736 14.3466 34.0422V32.9903C15.0203 33.3012 15.6473 33.4566 16.2276 33.4566C16.9772 33.4566 17.3521 33.2304 17.3521 32.7778C17.3521 32.6327 17.3106 32.5118 17.2277 32.4151C17.1448 32.3184 17.0083 32.2182 16.8183 32.1146C16.6283 32.0109 16.3641 31.8935 16.0255 31.7622C15.3657 31.5066 14.9184 31.2509 14.6835 30.9953C14.452 30.7397 14.3363 30.408 14.3363 30.0004C14.3363 29.5099 14.5332 29.1299 14.927 28.8604C15.3243 28.5875 15.8632 28.4511 16.5437 28.4511C17.2173 28.4511 17.8547 28.5875 18.4558 28.8604L18.062 29.7776C17.4436 29.522 16.9237 29.3941 16.5023 29.3941C15.8597 29.3941 15.5384 29.5772 15.5384 29.9434C15.5384 30.123 15.6214 30.275 15.7872 30.3994C15.9564 30.5238 16.3226 30.6948 16.8857 30.9124C17.359 31.0955 17.7027 31.263 17.9169 31.415C18.1311 31.567 18.29 31.7432 18.3936 31.9436C18.4972 32.1405 18.549 32.3771 18.549 32.6535Z" fill="#27AE60"/>
<path d="M24.6998 34.2857H23.4769V30.7518C23.4769 30.313 23.394 29.9866 23.2282 29.7724C23.0624 29.5548 22.8033 29.446 22.4509 29.446C21.9811 29.446 21.6357 29.5997 21.4146 29.9071C21.1969 30.2111 21.0881 30.7189 21.0881 31.4306V34.2857H19.8704V28.5547H20.8238L20.9948 29.306H21.057C21.2159 29.0331 21.4457 28.8224 21.7462 28.6739C22.0502 28.5253 22.3836 28.4511 22.7463 28.4511C23.6272 28.4511 24.211 28.7516 24.4977 29.3527H24.5806C24.7499 29.0694 24.9882 28.8483 25.2957 28.6894C25.6032 28.5305 25.9555 28.4511 26.3528 28.4511C27.0368 28.4511 27.5342 28.6238 27.8451 28.9692C28.1595 29.3147 28.3167 29.8415 28.3167 30.5497V34.2857H27.099V30.7518C27.099 30.313 27.0143 29.9866 26.845 29.7724C26.6792 29.5548 26.4201 29.446 26.0678 29.446C25.5945 29.446 25.2473 29.5945 25.0262 29.8916C24.8086 30.1852 24.6998 30.6378 24.6998 31.2492V34.2857Z" fill="#27AE60"/>
</svg>
