<svg width="32" height="40" viewBox="0 0 32 40" fill="none" xmlns="http://www.w3.org/2000/svg">
<path d="M1.88883 40H29.6666C30.5871 40 31.3333 39.2538 31.3333 38.3333V11.8015C31.3333 11.3594 31.1577 10.9355 30.8451 10.623L20.7103 0.488155C20.3978 0.175595 19.9738 0 19.5318 0H1.88883C0.96836 0 0.222168 0.746193 0.222168 1.66667V38.3333C0.222168 39.2538 0.968359 40 1.88883 40Z" fill="white"/>
<path fill-rule="evenodd" clip-rule="evenodd" d="M1.88883 39.1837H29.6666C30.1362 39.1837 30.517 38.803 30.517 38.3333V11.8015C30.517 11.5759 30.4274 11.3597 30.2679 11.2002L20.1331 1.06539C19.9736 0.905916 19.7573 0.816327 19.5318 0.816327H1.88883C1.41921 0.816327 1.03849 1.19704 1.03849 1.66667V38.3333C1.03849 38.803 1.4192 39.1837 1.88883 39.1837ZM20.7103 0.488155L30.8451 10.623C31.1577 10.9355 31.3333 11.3594 31.3333 11.8015V38.3333C31.3333 39.2538 30.5871 40 29.6666 40H1.88883C0.968359 40 0.222168 39.2538 0.222168 38.3333V1.66667C0.222168 0.746193 0.96836 0 1.88883 0H19.5318C19.9738 0 20.3978 0.175595 20.7103 0.488155Z" fill="#E9E9E9"/>
<path opacity="0.2" d="M24.1111 11.6667C23.2222 11.6667 22.074 11.2963 21.6111 11.1111L25.2222 10.2778L30.7778 11.1111C30.9629 11.6667 31.2778 12.6667 31.0555 12.2222C30.7778 11.6667 25.2222 11.6667 24.1111 11.6667Z" fill="black"/>
<path d="M21.8888 11.1111H31.3333L20.2222 0V9.44444C20.2222 10.3649 20.9684 11.1111 21.8888 11.1111Z" fill="#27AE60"/>
<path d="M29.9443 11.1111C30.8332 11.1111 31.2406 12.4074 31.3332 13.0556V11.1111H29.9443Z" fill="#95B8FF"/>
<path d="M4.2312 33.638C4.2312 33.3858 4.29684 33.1924 4.42811 33.0576C4.55938 32.9229 4.74938 32.8556 4.9981 32.8556C5.25028 32.8556 5.44201 32.9264 5.57328 33.068C5.70455 33.2062 5.77018 33.3962 5.77018 33.638C5.77018 33.8833 5.70282 34.0784 5.5681 34.2235C5.43682 34.3652 5.24683 34.436 4.9981 34.436C4.74938 34.436 4.55938 34.3652 4.42811 34.2235C4.29684 34.0819 4.2312 33.8867 4.2312 33.638Z" fill="#27AE60"/>
<path d="M8.60979 31.358L6.68736 28.5547H8.07607L9.38187 30.56L10.698 28.5547H12.0764L10.1488 31.358L12.1748 34.2857H10.7965L9.38187 32.1405L7.97243 34.2857H6.59408L8.60979 31.358Z" fill="#27AE60"/>
<path d="M14.3978 34.2857H13.1801V26.2229H14.3978V34.2857Z" fill="#27AE60"/>
<path d="M19.9941 32.6535C19.9941 33.2131 19.7903 33.6432 19.3827 33.9437C18.975 34.2408 18.3912 34.3894 17.6312 34.3894C16.8678 34.3894 16.2546 34.2736 15.7917 34.0422V32.9903C16.4653 33.3012 17.0923 33.4566 17.6727 33.4566C18.4223 33.4566 18.7971 33.2304 18.7971 32.7778C18.7971 32.6327 18.7557 32.5118 18.6728 32.4151C18.5899 32.3184 18.4534 32.2182 18.2634 32.1146C18.0734 32.0109 17.8091 31.8935 17.4706 31.7622C16.8108 31.5066 16.3634 31.2509 16.1285 30.9953C15.8971 30.7397 15.7813 30.408 15.7813 30.0004C15.7813 29.5099 15.9783 29.1299 16.3721 28.8604C16.7693 28.5875 17.3082 28.4511 17.9888 28.4511C18.6624 28.4511 19.2998 28.5875 19.9008 28.8604L19.507 29.7776C18.8887 29.522 18.3688 29.3941 17.9473 29.3941C17.3048 29.3941 16.9835 29.5772 16.9835 29.9434C16.9835 30.123 17.0664 30.275 17.2322 30.3994C17.4015 30.5238 17.7677 30.6948 18.3308 30.9124C18.804 31.0955 19.1478 31.263 19.3619 31.415C19.5761 31.567 19.735 31.7432 19.8387 31.9436C19.9423 32.1405 19.9941 32.3771 19.9941 32.6535Z" fill="#27AE60"/>
<path d="M22.5902 31.358L20.6677 28.5547H22.0565L23.3623 30.56L24.6784 28.5547H26.0568L24.1292 31.358L26.1552 34.2857H24.7769L23.3623 32.1405L21.9528 34.2857H20.5745L22.5902 31.358Z" fill="#27AE60"/>
</svg>
