<svg width="32" height="40" viewBox="0 0 32 40" fill="none" xmlns="http://www.w3.org/2000/svg">
<path d="M1.88883 40H29.6666C30.5871 40 31.3333 39.2538 31.3333 38.3333V11.8015C31.3333 11.3594 31.1577 10.9355 30.8451 10.623L20.7103 0.488155C20.3978 0.175595 19.9738 0 19.5318 0H1.88883C0.96836 0 0.222168 0.746193 0.222168 1.66667V38.3333C0.222168 39.2538 0.968359 40 1.88883 40Z" fill="white"/>
<path fill-rule="evenodd" clip-rule="evenodd" d="M1.88883 39.1837H29.6666C30.1362 39.1837 30.517 38.803 30.517 38.3333V11.8015C30.517 11.5759 30.4274 11.3597 30.2679 11.2002L20.1331 1.06539C19.9736 0.905916 19.7573 0.816327 19.5318 0.816327H1.88883C1.41921 0.816327 1.03849 1.19704 1.03849 1.66667V38.3333C1.03849 38.803 1.4192 39.1837 1.88883 39.1837ZM20.7103 0.488155L30.8451 10.623C31.1577 10.9355 31.3333 11.3594 31.3333 11.8015V38.3333C31.3333 39.2538 30.5871 40 29.6666 40H1.88883C0.968359 40 0.222168 39.2538 0.222168 38.3333V1.66667C0.222168 0.746193 0.96836 0 1.88883 0H19.5318C19.9738 0 20.3978 0.175595 20.7103 0.488155Z" fill="#E9E9E9"/>
<path opacity="0.2" d="M24.1111 11.6667C23.2222 11.6667 22.074 11.2963 21.6111 11.1111L25.2222 10.2778L30.7778 11.1111C30.9629 11.6667 31.2778 12.6667 31.0555 12.2222C30.7778 11.6667 25.2222 11.6667 24.1111 11.6667Z" fill="black"/>
<path d="M21.8888 11.1111H31.3333L20.2222 0V9.44444C20.2222 10.3649 20.9684 11.1111 21.8888 11.1111Z" fill="#27AE60"/>
<path d="M29.9443 11.1111C30.8332 11.1111 31.2406 12.4074 31.3332 13.0556V11.1111H29.9443Z" fill="#8BFFBC"/>
<path d="M5.07471 33.638C5.07471 33.3858 5.14034 33.1924 5.27161 33.0576C5.40289 32.9229 5.59288 32.8556 5.84161 32.8556C6.09379 32.8556 6.28551 32.9264 6.41678 33.068C6.54805 33.2062 6.61369 33.3962 6.61369 33.638C6.61369 33.8833 6.54633 34.0784 6.4116 34.2235C6.28033 34.3652 6.09033 34.436 5.84161 34.436C5.59288 34.436 5.40289 34.3652 5.27161 34.2235C5.14034 34.0819 5.07471 33.8867 5.07471 33.638Z" fill="#27AE60"/>
<path d="M9.45329 31.358L7.53086 28.5547H8.91957L10.2254 30.56L11.5415 28.5547H12.9199L10.9923 31.358L13.0183 34.2857H11.64L10.2254 32.1405L8.81594 34.2857H7.43759L9.45329 31.358Z" fill="#27AE60"/>
<path d="M18.853 34.2857H17.6301V30.7518C17.6301 30.313 17.5472 29.9866 17.3814 29.7724C17.2156 29.5548 16.9565 29.446 16.6041 29.446C16.1343 29.446 15.7889 29.5997 15.5678 29.9071C15.3501 30.2111 15.2413 30.7189 15.2413 31.4306V34.2857H14.0236V28.5547H14.977L15.148 29.306H15.2102C15.3691 29.0331 15.5989 28.8224 15.8994 28.6739C16.2034 28.5253 16.5368 28.4511 16.8995 28.4511C17.7804 28.4511 18.3642 28.7516 18.6509 29.3527H18.7338C18.9031 29.0694 19.1415 28.8483 19.4489 28.6894C19.7564 28.5305 20.1087 28.4511 20.506 28.4511C21.19 28.4511 21.6874 28.6238 21.9983 28.9692C22.3127 29.3147 22.4699 29.8415 22.4699 30.5497V34.2857H21.2522V30.7518C21.2522 30.313 21.1675 29.9866 20.9983 29.7724C20.8324 29.5548 20.5733 29.446 20.221 29.446C19.7477 29.446 19.4005 29.5945 19.1795 29.8916C18.9618 30.1852 18.853 30.6378 18.853 31.2492V34.2857Z" fill="#27AE60"/>
<path d="M25.3872 34.2857H24.1695V26.2229H25.3872V34.2857Z" fill="#27AE60"/>
</svg>
