<svg width="18" height="18" viewBox="0 0 18 18" fill="none" xmlns="http://www.w3.org/2000/svg">
<path d="M18 4.20708V13.7696C18 14.9328 17.0538 15.879 15.8906 15.879H9.45703C9.06871 15.879 8.75391 15.5642 8.75391 15.1758C8.75391 14.7875 9.06871 14.4727 9.45703 14.4727H15.8906C16.2783 14.4727 16.5938 14.1573 16.5938 13.7696V4.20708C16.5938 3.8194 16.2783 3.50395 15.8906 3.50395H13.3546L13.994 4.14343C14.2686 4.41802 14.2686 4.86323 13.994 5.13782C13.7194 5.41242 13.2742 5.41241 12.9996 5.13781L10.6794 2.81744L12.9996 0.4972C13.2742 0.222604 13.7194 0.222604 13.994 0.4972C14.2686 0.771796 14.2686 1.217 13.994 1.4916L13.3879 2.0977H15.8906C17.0538 2.0977 18 3.04404 18 4.20708ZM4.00772 12.8555C3.73314 13.1302 3.73317 13.5754 4.00779 13.85L4.6306 14.4727H2.10938C1.72169 14.4727 1.40625 14.1573 1.40625 13.7696V4.20708C1.40625 3.8194 1.72169 3.50395 2.10938 3.50395H8.61328C9.00161 3.50395 9.31641 3.18915 9.31641 2.80083C9.31641 2.4125 9.00161 2.0977 8.61328 2.0977H2.10938C0.946198 2.0977 0 3.04404 0 4.20708V13.7696C0 14.9328 0.946198 15.879 2.10938 15.879H4.6306L4.00774 16.5018C3.73315 16.7764 3.73315 17.2216 4.00774 17.4962C4.28234 17.7708 4.72755 17.7708 5.00214 17.4962L7.32253 15.1758L5.0022 12.8555C4.72758 12.5809 4.28233 12.5809 4.00772 12.8555Z" fill="#0E7D7D"/>
</svg>
