<svg width="20" height="20" viewBox="0 0 20 20" fill="none" xmlns="http://www.w3.org/2000/svg">
<path d="M3.33366 15.8335H1.66699C1.66699 13.0721 3.90557 10.8335 6.66699 10.8335C9.42842 10.8335 11.667 13.0721 11.667 15.8335H10.0003C10.0003 13.9925 8.50794 12.5002 6.66699 12.5002C4.82604 12.5002 3.33366 13.9925 3.33366 15.8335ZM13.3287 12.8418L11.0737 10.5918L12.2503 9.41016L13.327 10.4868L16.9103 6.91016L18.087 8.09016L13.327 12.8402L13.3287 12.8418ZM6.66699 10.0002C4.82604 10.0002 3.33366 8.50778 3.33366 6.66683C3.33366 4.82588 4.82604 3.3335 6.66699 3.3335C8.50794 3.3335 10.0003 4.82588 10.0003 6.66683C9.99803 8.50683 8.50699 9.99787 6.66699 10.0002ZM6.66699 5.00016C5.75649 5.00109 5.01523 5.73254 5.00219 6.64295C4.98914 7.55336 5.70913 8.30575 6.61923 8.33276C7.52934 8.35978 8.29269 7.65141 8.33366 6.74183V7.07516V6.66683C8.33366 5.74635 7.58747 5.00016 6.66699 5.00016Z" fill="#0E7D7D"/>
</svg>
