<svg width="28" height="35" viewBox="0 0 28 35" fill="none" xmlns="http://www.w3.org/2000/svg">
<path d="M1.45833 35H25.7639C26.5693 35 27.2222 34.3471 27.2222 33.5417V10.3263C27.2222 9.93951 27.0686 9.56858 26.7951 9.29509L17.9271 0.427136C17.6536 0.153645 17.2827 0 16.8959 0H1.45833C0.652918 0 0 0.652919 0 1.45833V33.5417C0 34.3471 0.652917 35 1.45833 35Z" fill="white"/>
<path fill-rule="evenodd" clip-rule="evenodd" d="M1.45833 34.2857H25.7639C26.1748 34.2857 26.5079 33.9526 26.5079 33.5417V10.3263C26.5079 10.129 26.4295 9.9397 26.29 9.80016L17.4221 0.932212C17.2825 0.792676 17.0933 0.714286 16.8959 0.714286H1.45833C1.04741 0.714286 0.714286 1.04741 0.714286 1.45833V33.5417C0.714286 33.9526 1.04741 34.2857 1.45833 34.2857ZM17.9271 0.427136L26.7951 9.29509C27.0686 9.56858 27.2222 9.93951 27.2222 10.3263V33.5417C27.2222 34.3471 26.5693 35 25.7639 35H1.45833C0.652917 35 0 34.3471 0 33.5417V1.45833C0 0.652919 0.652918 0 1.45833 0H16.8959C17.2827 0 17.6536 0.153645 17.9271 0.427136Z" fill="#E9E9E9"/>
<path opacity="0.2" d="M20.9023 10.2084C20.1246 10.2084 19.1199 9.88437 18.7148 9.72233L21.8746 8.99316L26.7357 9.72233C26.8977 10.2084 27.1732 11.0834 26.9787 10.6946C26.7357 10.2084 21.8746 10.2084 20.9023 10.2084Z" fill="black"/>
<path d="M18.9583 9.72222H27.2222L17.5 0V8.26389C17.5 9.0693 18.1529 9.72222 18.9583 9.72222Z" fill="#27AE60"/>
<path d="M26.0078 9.72266C26.7856 9.72266 27.1421 10.8569 27.2231 11.424V9.72266H26.0078Z" fill="#8BFFBC"/>
<path d="M5.71484 29.283C5.71484 29.0564 5.7729 28.8827 5.889 28.7616C6.00511 28.6406 6.17316 28.5801 6.39315 28.5801C6.6162 28.5801 6.78578 28.6437 6.90188 28.7709C7.01799 28.8951 7.07604 29.0658 7.07604 29.283C7.07604 29.5033 7.01646 29.6787 6.8973 29.809C6.78119 29.9362 6.61314 29.9999 6.39315 29.9999C6.17316 29.9999 6.00511 29.9362 5.889 29.809C5.7729 29.6818 5.71484 29.5064 5.71484 29.283Z" fill="#27AE60"/>
<path d="M10.3484 29.0735C10.6112 29.0735 10.874 29.0316 11.1367 28.9478V29.7718C11.0176 29.8245 10.8633 29.868 10.6738 29.9021C10.4874 29.9393 10.2934 29.958 10.0918 29.958C9.07125 29.958 8.56099 29.4118 8.56099 28.3194V25.545H7.86893V25.0609L8.6114 24.6606L8.97805 23.5713H9.64261V24.7164H11.0863V25.545H9.64261V28.3008C9.64261 28.5646 9.70678 28.7601 9.83511 28.8873C9.96649 29.0114 10.1376 29.0735 10.3484 29.0735Z" fill="#27AE60"/>
<path d="M13.2816 27.2348L11.5813 24.7164H12.8096L13.9645 26.5179L15.1287 24.7164H16.3478L14.6428 27.2348L16.4349 29.8649H15.2157L13.9645 27.9377L12.7179 29.8649H11.4988L13.2816 27.2348Z" fill="#27AE60"/>
<path d="M19.2123 29.0735C19.475 29.0735 19.7378 29.0316 20.0006 28.9478V29.7718C19.8814 29.8245 19.7271 29.868 19.5377 29.9021C19.3513 29.9393 19.1573 29.958 18.9556 29.958C17.9351 29.958 17.4248 29.4118 17.4248 28.3194V25.545H16.7328V25.0609L17.4752 24.6606L17.8419 23.5713H18.5064V24.7164H19.9501V25.545H18.5064V28.3008C18.5064 28.5646 18.5706 28.7601 18.6989 28.8873C18.8303 29.0114 19.0014 29.0735 19.2123 29.0735Z" fill="#27AE60"/>
</svg>
