<svg width="16" height="16" viewBox="0 0 16 16" fill="none" xmlns="http://www.w3.org/2000/svg">
<path d="M8.83333 15.5H2.16667C1.24619 15.5 0.5 14.7538 0.5 13.8333V2.16667C0.5 1.24619 1.24619 0.5 2.16667 0.5H13.8333C14.7538 0.5 15.5 1.24619 15.5 2.16667V8.83333C15.4996 8.84296 15.4979 8.85249 15.495 8.86167C15.4926 8.86927 15.4909 8.87708 15.49 8.885C15.4853 8.95849 15.471 9.03105 15.4475 9.10083L15.44 9.12333C15.4344 9.14215 15.4274 9.16053 15.4192 9.17833C15.3788 9.26912 15.3223 9.35184 15.2525 9.4225L9.41917 15.2558C9.26374 15.4113 9.05317 15.4991 8.83333 15.5ZM2.16667 2.16667V13.8333H8V8.83333C8 8.3731 8.3731 8 8.83333 8H13.8333V2.16667H2.16667ZM9.66667 9.66667V12.6558L12.655 9.66667H9.66667Z" fill="white"/>
</svg>
