<svg width="19" height="17" viewBox="0 0 19 17" fill="none" xmlns="http://www.w3.org/2000/svg">
<path d="M6.75004 0.166748C4.21874 0.166748 2.16671 2.21878 2.16671 4.75008C2.16671 7.28139 4.21874 9.33342 6.75004 9.33342C9.28134 9.33342 11.3334 7.28139 11.3334 4.75008C11.3334 2.21878 9.28134 0.166748 6.75004 0.166748ZM4.00004 4.75008C4.00004 3.2313 5.23126 2.00008 6.75004 2.00008C8.26882 2.00008 9.50004 3.2313 9.50004 4.75008C9.50004 6.26886 8.26882 7.50008 6.75004 7.50008C5.23126 7.50008 4.00004 6.26886 4.00004 4.75008Z" fill="white"/>
<path d="M13.9994 4.95017C13.7415 4.81868 13.4562 4.75014 13.1667 4.75014V2.9168C13.7457 2.9168 14.3164 3.05385 14.8322 3.31683C14.889 3.34579 14.945 3.37619 15 3.40799C15.445 3.66487 15.8316 4.0128 16.1342 4.42976C16.4743 4.89833 16.6986 5.44076 16.7887 6.01267C16.8788 6.58457 16.8322 7.16969 16.6527 7.72013C16.4732 8.27057 16.166 8.77068 15.756 9.17953C15.3461 9.58839 14.8452 9.89435 14.2943 10.0724C13.8041 10.2308 13.2866 10.284 12.7758 10.2292C12.7126 10.2224 12.6494 10.214 12.5865 10.2039C12.0152 10.1123 11.4737 9.88688 11.0062 9.54598L11.0053 9.54529L12.086 8.06435C12.3198 8.23499 12.5908 8.34779 12.8766 8.39359C13.1624 8.4394 13.455 8.41687 13.7305 8.32785C14.0059 8.23884 14.2564 8.08586 14.4613 7.88144C14.6663 7.67702 14.8199 7.42697 14.9097 7.15176C14.9994 6.87654 15.0227 6.58399 14.9776 6.29805C14.9326 6.01211 14.8204 5.7409 14.6504 5.50662C14.4804 5.27234 14.2573 5.08166 13.9994 4.95017Z" fill="white"/>
<path d="M16.8316 16.6667C16.8316 16.1855 16.7368 15.7089 16.5527 15.2642C16.3685 14.8196 16.0985 14.4156 15.7582 14.0753C15.4179 13.7349 15.0139 13.465 14.5692 13.2808C14.1246 13.0966 13.648 13.0018 13.1667 13.0018V11.1667C13.7919 11.1667 14.4119 11.2734 15 11.4813C15.0913 11.5136 15.1818 11.5483 15.2715 11.5854C15.9388 11.8618 16.5451 12.2669 17.0558 12.7777C17.5665 13.2884 17.9716 13.8947 18.248 14.562C18.2852 14.6516 18.3199 14.7421 18.3522 14.8334C18.5601 15.4216 18.6667 16.0415 18.6667 16.6667H16.8316Z" fill="white"/>
<path d="M13.1667 16.6667H11.3334C11.3334 14.1354 9.28135 12.0834 6.75004 12.0834C4.21874 12.0834 2.16671 14.1354 2.16671 16.6667H0.333374C0.333374 13.1229 3.20621 10.2501 6.75004 10.2501C10.2939 10.2501 13.1667 13.1229 13.1667 16.6667Z" fill="white"/>
</svg>
