<svg width="22" height="19" viewBox="0 0 22 19" fill="none" xmlns="http://www.w3.org/2000/svg">
<path d="M19.8 18.7004H2.2C0.984973 18.7004 0 17.7154 0 16.5004V6.60039C0 5.38536 0.984973 4.40039 2.2 4.40039H19.8C21.015 4.40039 22 5.38536 22 6.60039V16.5004C22 17.7154 21.015 18.7004 19.8 18.7004ZM2.2 6.60039V16.5004H19.8V6.60039H2.2Z" fill="white"/>
<path fill-rule="evenodd" clip-rule="evenodd" d="M6.60002 2.2V4.4H15.4V2.2H6.60002ZM5.50002 0C4.89251 0 4.40002 0.492487 4.40002 1.1V5.5C4.40002 6.10751 4.89251 6.6 5.50002 6.6H16.5C17.1075 6.6 17.6 6.10751 17.6 5.5V1.1C17.6 0.492487 17.1075 0 16.5 0H5.50002Z" fill="white"/>
<path fill-rule="evenodd" clip-rule="evenodd" d="M1.1 8.80078C0.492487 8.80078 0 9.29327 0 9.90078C0 10.5083 0.492487 11.0008 1.1 11.0008H20.9C21.5075 11.0008 22 10.5083 22 9.90078C22 9.29327 21.5075 8.80078 20.9 8.80078H1.1Z" fill="white"/>
</svg>
