<svg width="22" height="19" viewBox="0 0 22 19" fill="none" xmlns="http://www.w3.org/2000/svg">
<path d="M19.8 18.6999H2.2C0.984973 18.6999 0 17.7149 0 16.4999V6.5999C0 5.38488 0.984973 4.3999 2.2 4.3999H19.8C21.015 4.3999 22 5.38488 22 6.5999V16.4999C22 17.7149 21.015 18.6999 19.8 18.6999ZM2.2 6.5999V16.4999H19.8V6.5999H2.2Z" fill="white"/>
<path fill-rule="evenodd" clip-rule="evenodd" d="M6.5999 2.2V4.4H15.3999V2.2H6.5999ZM5.4999 0C4.89239 0 4.3999 0.492487 4.3999 1.1V5.5C4.3999 6.10751 4.89239 6.6 5.4999 6.6H16.4999C17.1074 6.6 17.5999 6.10751 17.5999 5.5V1.1C17.5999 0.492487 17.1074 0 16.4999 0H5.4999Z" fill="white"/>
<path fill-rule="evenodd" clip-rule="evenodd" d="M1.1 8.7998C0.492487 8.7998 0 9.29229 0 9.8998C0 10.5073 0.492487 10.9998 1.1 10.9998H20.9C21.5075 10.9998 22 10.5073 22 9.8998C22 9.29229 21.5075 8.7998 20.9 8.7998H1.1Z" fill="white"/>
</svg>
