<svg width="16" height="17" viewBox="0 0 16 17" fill="none" xmlns="http://www.w3.org/2000/svg">
<circle cx="8" cy="8.5" r="8" fill="white"/>
<path d="M10.0369 12.5914L9.8911 13.1874C9.45371 13.3601 9.10431 13.4915 8.84414 13.5818C8.58368 13.6724 8.28105 13.7175 7.93624 13.7175C7.40672 13.7175 6.99486 13.5878 6.70111 13.3301C6.40736 13.0715 6.26044 12.7437 6.26044 12.346C6.26044 12.1921 6.2711 12.0337 6.29326 11.8724C6.31561 11.7109 6.35115 11.529 6.39978 11.3257L6.94641 9.39094C6.99504 9.20568 7.03638 9.03014 7.06948 8.86414C7.10306 8.69917 7.11924 8.54738 7.11924 8.41075C7.11924 8.16366 7.06808 7.99084 6.96624 7.89367C6.86439 7.79678 6.67006 7.74759 6.38155 7.74759C6.24024 7.74759 6.095 7.77022 5.94695 7.81399C5.79826 7.85794 5.67116 7.9004 5.56445 7.93987L5.71063 7.34339C6.06872 7.19759 6.411 7.07274 6.73842 6.96912C7.06584 6.86522 7.3752 6.81322 7.66783 6.81322C8.1937 6.81322 8.59949 6.94032 8.88445 7.19451C9.1694 7.44888 9.31184 7.77864 9.31184 8.18499C9.31184 8.26906 9.30248 8.4172 9.28238 8.62893C9.26274 8.84113 9.22617 9.03556 9.17286 9.21241L8.62857 11.1394C8.58396 11.2942 8.54384 11.4711 8.50896 11.6702C8.47295 11.868 8.45575 12.0192 8.45575 12.1205C8.45575 12.3764 8.51279 12.5511 8.62717 12.644C8.74239 12.7368 8.94084 12.783 9.22271 12.783C9.35504 12.783 9.50561 12.7596 9.67292 12.7135C9.83976 12.6674 9.96143 12.6269 10.0369 12.5914ZM10.1749 4.50129C10.1749 4.83703 10.0484 5.12377 9.79412 5.35953C9.54049 5.59614 9.23487 5.71454 8.87734 5.71454C8.51869 5.71454 8.21231 5.59614 7.95578 5.35953C7.69972 5.12367 7.57141 4.83703 7.57141 4.50129C7.57141 4.16621 7.69972 3.879 7.95578 3.64025C8.21184 3.40186 8.51878 3.28271 8.87734 3.28271C9.23477 3.28271 9.54049 3.40214 9.79412 3.64025C10.0486 3.879 10.1749 4.1663 10.1749 4.50129Z" fill="#0E7D7D"/>
</svg>
