<svg width="16" height="16" viewBox="0 0 16 16" fill="none" xmlns="http://www.w3.org/2000/svg">
<circle cx="8" cy="8" r="8" fill="#9E9E9E"/>
<path d="M10.0379 12.0914L9.89208 12.6874C9.45468 12.8601 9.10529 12.9915 8.84511 13.0818C8.58466 13.1724 8.28202 13.2175 7.93721 13.2175C7.4077 13.2175 6.99583 13.0878 6.70208 12.8301C6.40833 12.5715 6.26141 12.2437 6.26141 11.846C6.26141 11.6921 6.27207 11.5337 6.29424 11.3724C6.31659 11.2109 6.35213 11.029 6.40076 10.8257L6.94739 8.89094C6.99602 8.70568 7.03736 8.53014 7.07046 8.36414C7.10404 8.19917 7.12021 8.04738 7.12021 7.91075C7.12021 7.66366 7.06906 7.49084 6.96721 7.39367C6.86537 7.29678 6.67103 7.24759 6.38252 7.24759C6.24121 7.24759 6.09597 7.27022 5.94793 7.31399C5.79923 7.35794 5.67214 7.4004 5.56543 7.43987L5.7116 6.84339C6.06969 6.69759 6.41198 6.57274 6.7394 6.46912C7.06681 6.36522 7.37618 6.31322 7.66881 6.31322C8.19468 6.31322 8.60046 6.44032 8.88542 6.69451C9.17038 6.94888 9.31281 7.27864 9.31281 7.68499C9.31281 7.76906 9.30346 7.9172 9.28335 8.12893C9.26371 8.34113 9.22715 8.53556 9.17384 8.71241L8.62955 10.6394C8.58494 10.7942 8.54482 10.9711 8.50994 11.1702C8.47393 11.368 8.45672 11.5192 8.45672 11.6205C8.45672 11.8764 8.51377 12.0511 8.62815 12.144C8.74336 12.2368 8.94181 12.283 9.22369 12.283C9.35602 12.283 9.50659 12.2596 9.6739 12.2135C9.84074 12.1674 9.96241 12.1269 10.0379 12.0914ZM10.1759 4.00129C10.1759 4.33703 10.0494 4.62377 9.7951 4.85953C9.54147 5.09614 9.23584 5.21454 8.87831 5.21454C8.51966 5.21454 8.21329 5.09614 7.95676 4.85953C7.7007 4.62367 7.57239 4.33703 7.57239 4.00129C7.57239 3.66621 7.7007 3.379 7.95676 3.14025C8.21282 2.90186 8.51976 2.78271 8.87831 2.78271C9.23575 2.78271 9.54147 2.90214 9.7951 3.14025C10.0496 3.379 10.1759 3.6663 10.1759 4.00129Z" fill="white"/>
</svg>
