<svg width="22" height="19" viewBox="0 0 22 19" fill="none" xmlns="http://www.w3.org/2000/svg">
<path d="M20.9484 13.4218C20.8104 12.9004 20.3964 12.5018 19.8904 12.3638V5.29522H20.335C20.6264 5.29522 20.8564 5.06523 20.8564 4.7739V1.52328C20.8564 1.23195 20.6264 1.00195 20.335 1.00195H6.07526C5.78393 1.00195 5.55393 1.23195 5.55393 1.52328V4.7739C5.55393 5.06523 5.78393 5.29522 6.07526 5.29522H6.51992V11.3825H6.39725C6.39725 11.3825 6.39725 11.3825 6.38192 11.3825C5.66126 11.3825 4.95594 11.5665 4.32728 11.9038V10.6158C4.32728 10.3245 4.09729 10.0945 3.80596 10.0945H1.52133C1.23 10.0945 1 10.3245 1 10.6158V18.083C1 18.3744 1.23 18.6044 1.52133 18.6044H3.79062C4.08195 18.6044 4.31195 18.3744 4.31195 18.083V16.795C4.94061 17.1324 5.64593 17.3164 6.38192 17.3164C6.38192 17.3164 6.38192 17.3164 6.39725 17.3164H11.7332C12.1165 17.3164 12.4998 17.2704 12.8832 17.163L19.9057 15.2771C20.6877 15.0471 21.163 14.2191 20.9484 13.4218ZM18.8477 12.4404L15.3978 13.3758C15.1985 13.0231 14.8765 12.7778 14.4778 12.6704L10.1079 11.5051C9.8472 11.4285 9.5712 11.3978 9.31054 11.3978H7.56257V5.29522H18.8477V12.4404ZM14.5391 14.0658V14.0964V14.1118V14.1271C14.5391 14.1578 14.5391 14.1884 14.5238 14.2344C14.4778 14.4337 14.2938 14.5717 14.0945 14.5717C14.0485 14.5717 14.0178 14.5717 13.9718 14.5564L11.2118 13.8204C11.0278 13.7591 10.8285 13.8204 10.6905 13.9431C10.5525 14.0811 10.5065 14.2804 10.5525 14.4644C10.5985 14.6484 10.7519 14.7864 10.9359 14.8324L13.6958 15.5684C13.8185 15.5991 13.9565 15.6144 14.0791 15.6144C14.7538 15.6144 15.3364 15.1544 15.5204 14.5104C15.5358 14.4797 15.5358 14.4491 15.5358 14.4184L19.3691 13.3911C19.3997 13.3911 19.4151 13.3758 19.4304 13.3758C19.6451 13.3451 19.8597 13.4831 19.921 13.7131C19.9364 13.7438 19.9364 13.7898 19.9364 13.8358C19.9364 14.0351 19.7984 14.2191 19.5991 14.2651L12.6072 16.1357C12.3158 16.2124 12.0245 16.2584 11.7332 16.2584H6.39725C5.66126 16.2584 4.95594 16.0131 4.37328 15.5837L4.32728 15.5531V13.1458L4.37328 13.1151C4.95594 12.6858 5.66126 12.4404 6.38192 12.4404C6.38192 12.4404 6.38192 12.4404 6.39725 12.4404H9.29521C9.47921 12.4404 9.64787 12.4711 9.83187 12.5171L14.2018 13.6824C14.3858 13.7131 14.5238 13.8664 14.5391 14.0658ZM6.59658 4.23724V2.0446H19.829V4.23724H6.59658ZM3.2693 11.1371V17.5464H2.04265V11.1371H3.2693Z" fill="#0E7D7D" stroke="#0E7D7D" stroke-width="0.3"/>
<path d="M11.5955 7.58367H14.8462C15.1375 7.58367 15.3675 7.35367 15.3675 7.06234C15.3675 6.77101 15.1375 6.54102 14.8462 6.54102H11.5955C11.3042 6.54102 11.0742 6.77101 11.0742 7.06234C11.0742 7.35367 11.3042 7.58367 11.5955 7.58367Z" fill="#0E7D7D" stroke="#0E7D7D" stroke-width="0.3"/>
</svg>
