<svg width="24" height="24" viewBox="0 0 24 24" fill="none" xmlns="http://www.w3.org/2000/svg">
<path d="M8.66682 4.27774C8.61126 4.07404 8.35201 3.98145 8.09275 3.98145C7.85202 3.98145 7.59276 4.07404 7.53721 4.27774L6.24093 8.51841C6.24093 8.53693 6.22241 8.57397 6.22241 8.59248C6.22241 8.8147 6.53722 8.96285 6.77796 8.96285C6.9261 8.96285 7.03721 8.90729 7.07425 8.79618L7.33351 7.90731H8.87052L9.12977 8.79618C9.16681 8.92581 9.27792 8.96285 9.42607 8.96285C9.6668 8.96285 9.98161 8.8147 9.98161 8.59248C9.98161 8.57397 9.98161 8.55545 9.96309 8.51841L8.66682 4.27774ZM7.51869 7.1851L8.11127 5.11106L8.70385 7.1851H7.51869Z" fill="#787878"/>
<path d="M18.6849 8.94432H16.0183V6.35177C16.0183 2.66664 13.3516 1 10.685 1H5.33325C2.66662 1 0 2.4259 0 6.35177C0 10.185 2.66662 11.685 5.33325 11.685H7.99987C8.18506 11.685 8.35172 11.7035 8.51838 11.7406C8.18506 12.4443 7.99987 13.2961 7.99987 14.2776V16.9442C7.99987 19.8886 10.3887 22.2774 13.3331 22.2774C13.3331 20.796 14.5368 19.6108 15.9997 19.6108H18.6664C21.333 19.6108 23.9996 18.1108 23.9996 14.2776C24.0367 10.3517 21.3515 8.94432 18.6849 8.94432ZM8.01839 10.2776H5.33325C4.14808 10.2776 1.40739 9.88875 1.40739 6.35177C1.40739 4.98142 1.79627 3.9444 2.57403 3.29626C3.24069 2.74071 4.22216 2.4259 5.33325 2.4259H10.685C12.5739 2.4259 14.6109 3.46292 14.6109 6.35177V8.94432V9.01839C14.6109 9.48135 14.5368 9.9443 14.3701 10.3517C13.9442 11.5184 12.9813 12.4257 11.7776 12.7776C11.5183 12.185 11.1295 11.648 10.648 11.2406C10.2776 10.9258 9.8517 10.6665 9.37022 10.4998C8.9443 10.3517 8.49987 10.2776 8.01839 10.2776ZM18.6849 18.2034H16.0183C14.3146 18.2034 12.8702 19.2405 12.2405 20.7219C10.6109 20.2404 9.42578 18.7405 9.42578 16.9442V14.2776C9.42578 13.5183 9.5554 12.8887 9.79614 12.3702C10.3332 12.8517 10.6665 13.5739 10.6665 14.3516C13.1479 14.3516 15.2405 12.648 15.8331 10.3517H18.6664C19.7775 10.3517 20.7589 10.6665 21.4256 11.2221C22.2034 11.8702 22.5922 12.9072 22.5922 14.2776C22.6108 17.8331 19.8701 18.2034 18.6849 18.2034Z" fill="#787878"/>
<path d="M15.5739 14.3519H19.9812C20.3516 14.3519 20.6479 14.0556 20.6479 13.6852C20.6479 13.3148 20.3516 13.0186 19.9812 13.0186H15.5739C15.2035 13.0186 14.9072 13.3148 14.9072 13.6852C14.9257 14.0556 15.222 14.3519 15.5739 14.3519Z" fill="#787878"/>
<path d="M20.6475 15.7223C20.6475 15.352 20.3512 15.0557 19.9808 15.0557H12.7773C12.4069 15.0557 12.1106 15.352 12.1106 15.7223C12.1106 16.0927 12.4069 16.389 12.7773 16.389H19.9808C20.3512 16.389 20.6475 16.0927 20.6475 15.7223Z" fill="#787878"/>
</svg>
