<svg width="25" height="26" viewBox="0 0 25 26" fill="none" xmlns="http://www.w3.org/2000/svg">
<path d="M18.2551 15.5701C18.1845 15.3267 17.8942 15.2129 17.5961 15.2129C17.3058 15.2129 17.0155 15.3267 16.9449 15.5701L15.4307 20.6739C15.4229 20.7065 15.415 20.7388 15.415 20.755C15.415 21.0148 15.7837 21.1932 16.0584 21.1932C16.231 21.1932 16.3643 21.1365 16.4036 20.9823L16.7015 19.903H18.4983L18.7966 20.9823C18.8357 21.1365 18.969 21.1932 19.1416 21.1932C19.4163 21.1932 19.785 21.0067 19.785 20.755C19.785 20.7308 19.7771 20.7063 19.7693 20.6739L18.2551 15.5701ZM16.9135 19.0753L17.5959 16.5843L18.2787 19.0753H16.9135Z" fill="#3F88C5"/>
<path d="M22.3064 10.5481H14.8012V7.23273L17.2403 5.43086C17.4328 5.28863 17.547 5.05921 17.547 4.81459C17.547 4.56978 17.4328 4.34035 17.2403 4.19812L14.7718 2.37455C14.579 1.03271 13.4577 0 12.1077 0H2.69375C1.20831 0 0 1.24971 0 2.78605V12.5227C0 14.0589 1.20831 15.3086 2.69375 15.3086H10.1988V18.6239L7.75967 20.4258C7.56721 20.568 7.45296 20.7977 7.45296 21.0423C7.45296 21.2869 7.56721 21.5165 7.75967 21.6586L10.2282 23.4821C10.421 24.824 11.5423 25.8567 12.8923 25.8567H22.3064C23.7917 25.8567 25 24.6068 25 23.0706V13.3341C25 11.7978 23.7917 10.5481 22.3064 10.5481ZM2.69375 13.7936C2.01607 13.7936 1.46484 13.2235 1.46484 12.5225V2.78586C1.46484 2.08515 2.01607 1.51504 2.69375 1.51504H12.1077C12.7851 1.51504 13.3364 2.08515 13.3364 2.78586C13.3364 3.03067 13.4506 3.26029 13.6431 3.40233L15.5544 4.81439L13.6431 6.22646C13.4506 6.36869 13.3364 6.59831 13.3364 6.84293V10.5481H12.8923C11.4071 10.5481 10.1988 11.7978 10.1988 13.3339V13.7936H2.69375ZM23.5352 23.0706C23.5352 23.7715 22.9839 24.3416 22.3064 24.3416H12.8923C12.2149 24.3416 11.6636 23.7715 11.6636 23.0706C11.6636 22.826 11.5494 22.5964 11.3569 22.4543L9.44557 21.0423L11.3569 19.6302C11.5494 19.488 11.6636 19.2584 11.6636 19.0137V13.3341C11.6636 12.6332 12.2149 12.0631 12.8923 12.0631H14.0669H14.0688H14.0707H22.3064C22.9839 12.0631 23.5352 12.6332 23.5352 13.3341V23.0706Z" fill="#3F88C5"/>
<path d="M9.65126 6.98318C9.87919 6.98318 10.0642 6.79182 10.0642 6.55589C10.0642 6.31995 9.87919 6.1286 9.65126 6.1286H7.81391V5.09135C7.81391 4.85542 7.6289 4.66406 7.40078 4.66406C7.17285 4.66406 6.98784 4.85542 6.98784 5.09135V6.1286H5.15049C4.92256 6.1286 4.73755 6.31995 4.73755 6.55589C4.73755 6.79182 4.92256 6.98318 5.15049 6.98318H5.71983C5.81081 7.8853 6.18694 8.70062 6.75266 9.33208C6.28365 9.62246 5.73586 9.79014 5.15049 9.79014C4.92256 9.79014 4.73755 9.9813 4.73755 10.2172C4.73755 10.4532 4.92256 10.6445 5.15049 10.6445C5.98629 10.6445 6.76163 10.3743 7.40078 9.91462C8.04012 10.3743 8.81546 10.6445 9.65126 10.6445C9.87919 10.6445 10.0642 10.4532 10.0642 10.2172C10.0642 9.9813 9.87919 9.79014 9.65126 9.79014C9.06589 9.79014 8.5181 9.62286 8.04909 9.33208C8.61481 8.70062 8.99094 7.8853 9.08192 6.98318H9.65126ZM7.40078 8.79827C6.94893 8.31318 6.64204 7.68329 6.5522 6.98318H8.24955C8.15971 7.68329 7.85282 8.31318 7.40078 8.79827Z" fill="#3F88C5"/>
</svg>
