<svg width="24" height="24" viewBox="0 0 24 24" fill="none" xmlns="http://www.w3.org/2000/svg">
<path d="M9.11189 21.6923H5.58741C5.25175 21.6923 3.57343 21.6294 3.57343 20.4126V6.20979H6.76224C7.2028 6.20979 7.53846 5.85315 7.53846 5.43357V1.55245H16.7692C17.8811 1.55245 18.7832 2.45455 18.7832 3.56643V12.2098C18.7832 12.6503 19.1399 12.986 19.5594 12.986C20 12.986 20.3357 12.6294 20.3357 12.2098V3.56643C20.3357 1.59441 18.7413 0 16.7692 0H6.74126C6.51049 0 6.3007 0.104895 6.15385 0.272727L2.18881 4.90909C2.06294 5.05594 2 5.22378 2 5.41259V20.4126C2 22.1119 3.42657 23.2448 5.56643 23.2448H9.09091C9.53147 23.2448 9.86713 22.8881 9.86713 22.4685C9.88811 22.049 9.53147 21.6923 9.11189 21.6923ZM4.45455 4.65734L5.96503 2.8951V4.65734H4.45455Z" fill="#787878"/>
<path d="M21.1746 19.7832C21.1326 19.7412 21.0906 19.7202 21.0487 19.6992L18.8459 18.6293C19.1816 17.8531 19.3494 17.0349 19.3494 16.1957C19.3494 12.8601 16.6221 10.1328 13.2864 10.1328C9.95078 10.1328 7.22351 12.8601 7.22351 16.1957C7.22351 19.5314 9.95078 22.2587 13.2864 22.2587C14.4193 22.2587 15.5522 21.944 16.4962 21.3356L18.1326 23.3916C18.1746 23.4335 18.2165 23.4755 18.2585 23.5174C18.6781 23.8321 19.1816 23.9999 19.6851 23.9999C19.7899 23.9999 19.8948 23.9999 19.9997 23.979C20.6291 23.895 21.1746 23.5804 21.5732 23.0769C22.3913 22.0699 22.2025 20.5804 21.1746 19.7832ZM20.3564 22.1328C20.2305 22.3006 20.0417 22.4055 19.8319 22.4475C19.6431 22.4685 19.4543 22.4265 19.3074 22.3426L17.2725 19.7832L17.2515 19.7622C17.2515 19.7412 17.2305 19.7412 17.2305 19.7202L17.2095 19.6992C17.1885 19.6783 17.1885 19.6783 17.1676 19.6783L17.1466 19.6573C17.1256 19.6573 17.1256 19.6363 17.1046 19.6363C17.1046 19.6363 17.0837 19.6363 17.0837 19.6153C17.0627 19.6153 17.0627 19.5943 17.0417 19.5943C17.0417 19.5943 17.0207 19.5944 17.0207 19.5734C16.9997 19.5734 16.9997 19.5524 16.9788 19.5524H16.9578C16.9368 19.5524 16.9158 19.5314 16.9158 19.5314H16.8948C16.8739 19.5314 16.8529 19.5314 16.8319 19.5104H16.8109C16.7899 19.5104 16.769 19.5104 16.748 19.5104C16.748 19.5104 16.748 19.5104 16.727 19.5104C16.706 19.5104 16.685 19.5104 16.6641 19.5104C16.6641 19.5104 16.6641 19.5104 16.6431 19.5104C16.6221 19.5104 16.6011 19.5104 16.5802 19.5104C16.5802 19.5104 16.5802 19.5104 16.5592 19.5104C16.5382 19.5104 16.5172 19.5104 16.4962 19.5104C16.4753 19.5104 16.4543 19.5104 16.4333 19.5314C16.4123 19.5314 16.3913 19.5524 16.3704 19.5524C16.3494 19.5524 16.3284 19.5734 16.3074 19.5734C16.2864 19.5944 16.2655 19.5943 16.2445 19.6153C16.2445 19.6153 16.2445 19.6153 16.2235 19.6153C16.2025 19.6153 16.2025 19.6363 16.1816 19.6573C15.3843 20.3286 14.3564 20.6853 13.3074 20.6853C10.8319 20.6853 8.79694 18.6713 8.79694 16.1748C8.79694 13.6992 10.8109 11.6643 13.3074 11.6643C15.783 11.6643 17.8179 13.6783 17.8179 16.1748C17.8179 17.0139 17.5871 17.8321 17.1466 18.5454C17.1466 18.5664 17.1256 18.5664 17.1256 18.5874L17.1046 18.6083V18.6293C17.1046 18.6503 17.0837 18.6713 17.0837 18.6713C17.0837 18.6923 17.0837 18.6923 17.0627 18.7132C17.0627 18.7342 17.0627 18.7342 17.0627 18.7552C17.0627 18.7762 17.0627 18.7971 17.0417 18.8181C17.0417 18.8181 17.0417 18.8181 17.0417 18.8391C17.0417 18.8601 17.0417 18.8811 17.0417 18.923C17.0207 19.2377 17.1885 19.5314 17.4823 19.6783L20.3144 21.0629C20.5662 21.3356 20.6291 21.8181 20.3564 22.1328Z" fill="#787878"/>
<path d="M15.0492 14.3708L12.7415 16.5316L11.7974 15.6086C11.5037 15.3148 11.0002 15.3148 10.7065 15.6295C10.4128 15.9442 10.4128 16.4267 10.7275 16.7414L12.217 18.168C12.3638 18.3148 12.5736 18.3778 12.7624 18.3778C12.9512 18.3778 13.1401 18.3148 13.3079 18.168L16.1401 15.4827C16.4547 15.189 16.4757 14.6855 16.161 14.3708C15.8464 14.0771 15.3638 14.0561 15.0492 14.3708Z" fill="#787878"/>
</svg>
