<svg width="24" height="24" viewBox="0 0 24 24" fill="none" xmlns="http://www.w3.org/2000/svg">
<path d="M1.42659 21.3728L1.42658 21.3728C-0.408859 19.5374 -0.408859 16.5621 1.42658 14.7266L6.80086 9.35236C8.63629 7.51692 11.6116 7.51692 13.447 9.35236C13.7985 9.70383 13.7985 10.2737 13.447 10.6252C13.0956 10.9767 12.5257 10.9767 12.1742 10.6252C11.0418 9.49271 9.20614 9.49271 8.0737 10.6252L2.69937 15.9995C1.56693 17.132 1.56693 18.9676 2.69959 20.1003C3.83204 21.2334 5.6675 21.2334 6.80086 20.1L9.48756 17.4133C9.83903 17.0619 10.409 17.0618 10.7604 17.4133C11.1119 17.7648 11.1119 18.3347 10.7604 18.6861L8.07374 21.3728C6.23732 23.2092 3.26179 23.2092 1.42659 21.3728Z" fill="#0E7D7D" stroke="white" stroke-width="0.1"/>
<path d="M14.7261 1.42658C16.5616 -0.408859 19.5379 -0.408859 21.3733 1.42658C23.2087 3.26201 23.2087 6.23737 21.3733 8.07281L15.4622 13.9839C13.6268 15.8193 10.6515 15.8193 8.81605 13.9839C8.46457 13.6324 8.46457 13.0625 8.81605 12.711C9.16752 12.3596 9.73741 12.3596 10.0889 12.711C11.2213 13.8435 13.0569 13.8435 14.1894 12.711L20.1005 6.79992C21.2329 5.66748 21.2329 3.83185 20.1005 2.69941C18.968 1.56693 17.1314 1.56693 15.999 2.69941L12.7755 5.92286C12.4241 6.27434 11.8542 6.27434 11.5027 5.92286C11.1512 5.57139 11.1512 5.0015 11.5027 4.65002L14.7261 1.42658Z" fill="#0E7D7D" stroke="white" stroke-width="0.1"/>
</svg>
