<svg width="25" height="25" viewBox="0 0 25 25" fill="none" xmlns="http://www.w3.org/2000/svg">
<circle cx="12.1557" cy="12.1557" r="12.1557" fill="#C1272D"/>
<path d="M12.8545 13.5898H11.4951L11.0889 5.63672H13.2529L12.8545 13.5898ZM10.9951 16.082C10.9951 15.6966 11.0967 15.4049 11.2998 15.207C11.5029 15.0039 11.792 14.9023 12.167 14.9023C12.5368 14.9023 12.8206 15.0065 13.0186 15.2148C13.2165 15.4232 13.3154 15.7122 13.3154 16.082C13.3154 16.4518 13.2139 16.7461 13.0107 16.9648C12.8128 17.1784 12.5316 17.2852 12.167 17.2852C11.7972 17.2852 11.5081 17.181 11.2998 16.9727C11.0967 16.7643 10.9951 16.4674 10.9951 16.082Z" fill="white"/>
</svg>
