<svg width="24" height="21" viewBox="0 0 24 21" fill="none" xmlns="http://www.w3.org/2000/svg">
<path d="M8.55316 3.23481C8.49833 3.03377 8.24245 2.94238 7.98658 2.94238C7.74898 2.94238 7.49311 3.03377 7.43828 3.23481L6.1589 7.42019C6.1589 7.43847 6.14062 7.47502 6.14062 7.4933C6.14062 7.71262 6.45133 7.85883 6.68893 7.85883C6.83514 7.85883 6.9448 7.804 6.98136 7.69434L7.23723 6.81706H8.7542L9.01008 7.69434C9.04663 7.82228 9.15629 7.85883 9.30251 7.85883C9.5401 7.85883 9.85081 7.71262 9.85081 7.4933C9.85081 7.47502 9.85081 7.45674 9.83253 7.42019L8.55316 3.23481ZM7.42 6.10426L8.00485 4.05727L8.58971 6.10426H7.42Z" fill="#3F88C5"/>
<path d="M18.4413 7.84073H15.8094V5.28198C15.8094 1.64491 13.1775 0 10.5457 0H5.26371C2.63185 0 0 1.40731 0 5.28198C0 9.06527 2.63185 10.5457 5.26371 10.5457H7.89556C8.07833 10.5457 8.24282 10.564 8.40731 10.6005C8.07833 11.295 7.89556 12.1358 7.89556 13.1044V15.7363C7.89556 18.6423 10.2533 21 13.1593 21C13.1593 19.5379 14.3473 18.3681 15.7911 18.3681H18.423C21.0548 18.3681 23.6867 16.8877 23.6867 13.1044C23.7232 9.22976 21.0731 7.84073 18.4413 7.84073ZM7.91384 9.15666H5.26371C4.09399 9.15666 1.38903 8.77285 1.38903 5.28198C1.38903 3.9295 1.77285 2.90601 2.54047 2.26632C3.19843 1.71802 4.1671 1.40731 5.26371 1.40731H10.5457C12.4099 1.40731 14.4204 2.43081 14.4204 5.28198V7.84073V7.91384C14.4204 8.37076 14.3473 8.82768 14.1828 9.22976C13.7624 10.3812 12.812 11.2768 11.624 11.624C11.3681 11.0392 10.9843 10.5091 10.5091 10.107C10.1436 9.79634 9.72324 9.54047 9.24804 9.37598C8.82768 9.22976 8.38903 9.15666 7.91384 9.15666ZM18.4413 16.9791H15.8094C14.1279 16.9791 12.7023 18.0026 12.0809 19.4648C10.4726 18.9896 9.30287 17.5091 9.30287 15.7363V13.1044C9.30287 12.3551 9.43081 11.7337 9.66841 11.2219C10.1984 11.6971 10.5274 12.4099 10.5274 13.1775C12.9765 13.1775 15.0418 11.4961 15.6266 9.22976H18.423C19.5196 9.22976 20.4882 9.54047 21.1462 10.0888C21.9138 10.7285 22.2976 11.752 22.2976 13.1044C22.3159 16.6136 19.611 16.9791 18.4413 16.9791Z" fill="#3F88C5"/>
<path d="M15.3709 13.1773H19.7207C20.0863 13.1773 20.3787 12.8848 20.3787 12.5193C20.3787 12.1538 20.0863 11.8613 19.7207 11.8613H15.3709C15.0053 11.8613 14.7129 12.1538 14.7129 12.5193C14.7312 12.8848 15.0236 13.1773 15.3709 13.1773Z" fill="#3F88C5"/>
<path d="M20.3787 14.53C20.3787 14.1645 20.0863 13.8721 19.7207 13.8721H12.6111C12.2456 13.8721 11.9531 14.1645 11.9531 14.53C11.9531 14.8956 12.2456 15.188 12.6111 15.188H19.7207C20.0863 15.188 20.3787 14.8956 20.3787 14.53Z" fill="#3F88C5"/>
</svg>
