<svg width="18" height="21" viewBox="0 0 18 21" fill="none" xmlns="http://www.w3.org/2000/svg">
<path d="M6.36263 18.9808H3.37934C3.09522 18.9808 1.6746 18.9257 1.6746 17.861V5.43357H4.37377C4.74668 5.43357 5.03081 5.1215 5.03081 4.75437V1.35839H12.8442C13.7854 1.35839 14.5489 2.14773 14.5489 3.12063V10.6836C14.5489 11.0691 14.8508 11.3628 15.206 11.3628C15.5789 11.3628 15.863 11.0507 15.863 10.6836V3.12063C15.863 1.39511 14.5134 0 12.8442 0H4.35601C4.16068 0 3.9831 0.0917832 3.8588 0.238636L0.502593 4.29545C0.396046 4.42395 0.342773 4.5708 0.342773 4.73601V17.861C0.342773 19.3479 1.5503 20.3392 3.36158 20.3392H6.34488C6.71779 20.3392 7.00191 20.0271 7.00191 19.66C7.01967 19.2928 6.71779 18.9808 6.36263 18.9808ZM2.42042 4.07517L3.69898 2.53322V4.07517H2.42042Z" fill="#3F88C5"/>
<path d="M16.5735 17.3103C16.538 17.2736 16.5025 17.2552 16.467 17.2368L14.6024 16.3007C14.8865 15.6215 15.0286 14.9055 15.0286 14.1713C15.0286 11.2526 12.7201 8.86621 9.89662 8.86621C7.07315 8.86621 4.76465 11.2526 4.76465 14.1713C4.76465 17.09 7.07315 19.4763 9.89662 19.4763C10.8555 19.4763 11.8145 19.201 12.6136 18.6687L13.9987 20.4676C14.0342 20.5043 14.0697 20.541 14.1052 20.5777C14.4604 20.8531 14.8865 21 15.3127 21C15.4015 21 15.4903 21 15.5791 20.9816C16.1118 20.9082 16.5735 20.6328 16.9109 20.1923C17.6035 19.3111 17.4436 18.0078 16.5735 17.3103ZM15.881 19.3662C15.7744 19.5131 15.6146 19.6048 15.437 19.6416C15.2772 19.6599 15.1174 19.6232 14.9931 19.5498L13.2706 17.3103L13.2528 17.2919C13.2528 17.2736 13.2351 17.2736 13.2351 17.2552L13.2173 17.2368C13.1996 17.2185 13.1996 17.2185 13.1818 17.2185L13.164 17.2001C13.1463 17.2001 13.1463 17.1818 13.1285 17.1818C13.1285 17.1818 13.1108 17.1818 13.1108 17.1634C13.093 17.1634 13.093 17.1451 13.0753 17.1451C13.0753 17.1451 13.0575 17.1451 13.0575 17.1267C13.0397 17.1267 13.0397 17.1083 13.022 17.1083H13.0042C12.9865 17.1083 12.9687 17.09 12.9687 17.09H12.9509C12.9332 17.09 12.9154 17.09 12.8977 17.0716H12.8799C12.8622 17.0716 12.8444 17.0716 12.8266 17.0716C12.8266 17.0716 12.8266 17.0716 12.8089 17.0716C12.7911 17.0716 12.7734 17.0716 12.7556 17.0716C12.7556 17.0716 12.7556 17.0716 12.7379 17.0716C12.7201 17.0716 12.7023 17.0716 12.6846 17.0716C12.6846 17.0716 12.6846 17.0716 12.6668 17.0716C12.6491 17.0716 12.6313 17.0716 12.6136 17.0716C12.5958 17.0716 12.578 17.0716 12.5603 17.09C12.5425 17.09 12.5248 17.1083 12.507 17.1083C12.4892 17.1083 12.4715 17.1267 12.4537 17.1267C12.436 17.1451 12.4182 17.1451 12.4005 17.1634C12.4005 17.1634 12.4005 17.1634 12.3827 17.1634C12.3649 17.1634 12.3649 17.1818 12.3472 17.2001C11.6724 17.7875 10.8023 18.0996 9.91438 18.0996C7.81897 18.0996 6.09648 16.3374 6.09648 14.1529C6.09648 11.9868 7.80121 10.2062 9.91438 10.2062C12.0098 10.2062 13.7323 11.9685 13.7323 14.1529C13.7323 14.8872 13.537 15.6031 13.164 16.2272C13.164 16.2456 13.1463 16.2456 13.1463 16.2639L13.1285 16.2823V16.3007C13.1285 16.319 13.1108 16.3374 13.1108 16.3374C13.1108 16.3557 13.1108 16.3557 13.093 16.3741C13.093 16.3924 13.093 16.3924 13.093 16.4108C13.093 16.4291 13.093 16.4475 13.0753 16.4659C13.0753 16.4659 13.0753 16.4659 13.0753 16.4842C13.0753 16.5026 13.0753 16.5209 13.0753 16.5576C13.0575 16.833 13.1996 17.09 13.4482 17.2185L15.8455 18.43C16.0585 18.6687 16.1118 19.0909 15.881 19.3662Z" fill="#3F88C5"/>
<path d="M11.3885 12.5747L9.43511 14.4654L8.63601 13.6577C8.38741 13.4007 7.96122 13.4007 7.71261 13.6761C7.46401 13.9514 7.46401 14.3736 7.73037 14.649L8.99117 15.8972C9.11547 16.0257 9.29305 16.0808 9.45287 16.0808C9.61269 16.0808 9.77251 16.0257 9.91457 15.8972L12.3119 13.5476C12.5782 13.2906 12.596 12.85 12.3296 12.5747C12.0633 12.3177 11.6548 12.2993 11.3885 12.5747Z" fill="#3F88C5"/>
</svg>
