<svg width="21" height="25" viewBox="0 0 21 25" fill="none" xmlns="http://www.w3.org/2000/svg">
<path d="M7.1665 22.5962H3.61496C3.27672 22.5962 1.58551 22.5306 1.58551 21.2631V6.46853H4.79881C5.24275 6.46853 5.58099 6.09703 5.58099 5.65997V1.61713H14.8826C16.0031 1.61713 16.9121 2.55682 16.9121 3.71503V12.7185C16.9121 13.1774 17.2715 13.5271 17.6943 13.5271C18.1382 13.5271 18.4765 13.1556 18.4765 12.7185V3.71503C18.4765 1.66084 16.8698 0 14.8826 0H4.77767C4.54513 0 4.33372 0.109266 4.18574 0.284091L0.190261 5.11364C0.0634203 5.26661 0 5.44143 0 5.63811V21.2631C0 23.0332 1.43753 24.2133 3.59382 24.2133H7.14536C7.5893 24.2133 7.92754 23.8418 7.92754 23.4047C7.94868 22.9677 7.5893 22.5962 7.1665 22.5962ZM2.47339 4.8514L3.99548 3.01573V4.8514H2.47339Z" fill="#0E7D7D"/>
<path d="M19.3218 20.6076C19.2796 20.5639 19.2373 20.5421 19.195 20.5202L16.9753 19.4057C17.3135 18.5971 17.4827 17.7449 17.4827 16.8707C17.4827 13.3961 14.7344 10.5552 11.3732 10.5552C8.01189 10.5552 5.26367 13.3961 5.26367 16.8707C5.26367 20.3454 8.01189 23.1863 11.3732 23.1863C12.5147 23.1863 13.6563 22.8585 14.6076 22.2248L16.2565 24.3664C16.2988 24.4101 16.3411 24.4538 16.3834 24.4975C16.8062 24.8253 17.3135 25.0001 17.8209 25.0001C17.9266 25.0001 18.0323 25.0001 18.138 24.9783C18.7722 24.8908 19.3218 24.563 19.7235 24.0386C20.548 22.9896 20.3577 21.438 19.3218 20.6076ZM18.4974 23.0552C18.3705 23.23 18.1803 23.3393 17.9689 23.383C17.7786 23.4048 17.5884 23.3611 17.4404 23.2737L15.3898 20.6076L15.3686 20.5858C15.3686 20.5639 15.3475 20.5639 15.3475 20.5421L15.3264 20.5202C15.3052 20.4984 15.3052 20.4984 15.2841 20.4984L15.2629 20.4765C15.2418 20.4765 15.2418 20.4546 15.2207 20.4546C15.2207 20.4546 15.1995 20.4546 15.1995 20.4328C15.1784 20.4328 15.1784 20.4109 15.1572 20.4109C15.1572 20.4109 15.1361 20.4109 15.1361 20.3891C15.115 20.3891 15.115 20.3672 15.0938 20.3672H15.0727C15.0515 20.3672 15.0304 20.3454 15.0304 20.3454H15.0093C14.9881 20.3454 14.967 20.3454 14.9458 20.3235H14.9247C14.9036 20.3235 14.8824 20.3235 14.8613 20.3235C14.8613 20.3235 14.8613 20.3235 14.8401 20.3235C14.819 20.3235 14.7979 20.3235 14.7767 20.3235C14.7767 20.3235 14.7767 20.3235 14.7556 20.3235C14.7344 20.3235 14.7133 20.3235 14.6922 20.3235C14.6922 20.3235 14.6922 20.3235 14.671 20.3235C14.6499 20.3235 14.6287 20.3235 14.6076 20.3235C14.5865 20.3235 14.5653 20.3235 14.5442 20.3454C14.523 20.3454 14.5019 20.3672 14.4808 20.3672C14.4596 20.3672 14.4385 20.3891 14.4173 20.3891C14.3962 20.4109 14.3751 20.4109 14.3539 20.4328C14.3539 20.4328 14.3539 20.4328 14.3328 20.4328C14.3116 20.4328 14.3116 20.4546 14.2905 20.4765C13.4872 21.1758 12.4513 21.5473 11.3943 21.5473C8.89977 21.5473 6.84918 19.4494 6.84918 16.8489C6.84918 14.2702 8.87863 12.1505 11.3943 12.1505C13.8888 12.1505 15.9394 14.2484 15.9394 16.8489C15.9394 17.723 15.7069 18.5753 15.2629 19.3183C15.2629 19.3401 15.2418 19.3401 15.2418 19.362L15.2207 19.3838V19.4057C15.2207 19.4276 15.1995 19.4494 15.1995 19.4494C15.1995 19.4713 15.1995 19.4713 15.1784 19.4931C15.1784 19.515 15.1784 19.515 15.1784 19.5368C15.1784 19.5587 15.1784 19.5805 15.1572 19.6024C15.1572 19.6024 15.1572 19.6024 15.1572 19.6242C15.1572 19.6461 15.1572 19.6679 15.1572 19.7116C15.1361 20.0394 15.3052 20.3454 15.6012 20.4984L18.4551 21.9407C18.7088 22.2248 18.7722 22.7274 18.4974 23.0552Z" fill="#0E7D7D"/>
<path d="M13.1491 14.9694L10.8237 17.2203L9.87239 16.2587C9.57643 15.9528 9.06907 15.9528 8.77311 16.2806C8.47715 16.6084 8.47715 17.111 8.79425 17.4388L10.2952 18.9248C10.4432 19.0778 10.6546 19.1434 10.8448 19.1434C11.0351 19.1434 11.2254 19.0778 11.3945 18.9248L14.2484 16.1276C14.5655 15.8217 14.5866 15.2972 14.2695 14.9694C13.9524 14.6635 13.4662 14.6416 13.1491 14.9694Z" fill="#0E7D7D"/>
</svg>
