<svg width="24" height="25" viewBox="0 0 24 25" fill="none" xmlns="http://www.w3.org/2000/svg">
<rect x="0.732422" y="0.5" width="22.4167" height="23.3385" rx="3.5" fill="white"/>
<path d="M17.6491 10.3347C17.6491 10.0013 17.3652 9.73105 17.0149 9.73105C16.8912 9.73105 16.766 9.76708 16.6631 9.8324C16.001 10.2524 15.2402 10.4619 14.4778 10.4621C13.7155 10.4619 12.9547 10.2524 12.2926 9.8324C12.2925 9.83233 12.2923 9.83225 12.2922 9.83215C11.418 9.2776 10.4102 8.99986 9.40374 9C8.39716 8.99989 7.38914 9.27767 6.51485 9.8324L6.51489 9.83247C6.34462 9.94073 6.23242 10.1251 6.23242 10.3346C6.23242 10.668 6.51641 10.9382 6.86667 10.9382C6.99034 10.9382 7.1156 10.9021 7.21853 10.8369C7.88058 10.4169 8.64142 10.2073 9.4037 10.2072C10.166 10.2073 10.9269 10.4169 11.5889 10.8369C12.4632 11.3916 13.4712 11.6694 14.4778 11.6693C15.4843 11.6694 16.4924 11.3915 17.3666 10.8369L17.3666 10.8368C17.5369 10.7286 17.6491 10.5442 17.6491 10.3347Z" fill="#0E7D7D"/>
<path d="M17.6491 14.0041C17.6491 13.6707 17.3652 13.4005 17.0149 13.4005C16.8912 13.4005 16.766 13.4365 16.6631 13.5018C16.001 13.9218 15.2402 14.1314 14.4778 14.1315C13.7155 14.1314 12.9547 13.9218 12.2926 13.5018C12.2925 13.5018 12.2923 13.5017 12.2922 13.5016C11.418 12.947 10.4102 12.6693 9.40374 12.6694C8.39716 12.6693 7.38914 12.9471 6.51489 13.5018L6.51493 13.5019C6.34466 13.6102 6.23242 13.7946 6.23242 14.0041C6.23242 14.3374 6.51641 14.6077 6.86667 14.6077C6.99034 14.6077 7.11556 14.5716 7.21853 14.5063C7.88062 14.0864 8.64142 13.8768 9.4037 13.8766C10.166 13.8767 10.9269 14.0863 11.5889 14.5063C12.4632 15.061 13.4712 15.3388 14.4778 15.3387C15.4843 15.3388 16.4924 15.061 17.3666 14.5063L17.3666 14.5063C17.5369 14.398 17.6491 14.2136 17.6491 14.0041Z" fill="#0E7D7D"/>
<rect x="0.732422" y="0.5" width="22.4167" height="23.3385" rx="3.5" stroke="#0E7D7D"/>
</svg>
