<svg width="17" height="17" viewBox="0 0 17 17" fill="none" xmlns="http://www.w3.org/2000/svg">
<path d="M10.001 16.6676H1.66764C1.22104 16.6832 0.788035 16.5126 0.472048 16.1966C0.15606 15.8806 -0.0145461 15.4476 0.000973529 15.001V6.66764C-0.0145461 6.22104 0.15606 5.78804 0.472048 5.47205C0.788035 5.15606 1.22104 4.98545 1.66764 5.00097H5.00097V1.66764C4.98545 1.22104 5.15606 0.788035 5.47205 0.472048C5.78804 0.15606 6.22104 -0.0145461 6.66764 0.000973529H15.001C15.4476 -0.0145461 15.8806 0.15606 16.1966 0.472048C16.5126 0.788035 16.6832 1.22104 16.6676 1.66764V10.001C16.6829 10.4475 16.5122 10.8804 16.1963 11.1963C15.8804 11.5122 15.4475 11.6829 15.001 11.6676H11.6676V15.001C11.6829 15.4475 11.5122 15.8804 11.1963 16.1963C10.8804 16.5122 10.4475 16.6829 10.001 16.6676ZM1.66764 6.66764V15.001H10.001V11.6676H6.66764C6.22111 11.6829 5.78825 11.5122 5.47232 11.1963C5.15639 10.8804 4.9857 10.4475 5.00097 10.001V6.66764H1.66764ZM6.66764 1.66764V10.001H15.001V1.66764H6.66764Z" fill="#0E7D7D"/>
</svg>
