<svg width="24" height="30" viewBox="0 0 24 30" fill="none" xmlns="http://www.w3.org/2000/svg">
<path d="M1.25 30H22.0833C22.7737 30 23.3333 29.4404 23.3333 28.75V8.8511C23.3333 8.51958 23.2016 8.20164 22.9672 7.96722L15.3661 0.366117C15.1317 0.131696 14.8138 0 14.4822 0H1.25C0.559644 0 0 0.559645 0 1.25V28.75C0 29.4404 0.559643 30 1.25 30Z" fill="white"/>
<path fill-rule="evenodd" clip-rule="evenodd" d="M1.25 29.3878H22.0833C22.4356 29.3878 22.7211 29.1022 22.7211 28.75V8.8511C22.7211 8.68196 22.6539 8.51974 22.5343 8.40014L14.9332 0.799039C14.8136 0.679437 14.6514 0.612245 14.4822 0.612245H1.25C0.897778 0.612245 0.612245 0.897778 0.612245 1.25V28.75C0.612245 29.1022 0.897778 29.3878 1.25 29.3878ZM15.3661 0.366117L22.9672 7.96722C23.2016 8.20164 23.3333 8.51958 23.3333 8.8511V28.75C23.3333 29.4404 22.7737 30 22.0833 30H1.25C0.559644 30 0 29.4404 0 28.75V1.25C0 0.559645 0.559644 0 1.25 0H14.4822C14.8138 0 15.1317 0.131696 15.3661 0.366117Z" fill="#E9E9E9"/>
<path opacity="0.2" d="M17.9167 8.74967C17.2501 8.74967 16.389 8.4719 16.0417 8.33301L18.7501 7.70801L22.9167 8.33301C23.0556 8.74967 23.2917 9.49967 23.1251 9.16634C22.9167 8.74967 18.7501 8.74967 17.9167 8.74967Z" fill="black"/>
<path d="M16.25 8.33333H23.3333L15 0V7.08333C15 7.77369 15.5596 8.33333 16.25 8.33333Z" fill="#27AE60"/>
<path d="M22.2916 8.33301C22.9582 8.33301 23.2638 9.30523 23.3332 9.79134V8.33301H22.2916Z" fill="#8BFFBC"/>
<path d="M4.89804 25.0998C4.89804 24.9057 4.9478 24.7567 5.04732 24.653C5.14684 24.5492 5.29088 24.4974 5.47945 24.4974C5.67063 24.4974 5.81598 24.5519 5.9155 24.6609C6.01502 24.7673 6.06478 24.9136 6.06478 25.0998C6.06478 25.2887 6.01371 25.439 5.91157 25.5507C5.81205 25.6598 5.66801 25.7143 5.47945 25.7143C5.29088 25.7143 5.14684 25.6598 5.04732 25.5507C4.9478 25.4417 4.89804 25.2914 4.89804 25.0998Z" fill="#27AE60"/>
<path d="M8.86968 24.9203C9.09491 24.9203 9.32014 24.8844 9.54537 24.8126V25.5188C9.44323 25.564 9.31097 25.6013 9.1486 25.6305C8.98884 25.6624 8.82254 25.6784 8.64969 25.6784C7.77496 25.6784 7.33759 25.2102 7.33759 24.2739V21.8959H6.7444V21.4809L7.3808 21.1378L7.69508 20.2041H8.2647V21.1856H9.50215V21.8959H8.2647V24.258C8.2647 24.4841 8.3197 24.6516 8.42969 24.7607C8.54231 24.8671 8.68897 24.9203 8.86968 24.9203Z" fill="#27AE60"/>
<path d="M11.3839 23.3442L9.92642 21.1856H10.9792L11.9692 22.7298L12.967 21.1856H14.012L12.5506 23.3442L14.0866 25.5986H13.0417L11.9692 23.9467L10.9007 25.5986H9.85571L11.3839 23.3442Z" fill="#27AE60"/>
<path d="M16.4672 24.9203C16.6925 24.9203 16.9177 24.8844 17.1429 24.8126V25.5188C17.0408 25.564 16.9085 25.6013 16.7462 25.6305C16.5864 25.6624 16.4201 25.6784 16.2473 25.6784C15.3725 25.6784 14.9352 25.2102 14.9352 24.2739V21.8959H14.342V21.4809L14.9784 21.1378L15.2927 20.2041H15.8623V21.1856H17.0997V21.8959H15.8623V24.258C15.8623 24.4841 15.9173 24.6516 16.0273 24.7607C16.1399 24.8671 16.2865 24.9203 16.4672 24.9203Z" fill="#27AE60"/>
</svg>
