<svg width="16" height="16" viewBox="0 0 16 16" fill="none" xmlns="http://www.w3.org/2000/svg">
<path d="M0.881443 15.9956C0.635163 15.9952 0.400386 15.8914 0.234393 15.7094C0.06534 15.529 -0.0186633 15.2849 0.00349232 15.0387L0.21859 12.6735L10.1552 2.74033L13.2605 5.84477L3.32653 15.777L0.961336 15.9921C0.93412 15.9948 0.906903 15.9956 0.881443 15.9956ZM13.8804 5.22406L10.7759 2.11962L12.6381 0.257491C12.8028 0.0926322 13.0262 0 13.2592 0C13.4922 0 13.7157 0.0926322 13.8804 0.257491L15.7425 2.11962C15.9074 2.2843 16 2.50776 16 2.74077C16 2.97379 15.9074 3.19725 15.7425 3.36192L13.8813 5.22318L13.8804 5.22406Z" fill="#0E7D7D"/>
</svg>
