<svg width="12" height="12" viewBox="0 0 12 12" fill="none" xmlns="http://www.w3.org/2000/svg">
<path d="M1.36976 11.9969C1.1966 11.9966 1.03152 11.9236 0.914808 11.7957C0.795942 11.6688 0.736877 11.4972 0.752456 11.3241L0.903696 9.66103L7.8904 2.6768L10.0738 4.8596L3.08897 11.8432L1.42594 11.9945C1.4068 11.9963 1.38767 11.9969 1.36976 11.9969ZM10.5096 4.42316L8.32683 2.24036L9.63615 0.931048C9.75193 0.815132 9.90905 0.75 10.0729 0.75C10.2367 0.75 10.3939 0.815132 10.5096 0.931048L11.819 2.24036C11.9349 2.35615 12 2.51327 12 2.67711C12 2.84095 11.9349 2.99806 11.819 3.11385L10.5103 4.42255L10.5096 4.42316Z" fill="#9E9E9E"/>
</svg>
