<svg width="13" height="16" viewBox="0 0 13 16" fill="none" xmlns="http://www.w3.org/2000/svg">
<path fill-rule="evenodd" clip-rule="evenodd" d="M7.91309 4V3.5C7.91309 2.67157 7.24151 2 6.41309 2C5.58466 2 4.91309 2.67157 4.91309 3.5V4H7.91309ZM6.41309 0C4.48009 0 2.91309 1.567 2.91309 3.5V5.88235C2.91309 5.94733 2.96576 6 3.03073 6H9.79544C9.86041 6 9.91309 5.94733 9.91309 5.88235V3.5C9.91309 1.567 8.34608 0 6.41309 0Z" fill="white"/>
<path fill-rule="evenodd" clip-rule="evenodd" d="M2.75354 6L2.08687 14H10.7397L10.073 6H2.75354ZM1.8334 4C1.31331 4 0.880048 4.39866 0.836857 4.91695L0.00352332 14.917C-0.0450616 15.5 0.415029 16 1.00007 16H11.8265C12.4115 16 12.8716 15.5 12.823 14.917L11.9897 4.91695C11.9465 4.39866 11.5132 4 10.9931 4H1.8334Z" fill="white"/>
</svg>
