<svg width="14" height="18" viewBox="0 0 14 18" fill="none" xmlns="http://www.w3.org/2000/svg">
<path d="M12 17.3333H1.99998C1.07951 17.3333 0.333313 16.5871 0.333313 15.6666V2.3333C0.333313 1.41283 1.07951 0.666631 1.99998 0.666631H7.83331C8.05447 0.665851 8.26671 0.753807 8.42248 0.910803L13.4225 5.9108C13.5795 6.06658 13.6674 6.27881 13.6666 6.49996V15.6666C13.6666 16.5871 12.9205 17.3333 12 17.3333ZM1.99998 2.3333V15.6666H10.8216L8.68331 13.5283C8.1751 13.8347 7.59339 13.9977 6.99998 14C5.46765 14.0166 4.11705 12.9972 3.71285 11.5191C3.30866 10.0409 3.95263 8.47615 5.28018 7.7107C6.60774 6.94525 8.28458 7.17185 9.36136 8.2622C10.4381 9.35256 10.6437 11.0321 9.86165 12.35L12 14.49V6.84497L7.48831 2.3333H1.99998ZM6.99998 8.99997C6.0795 8.99997 5.33331 9.74616 5.33331 10.6666C5.33331 11.5871 6.0795 12.3333 6.99998 12.3333C7.92045 12.3333 8.66665 11.5871 8.66665 10.6666C8.66665 9.74616 7.92045 8.99997 6.99998 8.99997Z" fill="white"/>
</svg>
