<svg width="17" height="23" viewBox="0 0 17 23" fill="none" xmlns="http://www.w3.org/2000/svg">
<path d="M11.5 23H4.6V20.7H11.5V23ZM11.5 19.55H4.6L4.34355 17.25C4.20559 16.4892 3.97743 15.7476 3.6639 15.0409C3.2568 14.4658 2.83245 13.9748 2.4219 13.4952C0.913232 12.0811 0.0398489 10.1174 0 8.05C0 3.60411 3.60411 0 8.05 0C12.4959 0 16.1 3.60411 16.1 8.05C16.0532 10.1048 15.1865 12.0556 13.693 13.4677L13.6735 13.4906C13.2641 13.9702 12.8409 14.467 12.4418 15.0362C12.1286 15.7449 11.8997 16.4879 11.7599 17.25L11.5 19.55ZM8.05 2.3C4.87594 2.3038 2.3038 4.87594 2.3 8.05C2.3 9.8256 3.0406 10.687 4.1607 11.9922C4.5862 12.489 5.0692 13.0502 5.5407 13.7068C6.11291 14.8187 6.50385 16.0148 6.69875 17.25H9.4024C9.60233 16.0184 9.99263 14.8254 10.5593 13.7137C11.0193 13.0571 11.5011 12.4924 11.9255 11.9956L11.9427 11.9749C13.0605 10.6639 13.8 9.798 13.8 8.05C13.7962 4.87594 11.2241 2.3038 8.05 2.3Z" fill="white"/>
</svg>
