<svg width="19" height="15" viewBox="0 0 19 15" fill="none" xmlns="http://www.w3.org/2000/svg">
<path d="M16.8334 14.6675H2.16671C1.18635 14.6968 0.366756 13.9281 0.333374 12.9478V1.71959C0.366753 0.739498 1.1865 -0.0290155 2.16671 0.000841296H16.8334C17.8136 -0.0290155 18.6333 0.739498 18.6667 1.71959V12.9488C18.6328 13.9286 17.8134 14.6969 16.8334 14.6675ZM2.16671 1.83417V12.8241L16.8334 12.8342V1.84426L2.16671 1.83417ZM10.8109 11.0008H4.00004C4.06744 10.2419 4.4266 9.53868 5.00196 9.03917C5.64255 8.40366 6.50328 8.03928 7.40546 8.02167C8.30763 8.03928 9.16837 8.40366 9.80896 9.03917C10.3842 9.5388 10.7433 10.2419 10.8109 11.0008ZM15 10.0842H12.25V8.25084H15V10.0842ZM7.40546 7.33417C6.91419 7.35124 6.43789 7.16358 6.09031 6.81599C5.74272 6.46841 5.55505 5.99211 5.57212 5.50084C5.55533 5.00965 5.74308 4.53351 6.09061 4.18599C6.43813 3.83847 6.91427 3.65071 7.40546 3.66751C7.89664 3.65071 8.37278 3.83847 8.72031 4.18599C9.06783 4.53351 9.25559 5.00965 9.23879 5.50084C9.25586 5.99211 9.0682 6.46841 8.72061 6.81599C8.37302 7.16358 7.89672 7.35124 7.40546 7.33417ZM15 6.41751H11.3334V4.58417H15V6.41751Z" fill="white"/>
</svg>
