<svg width="18" height="17" viewBox="0 0 18 17" fill="none" xmlns="http://www.w3.org/2000/svg">
<path d="M8.99996 16.8337C4.39759 16.8337 0.666626 13.1027 0.666626 8.50033C0.666626 3.89795 4.39759 0.166992 8.99996 0.166992C13.6023 0.166992 17.3333 3.89795 17.3333 8.50033C17.3282 13.1006 13.6002 16.8286 8.99996 16.8337ZM8.99996 1.83366C5.31806 1.83366 2.33329 4.81843 2.33329 8.50033C2.33329 12.1822 5.31806 15.167 8.99996 15.167C12.6819 15.167 15.6666 12.1822 15.6666 8.50033C15.6625 4.82014 12.6801 1.83779 8.99996 1.83366ZM13.1666 9.33366H8.16663V4.33366H9.83329V7.66699H13.1666V9.33366Z" fill="#E7A400"/>
</svg>
