<svg width="35" height="35" viewBox="0 0 35 35" fill="none" xmlns="http://www.w3.org/2000/svg">
<circle cx="17.5" cy="17.5" r="17.5" fill="#E7F2F2"/>
<path d="M16.4808 20.6204V20.0278C16.4808 19.3488 16.6047 18.784 16.8525 18.3333C17.1003 17.8827 17.5339 17.4167 18.1533 16.9352C18.8904 16.3549 19.3643 15.9043 19.5749 15.5833C19.7917 15.2623 19.9001 14.8796 19.9001 14.4352C19.9001 13.9167 19.7267 13.5185 19.3798 13.2407C19.0329 12.963 18.5343 12.8241 17.8839 12.8241C17.2954 12.8241 16.7503 12.9074 16.2485 13.0741C15.7468 13.2407 15.2575 13.4414 14.7805 13.6759L14 12.0463C15.2575 11.3488 16.6047 11 18.0418 11C19.2559 11 20.2191 11.2963 20.9315 11.8889C21.6438 12.4815 22 13.2994 22 14.3426C22 14.8056 21.9319 15.2191 21.7956 15.5833C21.6593 15.9414 21.4518 16.284 21.1731 16.6111C20.9005 16.9383 20.4266 17.3642 19.7515 17.8889C19.1754 18.3395 18.7882 18.713 18.59 19.0093C18.398 19.3056 18.302 19.7037 18.302 20.2037V20.6204H16.4808ZM16.0999 23.5741C16.0999 22.642 16.5552 22.1759 17.4657 22.1759C17.9117 22.1759 18.2524 22.2994 18.4878 22.5463C18.7232 22.787 18.8409 23.1296 18.8409 23.5741C18.8409 24.0123 18.7201 24.3611 18.4785 24.6204C18.2431 24.8735 17.9055 25 17.4657 25C17.0259 25 16.6883 24.8765 16.453 24.6296C16.2176 24.3765 16.0999 24.0247 16.0999 23.5741Z" fill="#0E7D7D"/>
</svg>
