<svg width="20" height="20" viewBox="0 0 20 20" fill="none" xmlns="http://www.w3.org/2000/svg">
<path d="M17.5415 11.6751C17.3099 11.6751 17.1221 11.8629 17.1221 12.0945V15.8182C17.1213 16.5126 16.5586 17.0755 15.864 17.0763H4.09686C3.40227 17.0755 2.83956 16.5126 2.83874 15.8182V4.88983C2.83956 4.19524 3.40227 3.63253 4.09686 3.63171H7.82042C8.05206 3.63171 8.23979 3.44398 8.23979 3.21234C8.23979 2.9807 8.05206 2.79297 7.82042 2.79297H4.09686C2.93933 2.79428 2.00131 3.7323 2 4.88983V15.8182C2.00131 16.9758 2.93933 17.9138 4.09686 17.9151H15.864C17.0215 17.9138 17.9596 16.9758 17.9609 15.8182V12.0947C17.9609 11.863 17.7731 11.6751 17.5415 11.6751Z" fill="#C700E7" stroke="#C700E7" stroke-width="0.9986"/>
<path d="M8.55762 9.46821L14.6809 3.34473L16.6558 5.31954L10.5324 11.443L8.55762 9.46821Z" fill="#C700E7"/>
<path d="M7.55957 12.4421L9.74194 11.8377L8.16406 10.2598L7.55957 12.4421Z" fill="#C700E7"/>
<path d="M17.2009 2.30654C16.7912 1.89782 16.1279 1.89782 15.7182 2.30654L15.2734 2.75131L17.2483 4.72612L17.693 4.28136C18.1019 3.87165 18.1019 3.20836 17.693 2.79865L17.2009 2.30654Z" fill="#C700E7"/>
</svg>
