<svg width="24" height="24" viewBox="0 0 24 24" fill="none" xmlns="http://www.w3.org/2000/svg">
<path d="M24 12.0027C24 8.41593 22.4026 5.02363 19.6611 2.75489C15.2359 -0.918297 8.80322 -0.918297 4.37803 2.75489C0.40614 6.01755 -1.04014 11.4193 0.773108 16.2161C-0.0255867 17.0803 -0.219864 18.3551 0.298208 19.4139L1.70132 22.3524C2.39208 23.7785 4.0974 24.3835 5.5221 23.7137L5.82431 23.5624C5.8459 23.5408 5.86748 23.5408 5.88907 23.5192C6.623 23.7569 7.4217 23.368 7.65915 22.6333C7.76708 22.2876 7.74549 21.9203 7.59439 21.5746L4.35644 14.8332C4.03264 14.1418 3.19078 13.8393 2.47843 14.1634C2.3705 14.2066 2.28415 14.2714 2.17622 14.3579C1.29118 10.6631 2.54319 6.7954 5.41417 4.3322C5.56527 4.41863 5.71638 4.44024 5.88907 4.44024C6.10493 4.44024 6.3208 4.37542 6.49349 4.24578C9.77461 1.91222 14.1566 1.91222 17.4378 4.24578C17.7615 4.48345 18.1717 4.50506 18.5171 4.3322C21.3881 6.7954 22.6401 10.6631 21.755 14.3579C21.1722 13.8609 20.2872 13.9473 19.7907 14.5307C19.7043 14.6171 19.6611 14.7252 19.5964 14.8332L16.3584 21.5746C16.0131 22.266 16.3153 23.1087 17.006 23.4544C17.3298 23.6056 17.7184 23.6489 18.0638 23.5192C18.0853 23.5408 18.1069 23.5624 18.1285 23.5624L18.4307 23.7137C19.8554 24.4051 21.5823 23.8001 22.2731 22.374L23.6762 19.4355C24.1943 18.3768 24 17.1019 23.1797 16.2377C23.741 14.8764 24 13.4288 24 12.0027ZM1.76608 16.7346L4.72341 22.8926C4.37803 22.979 4.03264 22.9574 3.68726 22.8494C3.23395 22.6982 2.86698 22.3524 2.65112 21.9203L1.24801 18.9817C0.859453 18.1823 1.11849 17.2316 1.76608 16.7346ZM18.0638 3.4031C16.2505 2.10668 14.1135 1.45847 11.998 1.45847C9.86095 1.45847 7.74549 2.10668 5.93224 3.4031L5.63003 3.1006C9.42923 0.378123 14.5668 0.378123 18.366 3.1006L18.0638 3.4031ZM22.7912 18.8953L21.3449 21.8987C20.9779 22.6765 20.0929 23.0871 19.2726 22.871L22.2299 16.713C22.8775 17.2316 23.115 18.1175 22.7912 18.8953Z" fill="#787878"/>
</svg>
