<svg width="24" height="24" viewBox="0 0 24 24" fill="none" xmlns="http://www.w3.org/2000/svg">
<path d="M13.2964 9.94403H10.6111V7.25871C10.6111 7.05358 10.5178 6.84845 10.3873 6.71792C10.2568 6.58738 10.0516 6.49414 9.8465 6.49414C9.4176 6.49414 9.08193 6.82981 9.08193 7.25871V9.94403H6.37797C6.17284 9.94403 5.96772 10.0373 5.83718 10.1678C5.83718 10.1678 5.83718 10.1678 5.81853 10.1864C5.688 10.317 5.6134 10.5035 5.6134 10.7086C5.6134 10.8391 5.6507 10.951 5.70664 11.0629C5.83718 11.3053 6.09825 11.4732 6.39662 11.4732H9.08193V14.1585C9.08193 14.3636 9.17518 14.5687 9.30571 14.6993C9.43625 14.8298 9.64138 14.923 9.8465 14.923C10.2754 14.923 10.6111 14.5874 10.6111 14.1585V11.4918H13.2964C13.5015 11.4918 13.7066 11.3986 13.8372 11.268C13.9677 11.1375 14.061 10.9324 14.061 10.7272C14.061 10.2983 13.7253 9.94403 13.2964 9.94403Z" fill="#787878"/>
<path d="M19.0021 19.5654C18.8716 19.5654 18.7597 19.6027 18.6478 19.6773C17.7154 20.2741 16.6711 20.6843 15.5896 20.8708C15.2166 20.9454 14.9742 21.281 15.0488 21.654C15.1047 21.971 15.3844 22.2134 15.7014 22.2134C15.7387 22.2134 15.776 22.2134 15.8133 22.1948C16.1117 22.1389 16.4101 22.0829 16.6898 21.9897C16.6898 21.9897 16.6898 21.9897 16.7084 21.9897C17.0814 21.8405 17.3936 21.7966 17.7293 21.6101C17.8598 21.5355 18.1454 21.4049 18.2759 21.3303C18.593 21.1252 19.8899 20.5168 19.4473 19.7945C19.1805 19.5654 19.2073 19.5654 19.0021 19.5654Z" fill="#787878"/>
<path d="M23.7686 10.8302C23.8432 11.1845 23.8633 11.5402 23.9006 11.8946L23.9575 12.4652C23.986 12.619 23.981 12.6363 23.9996 13.0762V13.0948V13.1135V13.1321V13.1508V13.1694V13.1881V13.2067C23.981 13.3186 23.981 13.4119 23.981 13.5237V13.5424V13.561V13.5797V13.5983C23.9623 13.9526 23.6639 14.2324 23.3096 14.2324H23.2723C22.8994 14.2137 22.6196 13.8967 22.6383 13.5237C22.6569 13.3559 22.6569 13.1694 22.6569 12.9829C22.6569 12.0505 22.5078 11.1368 22.2094 10.2603C22.0975 9.90603 22.284 9.51442 22.6383 9.40253C22.7129 9.38388 22.7875 9.36523 22.8621 9.36523C23.1418 9.36523 23.4029 9.53307 23.4961 9.81279L23.7199 10.596L23.7686 10.8302Z" fill="#787878"/>
<path d="M22.9185 14.9416C22.8439 14.9229 22.7693 14.9043 22.6947 14.9043C22.415 14.9043 22.1539 15.0721 22.0607 15.3518C21.6877 16.3961 21.1283 17.3472 20.3823 18.1863C20.1399 18.4661 20.1586 18.895 20.4383 19.1374C20.5688 19.2493 20.718 19.3052 20.8858 19.3052C21.0723 19.3052 21.2588 19.2306 21.3893 19.0815C21.408 19.0442 21.4453 19.0255 21.4639 19.0069C21.4639 19.0069 21.4639 19.0069 21.4826 18.9882C21.4826 18.9882 21.4826 18.9696 21.5012 18.9696L21.5199 18.9509C21.5199 18.9509 21.5199 18.9323 21.5385 18.9323C21.5385 18.9323 21.5385 18.9323 21.5385 18.9136C21.5385 18.9136 21.5385 18.895 21.5572 18.895C21.7436 18.578 21.9301 18.2609 22.098 17.9439C22.2658 17.6083 22.5642 17.2646 22.6947 16.9103C23.4522 15.3518 23.2728 15.0535 22.9185 14.9416Z" fill="#787878"/>
<path d="M22.0049 7.92951C21.8931 8.0041 21.7625 8.04139 21.632 8.04139C21.4831 8.04139 21.1632 7.99987 21.0747 7.83377C20.9862 7.66766 19.9424 6.72193 19.4315 6.26983C19.1331 6.0647 19.0399 5.65445 19.245 5.33743C19.3756 5.15095 19.5807 5.03906 19.8045 5.03906C19.935 5.03906 20.0655 5.07636 20.1774 5.15095L20.1774 5.15096C20.4199 5.31879 20.6623 5.48662 20.9047 5.67309C21.1285 5.85957 21.3522 6.06469 21.576 6.26981L21.576 6.26983L21.5947 6.28848L21.6506 6.34442C21.6693 6.36307 21.6693 6.36307 21.6693 6.36307L21.6879 6.38172L21.7066 6.40037L21.7252 6.41902L21.7812 6.47496C21.7998 6.47496 21.7998 6.49361 21.7998 6.49361C21.8371 6.5309 21.8558 6.5682 21.8931 6.6055L22.1728 6.9971C22.3965 7.29547 22.3033 7.72438 22.0049 7.92951Z" fill="#787878"/>
<path d="M17.4732 3.99479C17.5851 3.64048 17.3986 3.26752 17.0443 3.15563C16.9324 3.11834 16.8205 3.08104 16.7086 3.06239H16.69C16.69 3.06239 16.69 3.06239 16.6713 3.06239C16.6713 3.06239 16.6713 3.06239 16.6527 3.06239C16.6527 3.06239 16.6527 3.06239 16.634 3.06239C16.634 3.06239 16.634 3.06239 16.6154 3.06239C16.6154 3.06239 16.6154 3.06239 16.5967 3.06239C16.5967 3.06239 16.5967 3.06239 16.5781 3.06239C16.5781 3.06239 16.5781 3.06239 16.5594 3.06239C16.5594 3.06239 16.5594 3.06239 16.5408 3.06239C16.5408 3.06239 16.5408 3.06239 16.5221 3.06239C16.5221 3.06239 16.5221 3.06239 16.5035 3.06239C16.5035 3.06239 16.5035 3.06239 16.4848 3.06239C16.4848 3.06239 16.4848 3.06239 16.4662 3.06239C16.2984 3.0251 16.1305 2.9878 15.9441 2.96915C14.2471 1.70109 12.2145 1.01111 10.0699 1.01111C7.21678 0.880575 4.7366 1.90622 2.89044 3.77102C1.04429 5.63582 0 8.09736 0 10.7267C0 13.3561 1.02564 15.8176 2.8718 17.6824C4.55012 19.3608 6.75058 20.3678 9.10023 20.5356C9.06294 20.8153 9.19347 21.095 9.45455 21.2442C10.5734 21.841 11.8042 22.2139 13.1096 22.3444C13.1282 22.3444 13.1469 22.3444 13.1655 22.3444C13.5012 22.3444 13.7995 22.0834 13.8368 21.7291C13.8741 21.3561 13.5944 21.0391 13.2401 21.0018C12.4942 20.9272 11.7483 20.7594 11.0583 20.4983C13.2214 20.2372 15.2168 19.2675 16.7832 17.7011C18.648 15.8363 19.655 13.3747 19.655 10.7454C19.655 8.35843 18.8159 6.10202 17.2681 4.33046C17.3613 4.21857 17.4359 4.12533 17.4732 3.99479ZM18.1259 10.7267C18.1259 15.2955 14.3963 19.0251 9.82751 19.0251C9.32401 19.0251 8.83916 18.9878 8.35431 18.8946C7.47786 18.7454 6.65734 18.447 5.89278 18.0368C3.31935 16.6195 1.54779 13.8782 1.54779 10.7267C1.54779 6.15796 5.27739 2.42836 9.84616 2.42836C10.7413 2.42836 11.6177 2.57754 12.4196 2.83862L14.7879 4.06939C16.8205 5.59852 18.1259 8.00412 18.1259 10.7267Z" fill="#787878"/>
</svg>
