<svg width="20" height="20" viewBox="0 0 20 20" fill="none" xmlns="http://www.w3.org/2000/svg">
<path d="M14.1202 12.0439C14.0656 11.8556 13.8411 11.7676 13.6105 11.7676C13.386 11.7676 13.1614 11.8556 13.1068 12.0439L11.9356 15.9917C11.9295 16.0168 11.9235 16.0419 11.9235 16.0544C11.9235 16.2553 12.2086 16.3933 12.4211 16.3933C12.5546 16.3933 12.6577 16.3495 12.6881 16.2302L12.9186 15.3954H14.3083L14.5391 16.2302C14.5693 16.3495 14.6724 16.3933 14.806 16.3933C15.0184 16.3933 15.3036 16.2491 15.3036 16.0544C15.3036 16.0356 15.2975 16.0167 15.2915 15.9917L14.1202 12.0439ZM13.0825 14.7551L13.6103 12.8284L14.1385 14.7551H13.0825Z" fill="#3F88C5"/>
<path d="M17.2539 8.15887H11.4487V5.59448L13.3353 4.20074C13.4842 4.09073 13.5725 3.91327 13.5725 3.72406C13.5725 3.5347 13.4842 3.35724 13.3353 3.24722L11.4259 1.8367C11.2768 0.798798 10.4094 0 9.36521 0H2.0836C0.934618 0 0 0.966644 0 2.155V9.68628C0 10.8745 0.934618 11.8411 2.0836 11.8411H7.88871V14.4055L6.00206 15.7993C5.8532 15.9093 5.76483 16.0869 5.76483 16.2761C5.76483 16.4653 5.8532 16.6429 6.00206 16.7528L7.91143 18.1633C8.06058 19.2012 8.92793 20 9.97216 20H17.2539C18.4028 20 19.3374 19.0332 19.3374 17.845V10.3139C19.3374 9.12552 18.4028 8.15887 17.2539 8.15887ZM2.0836 10.6693C1.55942 10.6693 1.13305 10.2283 1.13305 9.68613V2.15485C1.13305 1.61285 1.55942 1.17188 2.0836 1.17188H9.36521C9.88925 1.17188 10.3156 1.61285 10.3156 2.15485C10.3156 2.34421 10.404 2.52182 10.5528 2.63168L12.0313 3.72391L10.5528 4.81613C10.404 4.92615 10.3156 5.10376 10.3156 5.29297V8.15887H9.97216C8.82332 8.15887 7.88871 9.12552 7.88871 10.3137V10.6693H2.0836ZM18.2043 17.845C18.2043 18.3871 17.778 18.8281 17.2539 18.8281H9.97216C9.44812 18.8281 9.02176 18.3871 9.02176 17.845C9.02176 17.6558 8.93338 17.4782 8.78452 17.3683L7.3061 16.2761L8.78452 15.1839C8.93338 15.0739 9.02176 14.8962 9.02176 14.707V10.3139C9.02176 9.77173 9.44812 9.33075 9.97216 9.33075H10.8807H10.8821H10.8836H17.2539C17.778 9.33075 18.2043 9.77173 18.2043 10.3139V17.845Z" fill="#3F88C5"/>
<path d="M7.46504 5.40125C7.64134 5.40125 7.78444 5.25323 7.78444 5.07074C7.78444 4.88824 7.64134 4.74023 7.46504 4.74023H6.04386V3.93793C6.04386 3.75543 5.90075 3.60742 5.7243 3.60742C5.548 3.60742 5.40489 3.75543 5.40489 3.93793V4.74023H3.98371C3.80741 4.74023 3.66431 4.88824 3.66431 5.07074C3.66431 5.25323 3.80741 5.40125 3.98371 5.40125H4.4241C4.49447 6.09903 4.78541 6.72968 5.22299 7.21811C4.8602 7.44272 4.43649 7.57242 3.98371 7.57242C3.80741 7.57242 3.66431 7.72028 3.66431 7.90277C3.66431 8.08527 3.80741 8.23328 3.98371 8.23328C4.6302 8.23328 5.22992 8.02423 5.7243 7.6687C6.21883 8.02423 6.81855 8.23328 7.46504 8.23328C7.64134 8.23328 7.78444 8.08527 7.78444 7.90277C7.78444 7.72028 7.64134 7.57242 7.46504 7.57242C7.01226 7.57242 6.58855 7.44302 6.22576 7.21811C6.66335 6.72968 6.95428 6.09903 7.02465 5.40125H7.46504ZM5.7243 6.80521C5.3748 6.42999 5.13742 5.94278 5.06793 5.40125H6.38082C6.31133 5.94278 6.07395 6.42999 5.7243 6.80521Z" fill="#3F88C5"/>
</svg>
