<svg width="15" height="15" viewBox="0 0 15 15" fill="none" xmlns="http://www.w3.org/2000/svg">
<path d="M15 7.5C15 11.6421 11.6421 15 7.5 15C3.35786 15 0 11.6421 0 7.5C0 3.35786 3.35786 0 7.5 0C11.6421 0 15 3.35786 15 7.5Z" fill="white"/>
<path d="M8.41846 9.00488H6.32373L6 3H8.74219L8.41846 9.00488ZM6.02539 11.2266C6.02539 10.8415 6.13965 10.5431 6.36816 10.3315C6.59668 10.1157 6.92887 10.0078 7.36475 10.0078C7.79639 10.0078 8.12223 10.1157 8.34229 10.3315C8.56657 10.5431 8.67871 10.8415 8.67871 11.2266C8.67871 11.6074 8.56234 11.9058 8.32959 12.1216C8.10107 12.3332 7.77946 12.439 7.36475 12.439C6.9458 12.439 6.61784 12.3332 6.38086 12.1216C6.14388 11.9058 6.02539 11.6074 6.02539 11.2266Z" fill="#E7A400"/>
</svg>
