<svg width="21" height="14" viewBox="0 0 21 14" fill="none" xmlns="http://www.w3.org/2000/svg">
<path d="M5.92314 0.295898C4.03616 0.295898 2.50098 1.84197 2.50098 3.74233C2.50098 5.64268 4.03616 7.18875 5.92314 7.18875C7.81013 7.18875 9.34531 5.64268 9.34531 3.74233C9.34531 1.84197 7.81013 0.295898 5.92314 0.295898Z" fill="white"/>
<rect x="15.3965" y="2.47754" width="1.60779" height="8.03896" fill="white"/>
<rect x="20.2197" y="5.69336" width="1.60779" height="8.03896" transform="rotate(90 20.2197 5.69336)" fill="white"/>
<path d="M10.1812 9.44074C9.24426 8.48269 8.00221 7.95508 6.68382 7.95508H5.16286C3.84448 7.95508 2.60242 8.48269 1.6655 9.44074C0.733178 10.3941 0.219727 11.6525 0.219727 12.9843C0.219727 13.1958 0.389973 13.3672 0.599967 13.3672H11.2467C11.4567 13.3672 11.6269 13.1958 11.6269 12.9843C11.6269 11.6525 11.1135 10.3941 10.1812 9.44074Z" fill="white"/>
</svg>
