<svg width="19" height="16" viewBox="0 0 19 16" fill="none" xmlns="http://www.w3.org/2000/svg">
<path d="M7.64658 13.955C7.62358 13.8939 7.61566 13.8418 7.62346 13.7997C7.63122 13.7579 7.60448 13.7232 7.54316 13.6966C7.48184 13.6699 7.45125 13.6487 7.45125 13.6335C7.45125 13.6183 7.4073 13.6067 7.3192 13.5992C7.23115 13.5915 7.1872 13.5876 7.1872 13.5876H7.03803H6.91177H3.60563C3.10053 13.5876 2.6681 13.4079 2.30835 13.048C1.94869 12.6883 1.76888 12.2559 1.76888 11.7509V3.66919C1.76888 3.16409 1.94865 2.73182 2.30835 2.37212C2.6681 2.01237 3.10053 1.83244 3.60563 1.83244H7.27907C7.37859 1.83244 7.45683 1.80776 7.51437 1.7579C7.57167 1.70816 7.60987 1.63349 7.62909 1.53402C7.64822 1.43454 7.65976 1.34472 7.66362 1.26434C7.6674 1.18405 7.66555 1.08256 7.65783 0.960129C7.65023 0.837736 7.64641 0.76122 7.64641 0.730461C7.64641 0.630986 7.61003 0.545062 7.53737 0.472205C7.46463 0.39967 7.37859 0.363281 7.27911 0.363281H3.60563C2.69499 0.363281 1.91625 0.686634 1.2695 1.3333C0.622914 1.97997 0.299561 2.75859 0.299561 3.66931V11.7509C0.299561 12.6615 0.622914 13.4403 1.2695 14.0868C1.91625 14.7338 2.69499 15.0571 3.60563 15.0571H7.27923C7.37875 15.0571 7.45703 15.0321 7.51453 14.9826C7.57183 14.9327 7.61003 14.8582 7.62925 14.7586C7.64839 14.6592 7.65992 14.5689 7.66378 14.4889C7.66756 14.4085 7.66571 14.3072 7.65799 14.1848C7.65032 14.0622 7.64658 13.9858 7.64658 13.955Z" fill="#0E7D7D"/>
<path d="M18.0811 7.19363L11.8362 0.948557C11.6909 0.803326 11.5187 0.730469 11.3197 0.730469C11.1207 0.730469 10.9484 0.803326 10.803 0.948557C10.6575 1.09399 10.5849 1.26636 10.5849 1.46523V4.77138H5.44204C5.24293 4.77138 5.0708 4.84423 4.92536 4.98947C4.77993 5.1349 4.70728 5.30715 4.70728 5.50614V9.91439C4.70728 10.1133 4.77993 10.2856 4.92536 10.4309C5.07096 10.5761 5.24305 10.6491 5.44204 10.6491H10.5849V13.9553C10.5849 14.1541 10.6576 14.3265 10.803 14.4718C10.9484 14.6172 11.1207 14.6901 11.3197 14.6901C11.5187 14.6901 11.6909 14.6172 11.8363 14.4718L18.0811 8.22702C18.2265 8.08146 18.2992 7.90945 18.2992 7.71042C18.2992 7.51148 18.2265 7.33906 18.0811 7.19363Z" fill="#0E7D7D"/>
</svg>
