<svg width="11" height="14" viewBox="0 0 11 14" fill="none" xmlns="http://www.w3.org/2000/svg">
<path d="M6.76438 0H9.80414C9.99329 0 10.1466 0.153359 10.1466 0.342508V13.6575C10.1466 13.8466 9.99329 14 9.80414 14H6.76438C6.57523 14 6.42188 13.8466 6.42188 13.6575V0.342508C6.42188 0.153359 6.57523 0 6.76438 0Z" fill="#3B3B3B"/>
<path d="M0.342508 0H3.38226C3.57141 0 3.72477 0.153359 3.72477 0.342508V13.6575C3.72477 13.8466 3.57141 14 3.38226 14H0.342508C0.153359 14 0 13.8466 0 13.6575V0.342508C0 0.153359 0.153359 0 0.342508 0Z" fill="#3B3B3B"/>
</svg>
