<svg width="19" height="17" viewBox="0 0 19 17" fill="none" xmlns="http://www.w3.org/2000/svg">
<path d="M11.5992 6.9204C12.812 8.13327 12.812 10.1011 11.5992 11.314C10.3863 12.5269 8.41842 12.5269 7.20555 11.314C5.99268 10.1011 5.99268 8.13327 7.20555 6.9204C8.41842 5.70752 10.3863 5.70752 11.5992 6.9204Z" fill="#3F88C5"/>
<path d="M16.115 2.96258H14.5701L13.8536 1.52951C13.6054 1.03667 13.1021 0.725586 12.5498 0.725586H6.25827C5.70601 0.725586 5.20268 1.03667 4.95452 1.52951L4.23798 2.96258L2.69305 2.96608C1.4627 2.96957 0.45955 3.97273 0.45955 5.20308L0.456055 14.1476C0.456055 15.3814 1.45921 16.3846 2.69305 16.3846H16.115C17.3489 16.3846 18.352 15.3814 18.352 14.1476V5.19958C18.352 3.96574 17.3489 2.96258 16.115 2.96258ZM9.40404 13.5883C6.93636 13.5883 4.93005 11.582 4.93005 9.11433C4.93005 6.64664 6.93636 4.64033 9.40404 4.64033C11.8717 4.64033 13.878 6.64664 13.878 9.11433C13.878 11.582 11.8717 13.5883 9.40404 13.5883Z" fill="#3F88C5"/>
</svg>
