<svg width="13" height="14" viewBox="0 0 13 14" fill="none" xmlns="http://www.w3.org/2000/svg">
<path d="M9.14226 0.765625H0.507903C0.22754 0.765625 0 0.993165 0 1.27353V9.90788C0 10.1882 0.22754 10.4158 0.507903 10.4158H9.14226C9.42262 10.4158 9.65016 10.1882 9.65016 9.90788V1.27353C9.65016 0.993165 9.42262 0.765625 9.14226 0.765625ZM8.63436 9.39998H1.01581V1.78143H8.63436V9.39998Z" fill="#0E7D7D"/>
<path d="M11.6828 11.1787V12.4485H10.4131V13.4643H12.1907C12.4711 13.4643 12.6987 13.2367 12.6987 12.9564V11.1787H11.6828Z" fill="#0E7D7D"/>
<path d="M9.23935 12.4473H6.50684V13.4631H9.23935V12.4473Z" fill="#0E7D7D"/>
<path d="M4.06366 12.4485V11.1787H3.04785V12.9564C3.04785 13.2367 3.27539 13.4643 3.55575 13.4643H5.33342V12.4485H4.06366Z" fill="#0E7D7D"/>
<path d="M12.1907 3.81348H10.4131V4.82928H11.6828V6.09904H12.6987V4.32138C12.6987 4.04102 12.4711 3.81348 12.1907 3.81348Z" fill="#0E7D7D"/>
<path d="M12.6984 7.27246H11.6826V10.005H12.6984V7.27246Z" fill="#0E7D7D"/>
</svg>
