<svg width="8" height="25" viewBox="0 0 8 25" fill="none" xmlns="http://www.w3.org/2000/svg">
<path d="M5.07812 16.1968H2.09961L1.47705 4.27051H5.70068L5.07812 16.1968ZM1.42822 20.3716C1.42822 19.688 1.61133 19.1712 1.97754 18.8213C2.34375 18.4714 2.87679 18.2964 3.57666 18.2964C4.25212 18.2964 4.77295 18.4754 5.13916 18.8335C5.51351 19.1916 5.70068 19.7043 5.70068 20.3716C5.70068 21.0145 5.51351 21.5231 5.13916 21.8975C4.76481 22.2637 4.24398 22.4468 3.57666 22.4468C2.89307 22.4468 2.3641 22.2677 1.98975 21.9097C1.6154 21.5435 1.42822 21.0308 1.42822 20.3716Z" fill="#CC2936"/>
<path d="M5.07812 16.1968H2.09961L1.47705 4.27051H5.70068L5.07812 16.1968ZM1.42822 20.3716C1.42822 19.688 1.61133 19.1712 1.97754 18.8213C2.34375 18.4714 2.87679 18.2964 3.57666 18.2964C4.25212 18.2964 4.77295 18.4754 5.13916 18.8335C5.51351 19.1916 5.70068 19.7043 5.70068 20.3716C5.70068 21.0145 5.51351 21.5231 5.13916 21.8975C4.76481 22.2637 4.24398 22.4468 3.57666 22.4468C2.89307 22.4468 2.3641 22.2677 1.98975 21.9097C1.6154 21.5435 1.42822 21.0308 1.42822 20.3716Z" fill="#CC2936"/>
</svg>
