<svg width="26" height="27" viewBox="0 0 26 27" fill="none" xmlns="http://www.w3.org/2000/svg">
<rect x="1" y="1.48047" width="24" height="24" rx="12" fill="#00D06C" stroke="white" stroke-width="2"/>
<path d="M6.13617 14.742L10.115 18.3568C10.1582 18.396 10.2094 18.4271 10.2658 18.4483C10.3222 18.4695 10.3827 18.4805 10.4437 18.4805C10.5047 18.4805 10.5652 18.4695 10.6216 18.4483C10.678 18.4271 10.7292 18.396 10.7724 18.3568L19.8638 10.0972C19.907 10.058 19.9412 10.0114 19.9646 9.96017C19.988 9.90894 20 9.85402 20 9.79856C20 9.7431 19.988 9.68818 19.9646 9.63695C19.9412 9.58571 19.907 9.53916 19.8638 9.49994L18.8779 8.60418C18.8347 8.56496 18.7835 8.53385 18.7271 8.51262C18.6707 8.49139 18.6102 8.48047 18.5492 8.48047C18.4881 8.48047 18.4277 8.49139 18.3713 8.51262C18.3149 8.53385 18.2636 8.56496 18.2205 8.60418L10.4437 15.6695L7.77952 13.249C7.73636 13.2098 7.68512 13.1787 7.62872 13.1574C7.57232 13.1362 7.51188 13.1253 7.45083 13.1253C7.38979 13.1253 7.32934 13.1362 7.27294 13.1574C7.21655 13.1787 7.1653 13.2098 7.12214 13.249L6.13617 14.1448C6.093 14.184 6.05875 14.2305 6.03539 14.2818C6.01202 14.333 6 14.3879 6 14.4434C6 14.4988 6.01202 14.5538 6.03539 14.605C6.05875 14.6562 6.093 14.7028 6.13617 14.742Z" fill="white"/>
</svg>
