<svg width="24" height="24" viewBox="0 0 24 24" fill="none" xmlns="http://www.w3.org/2000/svg">
<path d="M19.7692 11.8008C19.4944 11.8008 19.2746 12.0206 19.2746 12.2954V16.7946C19.2746 18.0183 18.2781 19.0112 17.058 19.0112H6.20583C4.98212 19.0112 3.98923 18.0146 3.98923 16.7946V12.2222C3.98923 11.9474 3.7694 11.7275 3.49461 11.7275C3.21983 11.7275 3 11.9474 3 12.2222V16.7946C3 18.5642 4.43987 20.0004 6.20583 20.0004H17.058C18.8276 20.0004 20.2638 18.5605 20.2638 16.7946V12.2954C20.2638 12.0243 20.044 11.8008 19.7692 11.8008Z" fill="#0E7D7D" stroke="#0E7D7D" stroke-width="0.5"/>
<path d="M8.83785 12.2289L11.1387 14.5297V4.49458C11.1387 4.21979 11.3585 3.99997 11.6333 3.99997C11.9081 3.99997 12.1279 4.21979 12.1279 4.49458V14.5297L14.4288 12.2289C14.5241 12.1336 14.6523 12.0823 14.7769 12.0823C14.9051 12.0823 15.0297 12.1299 15.1249 12.2289C15.3191 12.423 15.3191 12.7345 15.1249 12.9287L11.9814 16.0722C11.8898 16.1638 11.7616 16.2188 11.6333 16.2188C11.5014 16.2188 11.3769 16.1675 11.2853 16.0722L8.14173 12.9287C7.94755 12.7345 7.94755 12.423 8.14173 12.2289C8.33225 12.0384 8.64733 12.0384 8.83785 12.2289Z" fill="#0E7D7D" stroke="#0E7D7D" stroke-width="0.5"/>
</svg>
