<svg width="13" height="14" viewBox="0 0 13 14" fill="none" xmlns="http://www.w3.org/2000/svg">
<path d="M0.855314 13.1636C0.662908 13.1632 0.479488 13.0821 0.349807 12.94C0.217734 12.799 0.152106 12.6083 0.169415 12.4159L0.337461 10.5681L8.10046 2.80788L10.5265 5.23322L2.76554 12.9928L0.917731 13.1608C0.896468 13.1629 0.875205 13.1636 0.855314 13.1636ZM11.0107 4.74829L8.58539 2.32295L10.0402 0.868157C10.1688 0.739361 10.3434 0.666992 10.5255 0.666992C10.7075 0.666992 10.8821 0.739361 11.0107 0.868157L12.4655 2.32295C12.5943 2.4516 12.6667 2.62618 12.6667 2.80822C12.6667 2.99027 12.5943 3.16484 12.4655 3.29349L11.0114 4.7476L11.0107 4.74829Z" fill="#E7A400"/>
</svg>
