<svg width="18" height="10" viewBox="0 0 18 10" fill="none" xmlns="http://www.w3.org/2000/svg">
<path d="M9 0C5.56091 0 2.44216 1.7536 0.140841 4.60192C-0.0469469 4.83528 -0.0469469 5.16129 0.140841 5.39465C2.44216 8.2464 5.56091 10 9 10C12.4391 10 15.5578 8.2464 17.8592 5.39808C18.0469 5.16472 18.0469 4.83871 17.8592 4.60535C15.5578 1.7536 12.4391 0 9 0ZM9.2467 8.52093C6.96379 8.65477 5.07855 6.90117 5.22215 4.77008C5.33998 3.01304 6.86806 1.58888 8.7533 1.47907C11.0362 1.34523 12.9214 3.09883 12.7778 5.22992C12.6563 6.98353 11.1283 8.40769 9.2467 8.52093ZM9.13256 6.8943C7.90273 6.96637 6.88647 6.02265 6.96747 4.87646C7.03007 3.92931 7.85486 3.16404 8.87113 3.10227C10.101 3.0302 11.1172 3.97392 11.0362 5.12011C10.9699 6.07069 10.1451 6.83596 9.13256 6.8943Z" fill="#0E7D7D"/>
</svg>
