<svg width="19" height="18" viewBox="0 0 19 18" fill="none" xmlns="http://www.w3.org/2000/svg">
<path d="M17.7692 8.80374C17.4944 8.80374 17.2746 9.02357 17.2746 9.29836V13.7975C17.2746 15.0212 16.2781 16.0141 15.058 16.0141H4.20583C2.98212 16.0141 1.98923 15.0176 1.98923 13.7975V9.22508C1.98923 8.9503 1.7694 8.73047 1.49461 8.73047C1.21983 8.73047 1 8.9503 1 9.22508V13.7975C1 15.5671 2.43987 17.0033 4.20583 17.0033H15.058C16.8276 17.0033 18.2638 15.5635 18.2638 13.7975V9.29836C18.2638 9.02724 18.044 8.80374 17.7692 8.80374Z" fill="#0E7D7D" stroke="#0E7D7D" stroke-width="0.5"/>
<path d="M6.83727 9.23082L9.13814 11.5317V1.49653C9.13814 1.22175 9.35797 1.00192 9.63275 1.00192C9.90754 1.00192 10.1274 1.22175 10.1274 1.49653V11.5317L12.4282 9.23082C12.5235 9.13556 12.6517 9.08427 12.7763 9.08427C12.9045 9.08427 13.0291 9.1319 13.1244 9.23082C13.3185 9.425 13.3185 9.73643 13.1244 9.93061L9.98082 13.0742C9.88922 13.1657 9.76099 13.2207 9.63275 13.2207C9.50086 13.2207 9.37629 13.1694 9.28469 13.0742L6.14115 9.93061C5.94697 9.73643 5.94697 9.425 6.14115 9.23082C6.33167 9.0403 6.64675 9.0403 6.83727 9.23082Z" fill="#0E7D7D" stroke="#0E7D7D" stroke-width="0.5"/>
</svg>
