<svg width="20" height="20" viewBox="0 0 20 20" fill="none" xmlns="http://www.w3.org/2000/svg">
<path d="M13.3334 18.3337H3.33341C2.41294 18.3337 1.66675 17.5875 1.66675 16.667V6.66699H3.33341V16.667H13.3334V18.3337ZM16.6667 15.0003H6.66675C5.74627 15.0003 5.00008 14.2541 5.00008 13.3337V3.33366C5.00008 2.41318 5.74627 1.66699 6.66675 1.66699H16.6667C17.5872 1.66699 18.3334 2.41318 18.3334 3.33366V13.3337C18.3334 14.2541 17.5872 15.0003 16.6667 15.0003ZM6.66675 3.33366V13.3337H16.6667V3.33366H6.66675ZM10.8334 11.3012L7.74425 8.21116L8.92258 7.03283L10.8334 8.94449L14.4109 5.36699L15.5892 6.54533L10.8334 11.3003V11.3012Z" fill="#523FC5"/>
</svg>
