<svg width="24" height="30" viewBox="0 0 24 30" fill="none" xmlns="http://www.w3.org/2000/svg">
<path d="M1.25 30H22.0833C22.7737 30 23.3333 29.4404 23.3333 28.75V8.8511C23.3333 8.51958 23.2016 8.20164 22.9672 7.96722L15.3661 0.366117C15.1317 0.131696 14.8138 0 14.4822 0H1.25C0.559644 0 0 0.559645 0 1.25V28.75C0 29.4404 0.559643 30 1.25 30Z" fill="white"/>
<path fill-rule="evenodd" clip-rule="evenodd" d="M1.25 29.3878H22.0833C22.4356 29.3878 22.7211 29.1022 22.7211 28.75V8.8511C22.7211 8.68196 22.6539 8.51974 22.5343 8.40014L14.9332 0.799039C14.8136 0.679437 14.6514 0.612245 14.4822 0.612245H1.25C0.897778 0.612245 0.612245 0.897778 0.612245 1.25V28.75C0.612245 29.1022 0.897778 29.3878 1.25 29.3878ZM15.3661 0.366117L22.9672 7.96722C23.2016 8.20164 23.3333 8.51958 23.3333 8.8511V28.75C23.3333 29.4404 22.7737 30 22.0833 30H1.25C0.559644 30 0 29.4404 0 28.75V1.25C0 0.559645 0.559644 0 1.25 0H14.4822C14.8138 0 15.1317 0.131696 15.3661 0.366117Z" fill="#E9E9E9"/>
<path opacity="0.2" d="M17.9167 8.75065C17.2501 8.75065 16.389 8.47287 16.0417 8.33398L18.7501 7.70898L22.9167 8.33398C23.0556 8.75065 23.2917 9.50065 23.1251 9.16732C22.9167 8.75065 18.7501 8.75065 17.9167 8.75065Z" fill="black"/>
<path d="M16.25 8.33333H23.3333L15 0V7.08333C15 7.77369 15.5596 8.33333 16.25 8.33333Z" fill="#27AE60"/>
<path d="M22.2915 8.33398C22.9582 8.33398 23.2637 9.30621 23.3332 9.79232V8.33398H22.2915Z" fill="#8BFFBC"/>
<path d="M4.89807 25.0989C4.89807 24.9047 4.94783 24.7557 5.04735 24.652C5.14687 24.5482 5.29091 24.4964 5.47948 24.4964C5.67066 24.4964 5.81601 24.5509 5.91553 24.66C6.01505 24.7664 6.06481 24.9127 6.06481 25.0989C6.06481 25.2877 6.01374 25.438 5.9116 25.5497C5.81208 25.6588 5.66804 25.7133 5.47948 25.7133C5.29091 25.7133 5.14687 25.6588 5.04735 25.5497C4.94783 25.4407 4.89807 25.2904 4.89807 25.0989Z" fill="#27AE60"/>
<path d="M8.86971 24.9193C9.09494 24.9193 9.32017 24.8834 9.5454 24.8116V25.5178C9.44326 25.563 9.311 25.6003 9.14863 25.6295C8.98887 25.6615 8.82257 25.6774 8.64972 25.6774C7.77499 25.6774 7.33762 25.2093 7.33762 24.2729V21.8949H6.74443V21.4799L7.38084 21.1368L7.69511 20.2031H8.26473V21.1847H9.50218V21.8949H8.26473V24.257C8.26473 24.4831 8.31973 24.6507 8.42972 24.7597C8.54234 24.8661 8.689 24.9193 8.86971 24.9193Z" fill="#27AE60"/>
<path d="M11.3839 23.3433L9.92645 21.1847H10.9793L11.9692 22.7288L12.9671 21.1847H14.012L12.5506 23.3433L14.0867 25.5976H13.0417L11.9692 23.9458L10.9007 25.5976H9.85574L11.3839 23.3433Z" fill="#27AE60"/>
<path d="M16.4673 24.9193C16.6925 24.9193 16.9177 24.8834 17.143 24.8116V25.5178C17.0408 25.563 16.9086 25.6003 16.7462 25.6295C16.5864 25.6615 16.4201 25.6774 16.2473 25.6774C15.3726 25.6774 14.9352 25.2093 14.9352 24.2729V21.8949H14.342V21.4799L14.9784 21.1368L15.2927 20.2031H15.8623V21.1847H17.0998V21.8949H15.8623V24.257C15.8623 24.4831 15.9173 24.6507 16.0273 24.7597C16.1399 24.8661 16.2866 24.9193 16.4673 24.9193Z" fill="#27AE60"/>
</svg>
