<svg width="21" height="24" viewBox="0 0 21 24" fill="none" xmlns="http://www.w3.org/2000/svg">
<path d="M7.11189 21.6923H3.58741C3.25175 21.6923 1.57343 21.6294 1.57343 20.4126V6.20979H4.76224C5.2028 6.20979 5.53846 5.85315 5.53846 5.43357V1.55245H14.7692C15.8811 1.55245 16.7832 2.45455 16.7832 3.56643V12.2098C16.7832 12.6503 17.1399 12.986 17.5594 12.986C18 12.986 18.3357 12.6294 18.3357 12.2098V3.56643C18.3357 1.59441 16.7413 0 14.7692 0H4.74126C4.51049 0 4.3007 0.104895 4.15385 0.272727L0.188811 4.90909C0.062937 5.05594 0 5.22378 0 5.41259V20.4126C0 22.1119 1.42657 23.2448 3.56643 23.2448H7.09091C7.53147 23.2448 7.86713 22.8881 7.86713 22.4685C7.88811 22.049 7.53147 21.6923 7.11189 21.6923ZM2.45455 4.65734L3.96503 2.8951V4.65734H2.45455Z" fill="#787878"/>
<path d="M19.1745 19.7834C19.1325 19.7414 19.0906 19.7205 19.0486 19.6995L16.8458 18.6296C17.1815 17.8533 17.3493 17.0352 17.3493 16.196C17.3493 12.8603 14.6221 10.1331 11.2864 10.1331C7.95072 10.1331 5.22345 12.8603 5.22345 16.196C5.22345 19.5317 7.95072 22.2589 11.2864 22.2589C12.4193 22.2589 13.5521 21.9442 14.4962 21.3359L16.1325 23.3918C16.1745 23.4338 16.2165 23.4757 16.2584 23.5177C16.678 23.8324 17.1815 24.0002 17.685 24.0002C17.7899 24.0002 17.8948 24.0002 17.9997 23.9792C18.629 23.8953 19.1745 23.5806 19.5731 23.0771C20.3913 22.0701 20.2025 20.5806 19.1745 19.7834ZM18.3563 22.1331C18.2304 22.3009 18.0416 22.4058 17.8318 22.4477C17.643 22.4687 17.4542 22.4268 17.3074 22.3428L15.2724 19.7834L15.2514 19.7624C15.2514 19.7414 15.2304 19.7414 15.2304 19.7205L15.2095 19.6995C15.1885 19.6785 15.1885 19.6785 15.1675 19.6785L15.1465 19.6575C15.1255 19.6575 15.1255 19.6366 15.1046 19.6366C15.1046 19.6366 15.0836 19.6366 15.0836 19.6156C15.0626 19.6156 15.0626 19.5946 15.0416 19.5946C15.0416 19.5946 15.0207 19.5946 15.0207 19.5736C14.9997 19.5736 14.9997 19.5526 14.9787 19.5526H14.9577C14.9367 19.5526 14.9158 19.5317 14.9158 19.5317H14.8948C14.8738 19.5317 14.8528 19.5317 14.8318 19.5107H14.8109C14.7899 19.5107 14.7689 19.5107 14.7479 19.5107C14.7479 19.5107 14.7479 19.5107 14.7269 19.5107C14.706 19.5107 14.685 19.5107 14.664 19.5107C14.664 19.5107 14.664 19.5107 14.643 19.5107C14.6221 19.5107 14.6011 19.5107 14.5801 19.5107C14.5801 19.5107 14.5801 19.5107 14.5591 19.5107C14.5381 19.5107 14.5172 19.5107 14.4962 19.5107C14.4752 19.5107 14.4542 19.5107 14.4332 19.5317C14.4123 19.5317 14.3913 19.5526 14.3703 19.5526C14.3493 19.5526 14.3283 19.5736 14.3074 19.5736C14.2864 19.5946 14.2654 19.5946 14.2444 19.6156C14.2444 19.6156 14.2444 19.6156 14.2235 19.6156C14.2025 19.6156 14.2025 19.6366 14.1815 19.6575C13.3843 20.3289 12.3563 20.6855 11.3074 20.6855C8.83184 20.6855 6.79688 18.6715 6.79688 16.175C6.79688 13.6995 8.81086 11.6645 11.3074 11.6645C13.7829 11.6645 15.8179 13.6785 15.8179 16.175C15.8179 17.0142 15.5871 17.8324 15.1465 18.5456C15.1465 18.5666 15.1255 18.5666 15.1255 18.5876L15.1046 18.6086V18.6296C15.1046 18.6505 15.0836 18.6715 15.0836 18.6715C15.0836 18.6925 15.0836 18.6925 15.0626 18.7135C15.0626 18.7345 15.0626 18.7345 15.0626 18.7554C15.0626 18.7764 15.0626 18.7974 15.0416 18.8184C15.0416 18.8184 15.0416 18.8184 15.0416 18.8393C15.0416 18.8603 15.0416 18.8813 15.0416 18.9233C15.0207 19.238 15.1885 19.5317 15.4822 19.6785L18.3144 21.0631C18.5661 21.3359 18.629 21.8184 18.3563 22.1331Z" fill="#787878"/>
<path d="M13.0492 14.3708L10.7415 16.5316L9.7974 15.6086C9.5037 15.3148 9.0002 15.3148 8.70649 15.6295C8.41279 15.9442 8.41279 16.4267 8.72747 16.7414L10.217 18.168C10.3638 18.3148 10.5736 18.3778 10.7624 18.3778C10.9512 18.3778 11.1401 18.3148 11.3079 18.168L14.1401 15.4827C14.4547 15.189 14.4757 14.6855 14.161 14.3708C13.8464 14.0771 13.3638 14.0561 13.0492 14.3708Z" fill="#787878"/>
</svg>
