<?xml version="1.0" encoding="utf-8"?><svg xmlns="http://www.w3.org/2000/svg" xmlns:xlink="http://www.w3.org/1999/xlink"><symbol viewBox="0 0 21 14" id="add-person" xmlns="http://www.w3.org/2000/svg"><path d="M5.923.296c-1.887 0-3.422 1.546-3.422 3.446 0 1.9 1.535 3.447 3.422 3.447 1.887 0 3.422-1.546 3.422-3.447 0-1.9-1.535-3.446-3.422-3.446zm9.473 2.182h1.608v8.039h-1.608z"/><path d="M20.22 5.694v1.608h-8.039V5.694zM10.181 9.44a4.862 4.862 0 00-3.497-1.485H5.163c-1.319 0-2.56.528-3.498 1.486A5.04 5.04 0 00.22 12.984c0 .212.17.383.38.383h10.647c.21 0 .38-.171.38-.383a5.04 5.04 0 00-1.446-3.543z"/></symbol><symbol viewBox="0 0 16 23" id="arrow-up" xmlns="http://www.w3.org/2000/svg"><path d="M6.916 21.117a1 1 0 102 0h-2zM8.623.41a1 1 0 00-1.414 0L.845 6.774a1 1 0 001.414 1.414l5.657-5.657 5.657 5.657a1 1 0 101.414-1.414L8.623.41zm.293 20.707v-20h-2v20h2z"/></symbol><symbol viewBox="0 0 25 26" id="bell" xmlns="http://www.w3.org/2000/svg"><path d="M6.958 23.385c.783 1.357 2.556 2.307 4.615 2.307 2.058 0 3.832-.95 4.615-2.307h-9.23zm16.388-2.307H.956c-.423 0-.811-.279-.9-.683-.086-.4.1-.794.48-.965.09-.057.767-.519 1.446-1.916 1.245-2.566 1.507-6.18 1.507-8.761 0-4.657 3.886-8.444 8.662-8.444 4.765 0 8.643 3.77 8.661 8.41l.001.034c0 2.58.262 6.195 1.507 8.76.679 1.398 1.356 1.86 1.446 1.917.38.17.567.565.48.965-.089.404-.477.683-.9.683zm.43-1.642z"/></symbol><symbol viewBox="0 0 19 17" id="camera" xmlns="http://www.w3.org/2000/svg"><path d="M11.6 6.92a3.108 3.108 0 11-4.397 4.394A3.108 3.108 0 0111.6 6.92z"/><path d="M16.115 2.963H14.57l-.716-1.433A1.459 1.459 0 0012.55.726H6.258c-.552 0-1.055.31-1.303.804l-.717 1.433-1.545.003A2.243 2.243 0 00.46 5.203l-.004 8.945a2.24 2.24 0 002.237 2.237h13.422a2.24 2.24 0 002.237-2.237V5.2a2.239 2.239 0 00-2.237-2.237zM9.404 13.588A4.478 4.478 0 014.93 9.114 4.478 4.478 0 019.404 4.64a4.478 4.478 0 014.474 4.474 4.478 4.478 0 01-4.474 4.474z"/></symbol><symbol viewBox="0 0 9 8" id="check" xmlns="http://www.w3.org/2000/svg"><path d="M8.607.46C8.2.267 7.747.64 7.48.858c-.61.523-1.125 1.128-1.702 1.678-.64.605-1.233 1.211-1.891 1.802-.376.33-.781.688-1.032 1.101-.561-.48-1.046-1.004-1.671-1.429-.45-.305-1.2-.526-1.185.205.03.948.985 1.966 1.687 2.613.296.274.687.564 1.141.577.546.027 1.11-.55 1.437-.867.577-.55 1.047-1.168 1.578-1.732.686-.742 1.39-1.472 2.062-2.227.421-.47 1.748-1.625.702-2.119zM.687 4.159c-.015 0-.03 0-.061.013a.836.836 0 01-.171-.054c.046-.027.125-.013.232.04z"/></symbol><symbol viewBox="0 0 9 6" id="chevron-down" xmlns="http://www.w3.org/2000/svg"><path d="M4.5 5.423L0 .577h9L4.5 5.423z"/></symbol><symbol viewBox="0 0 6 10" id="chevron-left" xmlns="http://www.w3.org/2000/svg"><path d="M.573 4.947l4.846-4.5v9l-4.846-4.5z"/></symbol><symbol viewBox="0 0 18 18" id="chevron-right" xmlns="http://www.w3.org/2000/svg"><path d="M17.485 9.073L9 .588v16.97l8.485-8.485z"/></symbol><symbol viewBox="0 0 20 21" id="close" xmlns="http://www.w3.org/2000/svg"><path d="M17.535.979l2.466 2.436L2.467 20.742.001 18.305z"/><path d="M20 18.305l-2.466 2.437L0 3.415 2.466.978z"/></symbol><symbol viewBox="0 0 19 18" id="cog" xmlns="http://www.w3.org/2000/svg"><path d="M15.916 6.668l-.085-.03-.335-.799.036-.082c1.014-2.297.944-2.366.776-2.532l-1.352-1.318a.36.36 0 00-.236-.094c-.076 0-.306 0-2.302.904l-.08.036-.823-.332-.033-.081C10.543.016 10.447.016 10.214.016H8.305c-.232 0-.338 0-1.209 2.328l-.032.084-.82.334-.078-.032c-1.35-.57-2.14-.859-2.345-.859a.362.362 0 00-.236.092L2.232 3.285c-.171.17-.243.24.824 2.49l.039.084-.335.797-.082.032C.3 7.607.3 7.696.3 7.936v1.87c0 .24 0 .34 2.383 1.194l.085.03.335.795-.036.08c-1.013 2.3-.949 2.362-.777 2.533l1.35 1.32a.371.371 0 00.238.094c.075 0 .305 0 2.302-.904l.08-.037.824.333.032.082c.939 2.323 1.035 2.323 1.27 2.323h1.908c.24 0 .34 0 1.21-2.33l.033-.084.82-.332.078.032c1.35.571 2.138.86 2.342.86a.365.365 0 00.238-.093l1.355-1.325c.17-.17.241-.24-.827-2.487l-.04-.084.335-.794.08-.031C18.3 10.057 18.3 9.967 18.3 9.727V7.858c0-.24 0-.339-2.384-1.19zM9.3 11.865c-1.706 0-3.093-1.36-3.093-3.032S7.594 5.802 9.3 5.802c1.704 0 3.091 1.36 3.091 3.03 0 1.672-1.387 3.033-3.091 3.033z"/></symbol><symbol viewBox="0 0 13 14" id="copy" xmlns="http://www.w3.org/2000/svg"><path d="M9.142.766H.508A.508.508 0 000 1.274v8.634c0 .28.228.508.508.508h8.634c.28 0 .508-.228.508-.508V1.274a.508.508 0 00-.508-.508zM8.634 9.4H1.016V1.781h7.618V9.4zm3.049 1.779v1.27h-1.27v1.015h1.778c.28 0 .508-.227.508-.508V11.18h-1.016zM9.24 12.447H6.506v1.016h2.732v-1.016zm-5.176.001v-1.27H3.048v1.778c0 .28.227.508.508.508h1.777v-1.016h-1.27zm8.126-8.635h-1.777V4.83h1.27V6.1h1.016V4.321a.508.508 0 00-.508-.508zm.508 3.459h-1.015v2.733h1.015V7.272z"/></symbol><symbol viewBox="0 0 22 21" id="download" xmlns="http://www.w3.org/2000/svg"><path d="M20.68 10.093a.6.6 0 00-.602.605v5.495a2.707 2.707 0 01-2.699 2.708H4.168a2.707 2.707 0 01-2.699-2.707v-5.586a.6.6 0 00-.602-.604.6.6 0 00-.602.604v5.585a3.914 3.914 0 003.903 3.916h13.211a3.913 3.913 0 003.903-3.916v-5.495a.603.603 0 00-.602-.605z"/><path d="M14.178 10.617l-2.801 2.81V1.17a.6.6 0 00-.602-.604.6.6 0 00-.603.604v12.258l-2.8-2.81a.605.605 0 00-.424-.18.58.58 0 00-.424.18.604.604 0 000 .854l3.827 3.84a.608.608 0 00.424.18.58.58 0 00.423-.18l3.827-3.84a.601.601 0 10-.847-.855z"/></symbol><symbol viewBox="0 0 8 25" id="exclamation" xmlns="http://www.w3.org/2000/svg"><path d="M5.078 16.197H2.1L1.477 4.27h4.224l-.623 11.926zm-3.65 4.175c0-.684.183-1.2.55-1.55.366-.35.899-.526 1.599-.526.675 0 1.196.18 1.562.538.375.358.562.87.562 1.538 0 .643-.187 1.151-.562 1.526-.374.366-.895.549-1.562.549-.684 0-1.213-.18-1.587-.537-.375-.366-.562-.88-.562-1.538z"/><path d="M5.078 16.197H2.1L1.477 4.27h4.224l-.623 11.926zm-3.65 4.175c0-.684.183-1.2.55-1.55.366-.35.899-.526 1.599-.526.675 0 1.196.18 1.562.538.375.358.562.87.562 1.538 0 .643-.187 1.151-.562 1.526-.374.366-.895.549-1.562.549-.684 0-1.213-.18-1.587-.537-.375-.366-.562-.88-.562-1.538z"/></symbol><symbol viewBox="0 0 16 11" id="eye" xmlns="http://www.w3.org/2000/svg"><path d="M8.151.898C5.199.898 2.523 2.513.548 5.136a.612.612 0 000 .73c1.975 2.626 4.651 4.241 7.603 4.241 2.951 0 5.628-1.615 7.603-4.238a.611.611 0 000-.73C13.78 2.513 11.102.9 8.151.9zm.212 7.847a3.251 3.251 0 01-3.454-3.454 3.256 3.256 0 013.03-3.03 3.251 3.251 0 013.454 3.453 3.267 3.267 0 01-3.03 3.031zm-.098-1.498A1.747 1.747 0 016.407 5.39 1.757 1.757 0 018.04 3.755 1.747 1.747 0 019.9 5.613a1.757 1.757 0 01-1.634 1.634z"/></symbol><symbol viewBox="0 0 24 24" id="facebook" xmlns="http://www.w3.org/2000/svg"><path d="M15.997 3.985h2.191V.169C17.81.117 16.51 0 14.996 0c-3.159 0-5.323 1.987-5.323 5.639V9H6.187v4.266h3.486V24h4.274V13.267h3.345l.531-4.266h-3.877V6.062c.001-1.233.333-2.077 2.051-2.077z"/></symbol><symbol viewBox="0 0 15 15" id="filter" xmlns="http://www.w3.org/2000/svg"><path d="M5.32 6.857a.876.876 0 01.229.59v6.424c0 .387.466.583.743.312l1.792-2.054c.24-.288.372-.43.372-.715V7.448a.88.88 0 01.23-.59l5.142-5.58a.655.655 0 00-.481-1.097H.657a.654.654 0 00-.48 1.097l5.142 5.579z"/></symbol><symbol viewBox="0 0 25 26" id="google" xmlns="http://www.w3.org/2000/svg"><path d="M5.54 15.608l-.87 3.248-3.18.068A12.444 12.444 0 010 13c0-2.073.504-4.027 1.398-5.749l2.832.52 1.24 2.814A7.43 7.43 0 005.07 13c0 .918.166 1.797.47 2.608zm19.242-4.943a12.558 12.558 0 01-.055 4.945 12.497 12.497 0 01-4.401 7.138h-.001l-3.567-.183-.505-3.15a7.45 7.45 0 003.206-3.805h-6.684v-4.945h12.007z"/><path d="M20.325 22.747v.001A12.447 12.447 0 0112.5 25.5c-4.76 0-8.899-2.66-11.01-6.576l4.05-3.316a7.432 7.432 0 0010.713 3.806l4.072 3.333zm.154-19.369l-4.05 3.315A7.435 7.435 0 005.47 10.585L1.398 7.251A12.498 12.498 0 0112.5.5c3.033 0 5.814 1.08 7.979 2.878z"/></symbol><symbol viewBox="0 0 24 21" id="interpreting" xmlns="http://www.w3.org/2000/svg"><path d="M8.852 3.235c-.055-.201-.31-.293-.567-.293-.237 0-.493.092-.548.293L6.457 7.42c0 .018-.018.055-.018.073 0 .22.311.366.549.366.146 0 .256-.055.292-.165l.256-.877h1.517l.256.877c.036.128.146.165.292.165.238 0 .549-.146.549-.366 0-.018 0-.036-.019-.073L8.852 3.235zm-1.133 2.87l.585-2.048.585 2.047h-1.17z"/><path d="M18.74 7.84h-2.632V5.283C16.108 1.645 13.476 0 10.844 0h-5.28C2.93 0 .299 1.407.299 5.282c0 3.783 2.632 5.264 5.264 5.264h2.631c.183 0 .348.018.512.055-.329.694-.512 1.535-.512 2.503v2.632A5.265 5.265 0 0013.458 21a2.633 2.633 0 012.632-2.632h2.632c2.632 0 5.263-1.48 5.263-5.264.037-3.874-2.613-5.263-5.245-5.263zM8.213 9.158h-2.65c-1.17 0-3.875-.384-3.875-3.875 0-1.353.384-2.376 1.151-3.016.658-.548 1.627-.859 2.724-.859h5.282c1.864 0 3.874 1.024 3.874 3.875v2.632c0 .457-.073.914-.237 1.316a3.89 3.89 0 01-2.56 2.394 4.199 4.199 0 00-1.114-1.517 3.937 3.937 0 00-1.261-.731 4.006 4.006 0 00-1.334-.22zM18.74 16.98h-2.632c-1.681 0-3.107 1.024-3.728 2.486a3.877 3.877 0 01-2.778-3.729v-2.632c0-.749.128-1.37.365-1.882.53.475.86 1.188.86 1.956a5.276 5.276 0 005.098-3.948h2.797c1.096 0 2.065.31 2.723.859.768.64 1.151 1.663 1.151 3.015.019 3.51-2.686 3.875-3.856 3.875z"/><path d="M15.67 13.177h4.35a.655.655 0 00.657-.658.655.655 0 00-.657-.658h-4.35a.655.655 0 00-.658.658c.018.366.31.658.658.658zm5.007 1.353a.655.655 0 00-.657-.658h-7.11a.655.655 0 00-.658.658c0 .366.292.658.658.658h7.11a.655.655 0 00.657-.658z"/></symbol><symbol viewBox="0 0 19 16" id="log-out" xmlns="http://www.w3.org/2000/svg"><path d="M7.647 13.955a.299.299 0 01-.024-.155c.008-.042-.019-.077-.08-.103-.061-.027-.092-.048-.092-.063 0-.016-.044-.027-.132-.035l-.132-.011H3.606a1.77 1.77 0 01-1.298-.54c-.36-.36-.54-.792-.54-1.297V3.669c0-.505.18-.937.54-1.297.36-.36.793-.54 1.298-.54h3.673c.1 0 .178-.024.235-.074a.381.381 0 00.115-.224A1.933 1.933 0 007.658.96a5.278 5.278 0 01-.012-.23.352.352 0 00-.109-.258.354.354 0 00-.257-.109H3.606c-.911 0-1.69.324-2.336.97A3.184 3.184 0 00.3 3.67v8.082c0 .91.323 1.69.97 2.336.646.647 1.425.97 2.336.97h3.673c.1 0 .178-.025.236-.074a.382.382 0 00.114-.224 1.937 1.937 0 00.029-.574 5.167 5.167 0 01-.011-.23z"/><path d="M18.081 7.194L11.836.949A.706.706 0 0011.32.73a.707.707 0 00-.517.219.706.706 0 00-.218.516v3.306H5.442c-.2 0-.371.073-.517.218a.706.706 0 00-.218.517v4.408c0 .2.073.372.218.517a.707.707 0 00.517.218h5.143v3.306c0 .2.073.371.218.517a.706.706 0 00.517.218.706.706 0 00.516-.218l6.245-6.245a.706.706 0 00.218-.517.707.707 0 00-.218-.516z"/></symbol><symbol viewBox="0 0 15 3" id="minus" xmlns="http://www.w3.org/2000/svg"><path d="M14.453.154v2h-14v-2z"/></symbol><symbol viewBox="0 0 11 14" id="pause" xmlns="http://www.w3.org/2000/svg"><path d="M6.764 0h3.04c.19 0 .343.153.343.343v13.315a.343.343 0 01-.343.342h-3.04a.343.343 0 01-.342-.342V.343c0-.19.153-.343.342-.343zM.343 0h3.04c.188 0 .342.153.342.343v13.315a.343.343 0 01-.343.342H.342A.343.343 0 010 13.658V.343C0 .153.153 0 .343 0z"/></symbol><symbol viewBox="0 0 13 13" id="pencil" xmlns="http://www.w3.org/2000/svg"><path d="M7.934 2.368l2.44 2.453-6.178 6.21-2.44-2.454 6.178-6.21zm4.293-.592L11.138.682a1.077 1.077 0 00-1.526 0L8.57 1.73l2.44 2.453 1.217-1.222a.839.839 0 000-1.185zM.478 12.026c-.044.2.137.38.337.331l2.72-.663-2.44-2.453-.617 2.784z"/></symbol><symbol viewBox="0 0 11 11" id="plus" xmlns="http://www.w3.org/2000/svg"><path d="M4.983.74h2v10h-2z"/><path d="M10.984 4.74v2h-10v-2z"/></symbol><symbol viewBox="0 0 18 18" id="search" xmlns="http://www.w3.org/2000/svg"><path d="M17.726 16.395L13.29 11.94a7.095 7.095 0 001.766-4.673C15.055 3.26 11.678 0 7.528 0 3.377 0 0 3.26 0 7.267c0 4.008 3.377 7.268 7.528 7.268a7.632 7.632 0 004.312-1.315l4.471 4.49c.187.187.438.29.708.29a.995.995 0 00.68-.265.926.926 0 00.027-1.34zM7.528 1.895c3.067 0 5.563 2.41 5.563 5.372 0 2.962-2.495 5.372-5.563 5.372-3.068 0-5.564-2.41-5.564-5.372 0-2.961 2.496-5.371 5.564-5.371z"/></symbol><symbol viewBox="0 0 15 4" id="three-dots" xmlns="http://www.w3.org/2000/svg"><circle cx="1.5" cy="1.945" r="1.5"/><circle cx="7.5" cy="1.945" r="1.5"/><circle cx="13.5" cy="1.945" r="1.5"/></symbol><symbol viewBox="0 0 12 15" id="triangle-right" xmlns="http://www.w3.org/2000/svg"><path d="M.558 14.66a.636.636 0 00.646-.018L11.386 8.28a.636.636 0 000-1.08L1.204.837a.636.636 0 00-.974.54v12.727c0 .231.126.444.328.556z"/></symbol><symbol viewBox="0 0 515.556 515.556" id="warning" xmlns="http://www.w3.org/2000/svg"><path d="M257.778 0C115.641 0 0 115.641 0 257.778s115.641 257.778 257.778 257.778 257.778-115.641 257.778-257.778S399.914 0 257.778 0zM290 386.667h-64.444v-64.444H290zm.002-96.667h-64.444V128.889h64.444z"/></symbol></svg>