<svg width="16" height="23" viewBox="0 0 16 23" fill="none" xmlns="http://www.w3.org/2000/svg">
<path d="M6.91602 21.1172C6.91602 21.6695 7.36373 22.1172 7.91602 22.1172C8.4683 22.1172 8.91602 21.6695 8.91602 21.1172L6.91602 21.1172ZM8.62312 0.41008C8.2326 0.019556 7.59943 0.0195561 7.20891 0.41008L0.844947 6.77404C0.454423 7.16457 0.454423 7.79773 0.844947 8.18826C1.23547 8.57878 1.86864 8.57878 2.25916 8.18826L7.91601 2.5314L13.5729 8.18826C13.9634 8.57878 14.5966 8.57878 14.9871 8.18826C15.3776 7.79773 15.3776 7.16457 14.9871 6.77404L8.62312 0.41008ZM8.91602 21.1172L8.91601 1.11719L6.91601 1.11719L6.91602 21.1172L8.91602 21.1172Z" fill="#0E7D7D"/>
</svg>
