<svg width="25" height="26" viewBox="0 0 25 26" fill="none" xmlns="http://www.w3.org/2000/svg">
<path d="M6.95752 23.3848C7.74112 24.7423 9.51448 25.6925 11.5729 25.6925C13.6313 25.6925 15.4046 24.7423 16.1883 23.3848H6.95752Z" fill="#0E7D7D"/>
<path d="M23.3456 21.0778H0.956449C0.532875 21.0778 0.144888 20.7994 0.0567879 20.3954C-0.030415 19.9955 0.156551 19.6007 0.535866 19.4299C0.62588 19.373 1.30341 18.9112 1.98171 17.5138C3.22749 14.9478 3.48898 11.3331 3.48898 8.75254C3.48898 4.09647 7.37466 0.308594 12.1507 0.308594C16.9155 0.308594 20.794 4.07822 20.8124 8.71901C20.8128 8.73015 20.8131 8.74134 20.8131 8.75254C20.8131 11.3331 21.0745 14.9478 22.3203 17.5138C22.9986 18.9112 23.6761 19.3731 23.7662 19.4299C24.1455 19.6007 24.3325 19.9954 24.2452 20.3954C24.1571 20.7993 23.7692 21.0778 23.3456 21.0778ZM23.7762 19.4361H23.7768H23.7762Z" fill="#0E7D7D"/>
</svg>
