<svg width="25" height="26" viewBox="0 0 25 26" fill="none" xmlns="http://www.w3.org/2000/svg">
<path d="M5.54053 15.6079L4.67031 18.8565L1.4897 18.9238C0.53916 17.1608 0 15.1437 0 13.0001C0 10.9273 0.504102 8.97261 1.39766 7.25146H1.39834L4.22998 7.7706L5.47041 10.5853C5.21079 11.3421 5.06929 12.1546 5.06929 13.0001C5.06938 13.9177 5.2356 14.7968 5.54053 15.6079Z" fill="white"/>
<path d="M24.7816 10.6648C24.9252 11.4209 25 12.2019 25 13C25 13.8949 24.9059 14.7678 24.7267 15.6099C24.1182 18.4752 22.5282 20.9773 20.3256 22.7479L20.3249 22.7472L16.7583 22.5652L16.2535 19.4141C17.715 18.557 18.8572 17.2156 19.4589 15.6099H12.7748V10.6648H19.5564H24.7816Z" fill="white"/>
<path d="M20.3248 22.7473L20.3255 22.748C18.1834 24.4698 15.4622 25.5 12.5 25.5C7.73969 25.5 3.60096 22.8394 1.48969 18.9238L5.54051 15.6079C6.59613 18.4252 9.31385 20.4307 12.5 20.4307C13.8695 20.4307 15.1525 20.0605 16.2534 19.4142L20.3248 22.7473Z" fill="white"/>
<path d="M20.4787 3.37773L16.4292 6.69297C15.2898 5.98076 13.943 5.56934 12.5 5.56934C9.24174 5.56934 6.47318 7.66685 5.47045 10.5852L1.39833 7.25137H1.39764C3.47802 3.24038 7.66893 0.5 12.5 0.5C15.5329 0.5 18.3139 1.58037 20.4787 3.37773Z" fill="white"/>
</svg>
