<svg width="18" height="19" viewBox="0 0 18 19" fill="none" xmlns="http://www.w3.org/2000/svg">
<path d="M5.05135 15.3285L5.70486 15.6778C6.71761 16.2193 7.8486 16.5017 8.99699 16.5L9.00001 16.5C12.8661 16.5 16 13.3661 16 9.5C16 5.63387 12.8661 2.5 9.00001 2.5C5.13388 2.5 2.00001 5.63387 2.00001 9.5V9.50301C1.99828 10.6514 2.28073 11.7824 2.82217 12.7951L3.17155 13.4486L2.63433 15.8657L5.05135 15.3285ZM1.01578e-05 18.5L1.05841 13.7381C0.361389 12.4343 -0.00221566 10.9784 1.01578e-05 9.5C1.01578e-05 4.5293 4.02931 0.5 9.00001 0.5C13.9707 0.5 18 4.5293 18 9.5C18 14.4707 13.9707 18.5 9.00001 18.5C7.52162 18.5022 6.06566 18.1386 4.76191 17.4416L1.01578e-05 18.5Z" fill="#0E7D7D"/>
</svg>
