<svg width="28" height="24" viewBox="0 0 28 24" fill="none" xmlns="http://www.w3.org/2000/svg">
<path d="M9.77573 3.697C9.71307 3.46723 9.42064 3.36279 9.12822 3.36279C8.85668 3.36279 8.56425 3.46723 8.50158 3.697L7.03944 8.48029C7.03944 8.50117 7.01855 8.54295 7.01855 8.56384C7.01855 8.81449 7.37365 8.98159 7.64519 8.98159C7.81229 8.98159 7.93762 8.91893 7.97939 8.7936L8.27182 7.79099H10.0055L10.2979 8.7936C10.3397 8.93982 10.465 8.98159 10.6321 8.98159C10.9037 8.98159 11.2588 8.81449 11.2588 8.56384C11.2588 8.54295 11.2588 8.52206 11.2379 8.48029L9.77573 3.697ZM8.4807 6.97637L9.1491 4.63694L9.81751 6.97637H8.4807Z" fill="#787878"/>
<path d="M21.0757 8.96083H18.0679V6.03655C18.0679 1.8799 15.0601 0 12.0522 0H6.01567C3.00783 0 0 1.60835 0 6.03655C0 10.3603 3.00783 12.0522 6.01567 12.0522H9.0235C9.23238 12.0522 9.42037 12.0731 9.60835 12.1149C9.23238 12.9086 9.0235 13.8695 9.0235 14.9765V17.9843C9.0235 21.3055 11.718 24 15.0392 24C15.0392 22.329 16.3969 20.9922 18.047 20.9922H21.0548C24.0627 20.9922 27.0705 19.3003 27.0705 14.9765C27.1123 10.5483 24.0836 8.96083 21.0757 8.96083ZM9.04439 10.4648H6.01567C4.67885 10.4648 1.58747 10.0261 1.58747 6.03655C1.58747 4.49086 2.02611 3.32115 2.90339 2.59008C3.65535 1.96345 4.7624 1.60836 6.01567 1.60836H12.0522C14.1828 1.60836 16.4804 2.77807 16.4804 6.03655V8.96083V9.04439C16.4804 9.56658 16.3969 10.0888 16.2089 10.5483C15.7285 11.8642 14.6423 12.8877 13.2846 13.2846C12.9922 12.6162 12.5535 12.0104 12.0104 11.5509C11.5927 11.1958 11.1123 10.9034 10.5692 10.7154C10.0888 10.5483 9.58747 10.4648 9.04439 10.4648ZM21.0757 19.4047H18.0679C16.1462 19.4047 14.517 20.5744 13.8068 22.2454C11.9687 21.7023 10.6319 20.0104 10.6319 17.9843V14.9765C10.6319 14.1201 10.7781 13.4099 11.0496 12.8251C11.6554 13.3681 12.0313 14.1828 12.0313 15.0601C14.8303 15.0601 17.1906 13.1384 17.859 10.5483H21.0548C22.3081 10.5483 23.4151 10.9034 24.1671 11.53C25.0444 12.2611 25.483 13.4308 25.483 14.9765C25.5039 18.9869 22.4125 19.4047 21.0757 19.4047Z" fill="#787878"/>
<path d="M17.5666 15.0601H22.5379C22.9556 15.0601 23.2898 14.7259 23.2898 14.3081C23.2898 13.8904 22.9556 13.5562 22.5379 13.5562H17.5666C17.1488 13.5562 16.8146 13.8904 16.8146 14.3081C16.8355 14.7259 17.1697 15.0601 17.5666 15.0601Z" fill="#787878"/>
<path d="M23.2895 16.606C23.2895 16.1882 22.9553 15.854 22.5376 15.854H14.4122C13.9945 15.854 13.6603 16.1882 13.6603 16.606C13.6603 17.0237 13.9945 17.3579 14.4122 17.3579H22.5376C22.9553 17.3579 23.2895 17.0237 23.2895 16.606Z" fill="#787878"/>
</svg>
