<svg width="24" height="24" viewBox="0 0 24 24" fill="none" xmlns="http://www.w3.org/2000/svg">
<path d="M17.4789 14.4454C17.417 14.2184 17.1281 14.1152 16.8392 14.1152C16.5709 14.1152 16.282 14.2184 16.2201 14.4454L14.7756 19.1711C14.7756 19.1918 14.7549 19.233 14.7549 19.2537C14.7549 19.5013 15.1058 19.6664 15.374 19.6664C15.5391 19.6664 15.6629 19.6045 15.7042 19.4807L15.9931 18.4901H17.7059L17.9948 19.4807C18.0361 19.6251 18.1599 19.6664 18.325 19.6664C18.5933 19.6664 18.9441 19.5013 18.9441 19.2537C18.9441 19.233 18.9441 19.2124 18.9235 19.1711L17.4789 14.4454ZM16.1995 17.6853L16.8598 15.374L17.4996 17.6853H16.1995Z" fill="#787878"/>
<path d="M21.3586 9.80224H14.1771V6.72743L16.509 5.05589C16.6948 4.93207 16.7979 4.70507 16.7979 4.47807C16.7979 4.25108 16.6948 4.04471 16.509 3.90026L14.1359 2.20808C13.9501 0.969905 12.877 0 11.577 0H2.57954C1.15563 0 0 1.15563 0 2.57954V11.5976C0 13.0215 1.15563 14.1771 2.57954 14.1771H9.76096V17.2726L7.42906 18.9441C7.24334 19.0679 7.14016 19.2949 7.14016 19.5219C7.14016 19.7489 7.24334 19.9553 7.42906 20.0997L9.80224 21.7919C9.98796 23.0301 11.061 24 12.3611 24H21.3792C22.8031 24 23.9587 22.8444 23.9587 21.4205V12.3818C23.9381 10.9579 22.7825 9.80224 21.3586 9.80224ZM2.57954 12.7945C1.93981 12.7945 1.40327 12.258 1.40327 11.6182V2.60017C1.40327 1.96045 1.93981 1.4239 2.57954 1.4239H11.5976C12.2373 1.4239 12.7739 1.96045 12.7739 2.60017C12.7739 2.82717 12.877 3.03353 13.0628 3.17799L14.8994 4.47807L13.0628 5.77816C12.877 5.90198 12.7739 6.12898 12.7739 6.35598V9.7816H12.3405C10.9166 9.7816 9.76096 10.9372 9.76096 12.3611V12.7945H2.57954ZM22.5348 21.3792C22.5348 22.0189 21.9983 22.5555 21.3586 22.5555H12.3405C11.7008 22.5555 11.1642 22.0189 11.1642 21.3792C11.1642 21.1522 11.0611 20.9458 10.8753 20.8014L9.03869 19.5013L10.8753 18.2012C11.0611 18.0774 11.1642 17.8504 11.1642 17.6234V12.3818C11.1642 11.742 11.7008 11.2055 12.3405 11.2055H13.4549H21.3379C21.9776 11.2055 22.5142 11.742 22.5142 12.3818V21.3792H22.5348Z" fill="#787878"/>
<path d="M9.24535 6.50042C9.47235 6.50042 9.63744 6.3147 9.63744 6.10833C9.63744 5.90197 9.45171 5.71624 9.24535 5.71624H7.49126V4.74634C7.49126 4.51934 7.30554 4.35425 7.09918 4.35425C6.87218 4.35425 6.70709 4.53997 6.70709 4.74634V5.71624H4.953C4.726 5.71624 4.56091 5.90197 4.56091 6.10833C4.56091 6.3147 4.74664 6.50042 4.953 6.50042H5.48955C5.57209 7.32587 5.94354 8.08942 6.48009 8.66723C6.02609 8.93551 5.51018 9.1006 4.953 9.1006C4.726 9.1006 4.56091 9.28632 4.56091 9.49269C4.56091 9.69905 4.74664 9.88478 4.953 9.88478C5.75782 9.88478 6.50072 9.63714 7.09918 9.20378C7.71826 9.63714 8.46117 9.88478 9.24535 9.88478C9.47235 9.88478 9.63744 9.69905 9.63744 9.49269C9.63744 9.28632 9.45171 9.1006 9.24535 9.1006C8.68817 9.1006 8.15163 8.93551 7.71826 8.66723C8.25481 8.08942 8.62626 7.32587 8.70881 6.50042H9.24535ZM7.07854 8.17196C6.64518 7.71796 6.35627 7.14015 6.27372 6.50042H7.90399C7.80081 7.14015 7.5119 7.71796 7.07854 8.17196Z" fill="#787878"/>
</svg>
