<svg width="18" height="10" viewBox="0 0 18 10" fill="none" xmlns="http://www.w3.org/2000/svg">
<path d="M17.5641 2.07097C17.5642 1.55364 17.1273 1.13434 16.5884 1.13434C16.3982 1.13434 16.2055 1.19026 16.0471 1.2916C15.0286 1.94327 13.8581 2.2684 12.6852 2.26862C11.5125 2.26845 10.3419 1.94327 9.32337 1.2916C9.3232 1.29149 9.32291 1.29138 9.32267 1.29121C7.97785 0.430741 6.42729 -0.000224256 4.87894 8.75431e-08C3.33036 -0.00016817 1.77956 0.430852 0.434504 1.2916L0.434562 1.29172C0.172609 1.45969 0 1.74584 0 2.07092C0 2.58814 0.4369 3.0075 0.975765 3.0075C1.16602 3.0075 1.35873 2.95147 1.51708 2.85018C2.53562 2.19851 3.70614 1.87338 4.87888 1.87316C6.05162 1.87333 7.2222 2.19851 8.24074 2.85018C9.58574 3.71093 11.1365 4.14201 12.6851 4.14178C14.2337 4.14195 15.7845 3.71087 17.1295 2.85018L17.1294 2.85012C17.3915 2.6822 17.5641 2.39605 17.5641 2.07097Z" fill="#0E7D7D"/>
<path d="M17.5641 7.70086C17.5642 7.18346 17.1273 6.76422 16.5884 6.76422C16.3982 6.76422 16.2055 6.82014 16.0471 6.92149C15.0286 7.57315 13.8581 7.89828 12.6852 7.8985C11.5125 7.89834 10.3419 7.57315 9.32337 6.92149C9.3232 6.92137 9.32291 6.92126 9.32267 6.92109C7.97785 6.06062 6.42729 5.62966 4.87894 5.62988C3.33036 5.62971 1.77956 6.06079 0.434562 6.92149L0.434621 6.9216C0.172668 7.08958 0 7.37573 0 7.7008C0 8.21803 0.4369 8.63738 0.975765 8.63738C1.16602 8.63738 1.35867 8.58135 1.51708 8.48011C2.53568 7.82845 3.70614 7.50327 4.87888 7.50304C6.05162 7.50321 7.2222 7.8284 8.24074 8.48006C9.58574 9.34081 11.1365 9.77189 12.6851 9.77166C14.2337 9.77183 15.7845 9.34075 17.1295 8.48006L17.1294 8.48C17.3915 8.31208 17.5641 8.02593 17.5641 7.70086Z" fill="#0E7D7D"/>
</svg>
