<svg width="15" height="14" viewBox="0 0 15 14" fill="none" xmlns="http://www.w3.org/2000/svg">
<path d="M14.3453 0.0999239C13.6688 -0.258985 12.9116 0.433792 12.4692 0.838608C11.4525 1.811 10.5931 2.93363 9.63169 3.9561C8.56391 5.07874 7.57696 6.20554 6.4794 7.30314C5.85404 7.91662 5.17764 8.58018 4.76074 9.34808C3.82483 8.45498 3.01655 7.48259 1.97429 6.69383C1.22557 6.12625 -0.02514 5.71726 0.000384667 7.0736C0.051434 8.83476 1.64247 10.7253 2.81235 11.9272C3.30583 12.4364 3.95671 12.9747 4.71394 12.9998C5.62432 13.0498 6.56448 11.9773 7.10901 11.3889C8.07044 10.3664 8.85319 9.21871 9.73805 8.17119C10.8824 6.79399 12.0565 5.43765 13.1754 4.0354C13.8773 3.16317 16.0894 1.01806 14.3453 0.0999239ZM1.14474 6.96927C1.11922 6.96927 1.09369 6.96927 1.04264 6.99431C0.940544 6.96927 0.859715 6.94423 0.757617 6.89415C0.834191 6.84407 0.966068 6.86911 1.14474 6.96927Z" fill="#00C868"/>
</svg>
