<svg width="16" height="17" viewBox="0 0 16 17" fill="none" xmlns="http://www.w3.org/2000/svg">
<path d="M12.1667 16.8337H3.83333C2.91286 16.8337 2.16667 16.0875 2.16667 15.167V4.33366H0.5V2.66699H3.83333V1.83366C3.83333 0.913184 4.57953 0.166992 5.5 0.166992H10.5C11.4205 0.166992 12.1667 0.913184 12.1667 1.83366V2.66699H15.5V4.33366H13.8333V15.167C13.8333 16.0875 13.0871 16.8337 12.1667 16.8337ZM3.83333 4.33366V15.167H12.1667V4.33366H3.83333ZM5.5 1.83366V2.66699H10.5V1.83366H5.5ZM10.5 13.5003H8.83333V6.00033H10.5V13.5003ZM7.16667 13.5003H5.5V6.00033H7.16667V13.5003Z" fill="#C1272D"/>
</svg>
