<svg width="16" height="20" viewBox="0 0 16 20" fill="none" xmlns="http://www.w3.org/2000/svg">
<path d="M14 19.9999H2C0.89543 19.9999 0 19.1045 0 17.9999V1.99989C0 0.895325 0.89543 -0.000105089 2 -0.000105089H9C9.00896 -0.00126705 9.01804 -0.00126705 9.027 -0.000105089H9.033C9.04244 0.00285297 9.05216 0.0048629 9.062 0.00589491C9.15018 0.0115481 9.23725 0.0286931 9.321 0.0568949H9.336H9.351H9.363C9.38145 0.0698207 9.39884 0.0841998 9.415 0.0998949C9.52394 0.148318 9.62321 0.216079 9.708 0.299895L15.708 6.2999C15.7918 6.38468 15.8596 6.48395 15.908 6.5929C15.917 6.6149 15.924 6.6359 15.931 6.6589V6.67289V6.68689C15.9589 6.77029 15.9754 6.85708 15.98 6.9449C15.9809 6.95486 15.9832 6.96463 15.987 6.9739V6.9799C15.9921 6.98605 15.9964 6.99276 16 6.9999V17.9999C16 19.1045 15.1046 19.9999 14 19.9999ZM2 1.99989V17.9999H14V7.9999H9C8.44771 7.9999 8 7.55218 8 6.9999V1.99989H2ZM10 3.41389V5.9999H12.586L10 3.41389ZM9 15.9999H7V13.9999H5V11.9999H7V9.9999H9V11.9999H11V13.9999H9V15.9999Z" fill="#0E7D7D"/>
</svg>
