<svg width="17" height="17" viewBox="0 0 17 17" fill="none" xmlns="http://www.w3.org/2000/svg">
<path d="M13.2619 16.8327C11.8174 16.8327 10.5151 15.9625 9.96229 14.628C9.4095 13.2934 9.71506 11.7573 10.7365 10.7359C11.7579 9.71445 13.294 9.40889 14.6286 9.96168C15.9631 10.5145 16.8333 11.8167 16.8333 13.2613C16.8333 14.2085 16.457 15.1169 15.7872 15.7866C15.1175 16.4564 14.2091 16.8327 13.2619 16.8327ZM3.73805 16.8327C1.76561 16.8327 0.166626 15.2337 0.166626 13.2613C0.166626 11.2888 1.76561 9.68982 3.73805 9.68982C5.7105 9.68982 7.30948 11.2888 7.30948 13.2613C7.30948 14.2085 6.93321 15.1169 6.26344 15.7866C5.59366 16.4564 4.68526 16.8327 3.73805 16.8327ZM13.2619 7.30887C11.2894 7.30887 9.69043 5.70989 9.69043 3.73744C9.69043 1.765 11.2894 0.166016 13.2619 0.166016C15.2343 0.166016 16.8333 1.765 16.8333 3.73744C16.8333 5.70989 15.2343 7.30887 13.2619 7.30887ZM3.73805 7.30887C1.76561 7.30887 0.166626 5.70989 0.166626 3.73744C0.166626 1.765 1.76561 0.166016 3.73805 0.166016C5.7105 0.166016 7.30948 1.765 7.30948 3.73744C7.30948 4.68465 6.93321 5.59305 6.26344 6.26283C5.59366 6.9326 4.68526 7.30887 3.73805 7.30887Z" fill="white"/>
</svg>
