<svg width="14" height="18" viewBox="0 0 14 18" fill="none" xmlns="http://www.w3.org/2000/svg">
<path d="M12.0007 17.3334H2.00065C1.08018 17.3334 0.333984 16.5872 0.333984 15.6667V2.33341C0.333984 1.41293 1.08018 0.666742 2.00065 0.666742H7.83398C7.84145 0.665774 7.84902 0.665774 7.85648 0.666742H7.86148C7.86935 0.669207 7.87745 0.670882 7.88565 0.671742C7.95914 0.676453 8.0317 0.69074 8.10148 0.714242H8.11398H8.12648H8.13648C8.15186 0.725013 8.16635 0.736996 8.17982 0.750075C8.2706 0.790428 8.35333 0.846896 8.42398 0.916742L13.424 5.91674C13.4938 5.9874 13.5503 6.07012 13.5906 6.16091C13.5981 6.17924 13.604 6.19674 13.6098 6.21591V6.22758V6.23924C13.6331 6.30873 13.6468 6.38106 13.6507 6.45424C13.6514 6.46254 13.6533 6.47069 13.6565 6.47841V6.48341C13.6607 6.48853 13.6644 6.49413 13.6673 6.50008V15.6667C13.6673 16.5872 12.9211 17.3334 12.0007 17.3334ZM2.00065 2.33341V15.6667H12.0007V7.33341H7.83398C7.37375 7.33341 7.00065 6.96031 7.00065 6.50008V2.33341H2.00065ZM8.66732 3.51174V5.66674H10.8223L8.66732 3.51174ZM7.83398 14.0001H6.16732V12.3334H4.50065V10.6667H6.16732V9.00008H7.83398V10.6667H9.50065V12.3334H7.83398V14.0001Z" fill="white"/>
</svg>
