<svg width="17" height="21" viewBox="0 0 17 21" fill="none" xmlns="http://www.w3.org/2000/svg">
<path d="M8.42578 20.5C7.32183 20.4946 6.4267 19.6039 6.41578 18.5H10.4158C10.4179 18.7674 10.3669 19.0325 10.2658 19.28C10.0034 19.882 9.46759 20.3211 8.82578 20.46H8.82078H8.80578H8.78778H8.77878C8.6626 20.4842 8.54443 20.4976 8.42578 20.5ZM16.4258 17.5H0.425781V15.5L2.42578 14.5V9C2.3731 7.58912 2.69172 6.18913 3.34978 4.94C4.00482 3.78151 5.12448 2.95888 6.42578 2.68V0.5H10.4258V2.68C13.0048 3.294 14.4258 5.538 14.4258 9V14.5L16.4258 15.5V17.5Z" fill="#0E7D7D"/>
</svg>
