<svg width="20" height="20" viewBox="0 0 20 20" fill="none" xmlns="http://www.w3.org/2000/svg">
<path d="M10.0001 18.3337C5.39771 18.3337 1.66675 14.6027 1.66675 10.0003C1.66675 5.39795 5.39771 1.66699 10.0001 1.66699C14.6025 1.66699 18.3334 5.39795 18.3334 10.0003C18.3284 14.6006 14.6004 18.3286 10.0001 18.3337ZM10.0001 3.33366C6.31818 3.33366 3.33341 6.31843 3.33341 10.0003C3.33341 13.6822 6.31818 16.667 10.0001 16.667C13.682 16.667 16.6667 13.6822 16.6667 10.0003C16.6626 6.32014 13.6803 3.33779 10.0001 3.33366ZM14.1667 10.8337H9.16675V5.83366H10.8334V9.16699H14.1667V10.8337Z" fill="#E7A400"/>
</svg>
