<svg width="14" height="14" viewBox="0 0 14 14" fill="none" xmlns="http://www.w3.org/2000/svg">
<path d="M13.3109 12.7518L9.97886 9.28631C10.8356 8.26788 11.305 6.98648 11.305 5.65249C11.305 2.53576 8.76923 0 5.65249 0C2.53576 0 0 2.53576 0 5.65249C0 8.76923 2.53576 11.305 5.65249 11.305C6.82256 11.305 7.93758 10.9521 8.89088 10.2821L12.2482 13.7739C12.3885 13.9196 12.5773 14 12.7796 14C12.971 14 13.1526 13.927 13.2905 13.7943C13.5834 13.5124 13.5928 13.045 13.3109 12.7518ZM5.65249 1.47456C7.95625 1.47456 9.83042 3.34873 9.83042 5.65249C9.83042 7.95625 7.95625 9.83043 5.65249 9.83043C3.34873 9.83043 1.47456 7.95625 1.47456 5.65249C1.47456 3.34873 3.34873 1.47456 5.65249 1.47456Z" fill="#0E7D7D"/>
</svg>
