<svg width="11" height="9" viewBox="0 0 11 9" fill="none" xmlns="http://www.w3.org/2000/svg">
<path d="M9.93021 0.0691703C9.46199 -0.179277 8.93781 0.300284 8.63155 0.580509C7.92773 1.25363 7.33288 2.03075 6.66735 2.73853C5.9282 3.51565 5.245 4.29566 4.48523 5.05545C4.05234 5.48012 3.58412 5.93946 3.29552 6.47102C2.64766 5.85279 2.08815 5.17967 1.36666 4.63367C0.848376 4.24077 -0.0174027 3.95766 0.000266278 4.89656C0.0356042 6.11568 1.13697 7.42436 1.94679 8.25637C2.28839 8.60882 2.73895 8.98149 3.26313 8.99883C3.89332 9.03349 4.54413 8.29104 4.92107 7.8837C5.5866 7.17592 6.12845 6.38146 6.74097 5.65634C7.53313 4.703 8.3459 3.7641 9.12039 2.79342C9.60628 2.18964 11.1376 0.704733 9.93021 0.0691703ZM0.792424 4.82434C0.774755 4.82434 0.757086 4.82434 0.721748 4.84167C0.651072 4.82434 0.595121 4.807 0.524445 4.77233C0.577452 4.73767 0.668741 4.755 0.792424 4.82434Z" fill="white"/>
</svg>
