<svg width="20" height="20" viewBox="0 0 20 20" fill="none" xmlns="http://www.w3.org/2000/svg">
<path d="M3.33268 15.8335H1.66602C1.66602 13.0721 3.90459 10.8335 6.66602 10.8335C9.42744 10.8335 11.666 13.0721 11.666 15.8335H9.99935C9.99935 13.9925 8.50696 12.5002 6.66602 12.5002C4.82507 12.5002 3.33268 13.9925 3.33268 15.8335ZM13.3277 12.8418L11.0727 10.5918L12.2493 9.41016L13.326 10.4868L16.9093 6.91016L18.086 8.09016L13.326 12.8402L13.3277 12.8418ZM6.66602 10.0002C4.82507 10.0002 3.33268 8.50778 3.33268 6.66683C3.33268 4.82588 4.82507 3.3335 6.66602 3.3335C8.50696 3.3335 9.99935 4.82588 9.99935 6.66683C9.99705 8.50683 8.50601 9.99787 6.66602 10.0002ZM6.66602 5.00016C5.75551 5.00109 5.01426 5.73254 5.00121 6.64295C4.98816 7.55336 5.70815 8.30575 6.61826 8.33276C7.52836 8.35978 8.29171 7.65141 8.33268 6.74183V7.07516V6.66683C8.33268 5.74635 7.58649 5.00016 6.66602 5.00016Z" fill="#0E7D7D"/>
</svg>
