<svg width="14" height="13" viewBox="0 0 14 13" fill="none" xmlns="http://www.w3.org/2000/svg">
<path d="M1.52395 12.6636C1.33155 12.6632 1.14813 12.5821 1.01845 12.44C0.886374 12.299 0.820746 12.1083 0.838056 11.9159L1.0061 10.0681L8.7691 2.30788L11.1951 4.73322L3.43418 12.4928L1.58637 12.6608C1.56511 12.6629 1.54385 12.6636 1.52395 12.6636ZM11.6794 4.24829L9.25403 1.82295L10.7088 0.368157C10.8375 0.239361 11.0121 0.166992 11.1941 0.166992C11.3761 0.166992 11.5507 0.239361 11.6794 0.368157L13.1342 1.82295C13.263 1.9516 13.3353 2.12618 13.3353 2.30822C13.3353 2.49027 13.263 2.66484 13.1342 2.79349L11.6801 4.2476L11.6794 4.24829Z" fill="#0E7D7D"/>
</svg>
