<svg width="20" height="20" viewBox="0 0 20 20" fill="none" xmlns="http://www.w3.org/2000/svg">
<path d="M19.3243 4.29054C19.6959 4.29054 20 3.98649 20 3.61487V0.675676C20 0.304054 19.6959 0 19.3243 0H16.3851C16.0135 0 15.7095 0.304054 15.7095 0.675676V1.48649H4.29054V0.675676C4.29054 0.304054 3.98649 0 3.61487 0H0.675676C0.304054 0 0 0.304054 0 0.675676V3.61487C0 3.98649 0.304054 4.29054 0.675676 4.29054H1.48649V15.7095H0.675676C0.304054 15.7095 0 16.0135 0 16.3851V19.3243C0 19.6959 0.304054 20 0.675676 20H3.61487C3.98649 20 4.29054 19.6959 4.29054 19.3243V18.5135H15.7095V19.3243C15.7095 19.6959 16.0135 20 16.3851 20H19.3243C19.6959 20 20 19.6959 20 19.3243V16.3851C20 16.0135 19.6959 15.7095 19.3243 15.7095H18.5135V4.29054H19.3243ZM2.93919 1.35135V2.93919H1.35135V1.35135H2.93919ZM3.61487 15.7095H2.80406V4.29054H3.61487C3.98649 4.29054 4.29054 3.98649 4.29054 3.61487V2.80405H15.7095V3.61487C15.7095 3.98649 16.0135 4.29054 16.3851 4.29054H17.1959V15.7095H16.3851C16.0135 15.7095 15.7095 16.0135 15.7095 16.3851V17.1959H4.29054V16.3851C4.29054 16.0135 3.98649 15.7095 3.61487 15.7095ZM1.35135 18.6486V17.0608H2.93919V18.6486H1.35135ZM17.0608 18.6486V17.0608H18.6487V18.6486H17.0608ZM18.6487 1.35135V2.93919H17.0608V1.35135H18.6487Z" fill="#E9A500"/>
<path d="M5.84364 8.78335C6.21527 8.78335 6.51932 8.4793 6.51932 8.10767V6.65497H9.32337V13.4117H8.34364C7.97202 13.4117 7.66797 13.7158 7.66797 14.0874C7.66797 14.459 7.97202 14.7631 8.34364 14.7631H11.6545C12.0261 14.7631 12.3301 14.459 12.3301 14.0874C12.3301 13.7158 12.0261 13.4117 11.6545 13.4117H10.6747V6.65497H13.4788V8.10767C13.4788 8.4793 13.7828 8.78335 14.1545 8.78335C14.5261 8.78335 14.8301 8.4793 14.8301 8.10767V6.01308C14.8301 5.64146 14.5261 5.3374 14.1545 5.3374H5.84364C5.47202 5.3374 5.16797 5.64146 5.16797 6.01308V8.10767C5.16797 8.4793 5.47202 8.78335 5.84364 8.78335Z" fill="#E9A500"/>
</svg>
