<svg width="21" height="20" viewBox="0 0 21 20" fill="none" xmlns="http://www.w3.org/2000/svg">
<path d="M12.53 18.2781C12.3639 18.3195 12.1945 18.3563 12.0264 18.3872C11.5869 18.469 11.2964 18.8916 11.3776 19.3315C11.4178 19.5479 11.5407 19.7281 11.7076 19.8458C11.8795 19.9668 12.0984 20.0215 12.3214 19.98C12.5216 19.9428 12.7234 19.8992 12.9214 19.8497C13.3554 19.7417 13.6198 19.3021 13.5115 18.8683C13.4035 18.4342 12.9642 18.17 12.53 18.2781Z" fill="#9D9D9D"/>
<path d="M18.5197 7.42145C18.5764 7.59242 18.6848 7.732 18.8216 7.82844C19.0244 7.97131 19.2898 8.01938 19.5431 7.93563C19.9678 7.79462 20.1979 7.3367 20.0574 6.91225C19.9934 6.71876 19.9224 6.52466 19.8467 6.33567C19.6806 5.92036 19.2095 5.71816 18.794 5.88429C18.3789 6.05032 18.1766 6.52154 18.3428 6.93698C18.4064 7.09583 18.466 7.25888 18.5197 7.42145Z" fill="#9D9D9D"/>
<path d="M15.1621 17.1207C15.0192 17.215 14.8717 17.3063 14.7232 17.3918C14.3356 17.6153 14.2029 18.1107 14.4264 18.4981C14.487 18.6035 14.5679 18.6896 14.6609 18.7554C14.9108 18.9312 15.2501 18.9575 15.5326 18.7948C15.7092 18.6929 15.8848 18.5846 16.0549 18.4721C16.428 18.2256 16.5306 17.7231 16.284 17.3499C16.0375 16.9766 15.5352 16.874 15.1621 17.1207Z" fill="#9D9D9D"/>
<path d="M20.5604 9.68436C20.5428 9.23735 20.1663 8.88943 19.7191 8.90688C19.2726 8.9245 18.9244 9.30114 18.9419 9.74798C18.9486 9.91882 18.9504 10.0922 18.9464 10.2629C18.9401 10.5432 19.0773 10.7931 19.2903 10.9433C19.4173 11.0327 19.5713 11.0868 19.7383 11.0906C20.1853 11.1005 20.5558 10.7459 20.5657 10.2987C20.5702 10.0948 20.5685 9.88816 20.5604 9.68436Z" fill="#9D9D9D"/>
<path d="M18.3866 14.9904C18.0282 14.7215 17.521 14.7945 17.2526 15.1523C17.1498 15.2893 17.0415 15.4246 16.9307 15.555C16.6409 15.8953 16.6819 16.4066 17.0222 16.6966C17.0416 16.713 17.0613 16.7281 17.0816 16.7423C17.42 16.9809 17.8903 16.9261 18.1639 16.605C18.2963 16.4495 18.4254 16.2879 18.5482 16.1242C18.8167 15.7664 18.7441 15.259 18.3866 14.9904Z" fill="#9D9D9D"/>
<path d="M19.5775 12.0627C19.1507 11.9289 18.6962 12.1665 18.5625 12.5932C18.5113 12.7563 18.4546 12.9201 18.3933 13.0806C18.2589 13.4338 18.3877 13.8224 18.683 14.0307C18.7372 14.0687 18.7969 14.101 18.8617 14.1255C19.2796 14.285 19.7475 14.0753 19.9068 13.6573C19.9795 13.4665 20.047 13.2716 20.108 13.0778C20.2416 12.6509 20.0042 12.1965 19.5775 12.0627Z" fill="#9D9D9D"/>
<path d="M8.99649 18.3929C8.2724 18.2629 7.57781 18.0415 6.91917 17.7327C6.91137 17.7286 6.9044 17.724 6.89621 17.7203C6.741 17.6472 6.58605 17.569 6.43587 17.4872C6.43535 17.4866 6.43439 17.4862 6.43357 17.4859C6.15801 17.3341 5.88908 17.1662 5.62781 16.9823C1.81806 14.2986 0.90204 9.01572 3.58591 5.20601C4.16951 4.37791 4.87575 3.68704 5.66311 3.13947C5.67281 3.13272 5.68251 3.126 5.69212 3.1192C8.46663 1.20748 12.234 1.07865 15.1801 3.04311L14.5473 3.95736C14.3714 4.21183 14.4796 4.39726 14.7876 4.36955L17.5361 4.12348C17.8445 4.09576 18.0289 3.82904 17.9459 3.53126L17.2079 0.87199C17.1252 0.573868 16.9137 0.538184 16.7376 0.792609L16.1034 1.70902C13.9413 0.257688 11.3482 -0.295725 8.77437 0.150591C8.51514 0.195457 8.25954 0.250369 8.00746 0.314289C8.00551 0.314636 8.00395 0.314852 8.00239 0.315199C7.99265 0.317581 7.98277 0.320742 7.97329 0.323384C5.75383 0.89334 3.81739 2.18781 2.43561 4.03475C2.42396 4.04856 2.41196 4.06207 2.40096 4.0771C2.35501 4.13898 2.30941 4.2023 2.26476 4.26561C2.19175 4.36937 2.11977 4.47573 2.05092 4.5821C2.0423 4.59491 2.03572 4.60795 2.02818 4.6209C0.887922 6.38784 0.337931 8.43061 0.432252 10.5103C0.432469 10.5171 0.432079 10.524 0.432252 10.531C0.44139 10.7342 0.4575 10.9401 0.47937 11.1429C0.480539 11.156 0.48344 11.1684 0.485649 11.1814C0.508255 11.3853 0.536621 11.5897 0.572175 11.794C0.933524 13.8787 1.91693 15.7546 3.39051 17.2142C3.39394 17.2177 3.39749 17.2214 3.40095 17.2249C3.40216 17.2263 3.40351 17.227 3.40468 17.2282C3.80058 17.6187 4.23122 17.9799 4.6949 18.3065C5.90835 19.1615 7.25955 19.7267 8.71067 19.9871C9.15096 20.0662 9.57155 19.7731 9.65055 19.333C9.72949 18.8927 9.43665 18.4717 8.99649 18.3929Z" fill="#9D9D9D"/>
<path d="M9.99855 3.53125C9.63638 3.53125 9.34302 3.82487 9.34302 4.18652V10.7148L15.3137 13.8013C15.4098 13.8511 15.5127 13.8745 15.6139 13.8745C15.8511 13.8745 16.0801 13.7454 16.1966 13.5201C16.3626 13.1985 16.237 12.8034 15.9154 12.6373L10.6533 9.91687V4.18652C10.6533 3.82487 10.3603 3.53125 9.99855 3.53125Z" fill="#9D9D9D"/>
</svg>
