<svg width="20" height="20" viewBox="0 0 20 20" fill="none" xmlns="http://www.w3.org/2000/svg">
<path d="M9.99935 18.3332C5.39698 18.3332 1.66602 14.6022 1.66602 9.99984C1.66602 5.39746 5.39698 1.6665 9.99935 1.6665C14.6017 1.6665 18.3327 5.39746 18.3327 9.99984C18.3276 14.6001 14.5996 18.3281 9.99935 18.3332ZM3.33268 10.1432C3.37211 13.8109 6.36694 16.7578 10.0348 16.7382C13.7027 16.7184 16.6656 13.7394 16.6656 10.0715C16.6656 6.40359 13.7027 3.42465 10.0348 3.40484C6.36694 3.38522 3.37211 6.33214 3.33268 9.99984V10.1432ZM11.666 14.1665H9.16602V10.8332H8.33268V9.1665H10.8327V12.4998H11.666V14.1665ZM10.8327 7.49984H9.16602V5.83317H10.8327V7.49984Z" fill="#3F88C5"/>
</svg>
