<svg width="16" height="16" viewBox="0 0 16 16" fill="none" xmlns="http://www.w3.org/2000/svg">
<circle opacity="0.25" cx="8" cy="8" r="8" fill="#737373"/>
<path d="M10.0369 12.0914L9.8911 12.6874C9.45371 12.8601 9.10431 12.9915 8.84414 13.0818C8.58368 13.1724 8.28105 13.2175 7.93624 13.2175C7.40672 13.2175 6.99486 13.0878 6.70111 12.8301C6.40736 12.5715 6.26044 12.2437 6.26044 11.846C6.26044 11.6921 6.2711 11.5337 6.29326 11.3724C6.31561 11.2109 6.35115 11.029 6.39978 10.8257L6.94641 8.89094C6.99504 8.70568 7.03638 8.53014 7.06948 8.36414C7.10306 8.19917 7.11924 8.04738 7.11924 7.91075C7.11924 7.66366 7.06808 7.49084 6.96624 7.39367C6.86439 7.29678 6.67006 7.24759 6.38155 7.24759C6.24024 7.24759 6.095 7.27022 5.94695 7.31399C5.79826 7.35794 5.67116 7.4004 5.56445 7.43987L5.71063 6.84339C6.06872 6.69759 6.411 6.57274 6.73842 6.46912C7.06584 6.36522 7.3752 6.31322 7.66783 6.31322C8.1937 6.31322 8.59949 6.44032 8.88445 6.69451C9.1694 6.94888 9.31184 7.27864 9.31184 7.68499C9.31184 7.76906 9.30248 7.9172 9.28238 8.12893C9.26274 8.34113 9.22617 8.53556 9.17286 8.71241L8.62857 10.6394C8.58396 10.7942 8.54384 10.9711 8.50896 11.1702C8.47295 11.368 8.45575 11.5192 8.45575 11.6205C8.45575 11.8764 8.51279 12.0511 8.62717 12.144C8.74239 12.2368 8.94084 12.283 9.22271 12.283C9.35504 12.283 9.50561 12.2596 9.67292 12.2135C9.83976 12.1674 9.96143 12.1269 10.0369 12.0914ZM10.1749 4.00129C10.1749 4.33703 10.0484 4.62377 9.79412 4.85953C9.54049 5.09614 9.23487 5.21454 8.87734 5.21454C8.51869 5.21454 8.21231 5.09614 7.95578 4.85953C7.69972 4.62367 7.57141 4.33703 7.57141 4.00129C7.57141 3.66621 7.69972 3.379 7.95578 3.14025C8.21184 2.90186 8.51878 2.78271 8.87734 2.78271C9.23477 2.78271 9.54049 2.90214 9.79412 3.14025C10.0486 3.379 10.1749 3.6663 10.1749 4.00129Z" fill="white"/>
</svg>
