<svg width="21" height="21" viewBox="0 0 21 21" fill="none" xmlns="http://www.w3.org/2000/svg">
<path d="M10.9258 20.5C16.4486 20.5 20.9258 16.0228 20.9258 10.5C20.9258 4.97715 16.4486 0.5 10.9258 0.5C5.40293 0.5 0.925781 4.97715 0.925781 10.5C0.925781 16.0228 5.40293 20.5 10.9258 20.5Z" fill="#B6BDC4"/>
<path d="M7.46993 13.4851C7.46743 13.5719 7.41564 13.6476 7.37071 13.7208C7.17039 14.0432 7.04871 14.4167 7.02188 14.7951C6.99504 15.1576 7.01127 15.6043 6.69114 15.7827C6.5083 15.883 6.2512 15.8652 6.12951 16.0344C6.09145 16.0855 6.07335 16.1501 6.05525 16.2104C5.97663 16.4928 5.89738 16.7752 5.81875 17.0577C5.71703 17.049 5.61344 17.038 5.51235 17.0269C5.63216 17.0644 5.71516 17.2244 5.6434 17.3339C5.52857 17.2742 5.37756 17.345 5.31391 17.4588C5.25338 17.5721 5.26212 17.7099 5.29581 17.8348C5.40003 18.204 5.72015 18.5018 6.09706 18.5904C6.03154 18.7128 5.83123 18.6593 5.70892 18.5775C4.8359 17.9954 4.17693 17.1087 3.87615 16.1125C3.77006 15.7612 3.70204 15.3877 3.49424 15.0856C3.32076 14.8302 3.05867 14.6432 2.88519 14.3878C2.64182 14.0211 2.59626 13.5454 2.3142 13.2101C2.15632 13.0187 1.91233 12.7837 2.05211 12.5788C2.10827 12.4945 2.22809 12.4145 2.18066 12.3253C2.16506 12.2964 2.13324 12.2785 2.10827 12.2539C2.01342 12.1536 2.07895 11.9961 2.12637 11.8669C2.205 11.6423 2.205 11.4023 2.1713 11.1623C1.93417 10.9531 1.74696 10.6935 1.62964 10.4018C1.55975 10.224 1.46677 10.0019 1.27332 9.9994C1.2234 9.86157 1.17161 9.72374 1.12169 9.58591C1.10359 9.63513 1.05429 9.6659 1 9.67267C1.14977 7.42 2.07083 5.37593 3.50423 3.79212C3.53605 3.77858 3.56725 3.76074 3.59908 3.74289C3.93917 3.54722 4.21 3.25372 4.53887 3.0402C4.60626 2.9959 4.68302 2.95344 4.76664 2.96206C4.84776 2.96883 4.92452 3.05066 4.89519 3.12635C4.88395 3.15773 4.85712 3.18234 4.82966 3.20203C4.44464 3.52507 4.02279 3.8075 3.57412 4.04132C3.52045 4.06778 3.46366 4.09916 3.43933 4.15269C3.39377 4.24376 3.47053 4.35697 3.56788 4.3902C3.6646 4.42343 3.77318 4.40374 3.8724 4.38159C3.78878 4.49911 3.76382 4.65725 3.80688 4.79508C3.89924 4.80369 3.92857 4.6794 3.95602 4.59264C4.06835 4.24806 4.62561 4.10777 4.58941 3.74474C4.74043 3.82227 4.89394 3.64875 4.98629 3.50661C5.07865 3.36201 5.28396 3.21988 5.3969 3.34663C5.40315 3.41739 5.41188 3.48877 5.41875 3.56014C5.61719 3.51092 5.81812 3.45985 6.01657 3.41062C5.90362 3.48877 5.86555 3.65552 5.93045 3.7755C5.99597 3.89549 6.15822 3.95579 6.28677 3.90656C6.2849 4.01117 6.19004 4.09116 6.10393 4.15331C5.88552 4.31575 5.65088 4.4825 5.39628 4.56249L5.45494 4.68247C5.4487 4.68494 5.44183 4.6874 5.43497 4.6874C5.27272 4.70278 5.10112 4.58772 4.92764 4.60987C4.82155 4.6234 4.69113 4.6234 4.62997 4.72985C4.62124 4.74339 4.58317 4.92983 4.61001 4.91445C4.70486 4.86092 4.79909 4.80738 4.89207 4.75447C4.92077 4.83015 4.92764 4.91445 4.91203 4.9969C5.02686 4.98582 5.14667 5.00982 5.24839 5.07012C5.1423 5.31256 4.8696 5.475 4.60127 5.45469C4.59877 5.3747 4.5944 5.29471 4.59191 5.21472C4.371 5.19688 4.19066 5.38393 4.0802 5.57099C3.96788 5.75989 3.88239 5.97586 3.69705 6.09585C3.58473 6.17153 3.44682 6.20045 3.32513 6.2626C3.20594 6.32721 3.09549 6.44965 3.12045 6.58072C3.13168 6.64286 3.17224 6.7007 3.17037 6.76531C3.16351 6.8853 3.02185 6.94129 2.927 7.01882C2.76475 7.15234 2.72419 7.39724 2.55071 7.51476C2.42466 7.60152 2.25742 7.59968 2.11077 7.64398C1.96412 7.68828 1.81748 7.83288 1.87676 7.97317C1.80437 7.99778 1.71638 7.94425 1.70952 7.86857C1.45055 8.37128 1.27956 8.91829 1.20967 9.47884C1.33822 9.56745 1.46865 9.36501 1.49361 9.2118C1.52044 9.05858 1.65585 8.85799 1.78191 8.94906C1.75258 9.16934 1.72325 9.38716 1.69454 9.60744C1.68768 9.6499 1.68331 9.6942 1.7039 9.73174C1.72887 9.7785 1.78253 9.79819 1.82372 9.83142C1.93854 9.92925 1.92294 10.1028 1.9298 10.2517C1.93667 10.4338 1.99782 10.6116 2.09455 10.7673C2.08519 10.7359 2.07895 10.7052 2.07208 10.6738C2.24806 10.6959 2.4309 10.6399 2.56382 10.5243C2.63371 10.4621 2.69237 10.3821 2.78035 10.3507C2.87084 10.3175 2.97006 10.3415 3.06241 10.3661C3.34884 10.4437 3.65337 10.5304 3.84495 10.7525C3.94167 10.8658 4.00283 11.0085 4.11827 11.1014C4.37974 11.3192 4.82217 11.2233 5.06118 11.4657C5.25275 11.6614 5.21718 11.977 5.16539 12.2459C5.03434 12.1751 4.85899 12.353 4.93575 12.4797C5.00564 12.404 5.08676 12.3241 5.18848 12.3241C5.29207 12.3216 5.38255 12.4619 5.3058 12.5265C5.48614 12.2994 5.92795 12.393 5.99784 12.6754C6.25058 12.6932 6.50518 12.7105 6.75791 12.7308C6.70924 13.0963 7.48553 13.1178 7.46993 13.4851Z" fill="#E9EFF4"/>
<path d="M18.3273 3.63478C18.2911 3.63909 18.253 3.63724 18.2143 3.62801C18.0452 3.59232 17.9166 3.46372 17.7719 3.3702C17.438 3.15237 16.9825 3.12407 16.6218 3.3019C16.7073 3.17945 16.7503 3.02808 16.741 2.87918L16.6892 2.89702C16.0982 2.55921 15.4056 2.20848 14.7609 2.43553C14.6118 2.48907 14.477 2.56906 14.326 2.62013C14.1656 2.67551 13.9878 2.69827 13.8505 2.79611C13.7107 2.89394 13.6364 3.10992 13.7563 3.22744C13.858 3.32774 14.0202 3.30067 14.1625 3.3142C14.3023 3.32774 14.4627 3.46495 14.3859 3.58309C13.7681 3.86798 13.1485 4.15534 12.5307 4.44269C12.8146 4.53375 13.0024 4.85125 12.9413 5.14045C12.7335 5.17614 12.5332 5.05185 12.3235 5.03831C12.019 5.02293 11.7282 5.28751 11.7219 5.58779C11.7132 5.88806 11.9928 6.16556 12.2973 6.16126C12.525 6.1588 12.7485 6.02343 12.9694 6.08065C12.9781 5.87575 13.1204 5.70223 13.2664 5.55579C13.5503 5.27521 13.9559 5.0217 14.3354 5.15953C14.4595 5.20383 14.5656 5.28628 14.6692 5.36812C14.897 5.54594 15.1247 5.72562 15.3531 5.9059C15.4255 5.83268 15.4973 5.75884 15.5697 5.68808C15.6939 5.8173 15.818 5.9459 15.9441 6.07696C16.0071 6.0345 16.0726 5.99451 16.1357 5.95205C16.1806 6.06773 16.228 6.18095 16.2736 6.29663C16.2917 6.16987 16.3073 6.04558 16.3229 5.92067C16.472 5.92498 16.6299 5.92928 16.7647 5.86283C16.9001 5.79822 16.9993 5.63824 16.9425 5.50041C16.9132 5.42719 16.8433 5.36935 16.8296 5.2912C16.8003 5.13553 17.0255 5.02908 17.1722 5.09984C17.3163 5.16876 17.3887 5.3312 17.4499 5.48011C17.4836 5.32874 17.5148 5.17983 17.5491 5.02847C17.6901 5.39396 17.8936 5.73608 18.1463 6.03635C17.6839 5.94959 17.1965 5.99943 16.7641 6.17479C16.902 6.36616 17.1385 6.47937 17.3756 6.47014C17.4817 6.46768 17.599 6.44369 17.6801 6.51014C17.7413 6.56121 17.7569 6.64366 17.7681 6.71935C17.8043 6.93286 17.8405 7.14391 17.8742 7.35497C17.6302 7.15745 17.2789 7.1796 16.9606 7.17345C16.6424 7.16483 16.2705 7.07807 16.1531 6.78703C16.0271 6.92732 15.9709 7.1273 16.0071 7.31435C15.6776 7.23683 15.2989 7.11253 15.204 6.79195C14.9469 6.88548 14.6268 6.72365 14.5569 6.46338C14.5319 6.37231 14.5251 6.26094 14.4439 6.21233C14.3946 6.18341 14.331 6.18772 14.2723 6.19448C13.7831 6.25048 13.2957 6.30401 12.809 6.36C12.5431 6.39138 12.2679 6.42277 12.0333 6.55137C11.7987 6.67812 11.6121 6.92732 11.6389 7.19006C11.1903 7.4528 10.8096 7.83306 10.5525 8.2804C10.4714 8.41823 10.4015 8.57636 10.4333 8.73204C10.4558 8.85202 10.5369 8.95417 10.5619 9.07231C10.6049 9.27474 10.4876 9.47041 10.4383 9.67039C10.2985 10.2396 10.7366 10.7755 11.1428 11.2062C11.3344 11.4062 11.5559 11.624 11.8355 11.6351C12.009 11.6419 12.1737 11.5662 12.336 11.5034C12.8002 11.3231 13.3057 11.2407 13.8037 11.2604C13.6907 11.3471 13.808 11.536 13.9485 11.5649C14.0882 11.5939 14.2393 11.5489 14.3747 11.5957C14.6836 11.7046 14.6411 12.1513 14.5013 12.443C14.5712 12.4295 14.6436 12.4159 14.7154 12.403C14.6773 12.5008 14.6386 12.5987 14.6006 12.694C15.0243 12.747 15.1847 13.2964 15.0861 13.7075C14.9893 14.1191 14.7416 14.4969 14.7347 14.9196C14.7329 15.151 14.8046 15.3756 14.877 15.5952C15.058 16.1533 15.2383 16.7114 15.4193 17.2714C15.9248 17.331 16.2149 16.6973 16.6842 16.4991C16.8602 16.4235 17.0673 16.4081 17.2053 16.2789C17.3382 16.1546 17.2951 15.8629 17.1241 15.8629C17.3563 15.8383 17.5547 15.6291 17.5616 15.3977C17.5641 15.3331 17.5547 15.2685 17.5634 15.2045C17.579 15.1135 17.6377 15.0335 17.6939 14.9553C18.0521 14.4483 18.2842 13.8674 18.5163 13.294C18.5769 13.1401 18.638 12.9894 18.6986 12.8356C18.9282 12.2639 19.156 11.6948 19.3856 11.1231C19.4755 10.8986 19.566 10.6764 19.6558 10.4512C19.5316 10.6537 19.2071 10.6272 19.0218 10.4758C18.8346 10.3251 18.7372 10.0956 18.5906 9.90667C18.4664 9.74423 18.2992 9.60024 18.2405 9.40211C18.2068 9.2889 18.2131 9.16645 18.1931 9.04831C18.1475 8.79234 17.9766 8.57944 17.8592 8.34808C17.7419 8.11672 17.6808 7.81707 17.8455 7.61401C18.3198 8.42992 18.751 9.26982 19.141 10.1306C19.184 9.99712 19.2833 9.88144 19.4093 9.81683C19.5017 9.76761 19.6053 9.74792 19.7026 9.70792C19.9597 9.59655 20.1376 9.32766 20.1376 9.052C20.1351 8.77634 19.9572 8.50745 19.6976 8.39854C19.5691 8.34501 19.4224 8.32778 19.3007 8.25394C19.1791 8.18318 19.0911 8.02073 19.1678 7.90259C19.2396 7.79122 19.4137 7.79368 19.5329 7.85583C19.6527 7.92044 19.7407 8.02935 19.853 8.10257C19.9341 8.1561 20.029 8.19118 20.117 8.2404C20.5931 8.50929 20.7104 9.12092 20.8103 9.65439C20.8646 9.94113 20.9257 10.226 20.9981 10.506C21.0006 10.4457 21 10.3835 21 10.3239C20.9975 7.73831 19.9834 5.38842 18.3273 3.63478ZM19.2402 6.86518C19.1747 6.86087 19.1142 6.81841 19.0617 6.77842C18.9762 6.71196 18.8901 6.63382 18.8652 6.52921C18.8358 6.40492 18.8964 6.26217 18.829 6.15141C18.7972 6.09788 18.741 6.06465 18.6936 6.02712C18.5694 5.92928 18.4789 5.78899 18.4452 5.63824C18.4159 5.50472 18.4583 5.32689 18.5962 5.30474C18.6617 5.29367 18.7335 5.32935 18.7628 5.38904L18.6705 5.43826C18.8259 5.45611 18.8982 5.68747 18.7791 5.78715C18.7635 5.80253 18.7429 5.81607 18.7429 5.83822C18.7429 5.85175 18.7516 5.86468 18.7635 5.87391C18.8602 5.97851 19.005 6.01604 19.131 6.0825C19.2571 6.1471 19.3812 6.26709 19.3613 6.40492C19.3207 6.4203 19.2826 6.43384 19.2421 6.44922C19.199 6.49168 19.2333 6.56736 19.2783 6.60921C19.3232 6.65105 19.3819 6.6935 19.3844 6.75565C19.3844 6.82272 19.3076 6.86948 19.2402 6.86518Z" fill="#E9EFF4"/>
<path d="M19.2293 13.7012L19.0657 13.8152C19.1227 14.0124 19.0086 14.2435 18.8148 14.3206C18.7126 14.3613 18.5765 14.3791 18.542 14.4821C18.5132 14.5696 18.5822 14.6583 18.5916 14.7496C18.6066 14.9012 18.4624 15.0146 18.3583 15.1274C18.2542 15.2402 18.199 15.4522 18.3376 15.52C18.3696 15.536 18.4066 15.5391 18.4423 15.5422C18.5928 15.5551 18.7577 15.5594 18.8807 15.4731C19.2331 15.226 18.8982 14.5554 19.2463 14.3015C19.2958 14.2657 19.3579 14.2398 19.3849 14.1856C19.467 14.026 19.1641 13.8676 19.2293 13.7012Z" fill="#E9EFF4"/>
</svg>
