<svg width="21" height="25" viewBox="0 0 21 25" fill="none" xmlns="http://www.w3.org/2000/svg">
<path d="M12.0012 24.0012H2.00117C1.46524 24.0198 0.945642 23.8151 0.566457 23.4359C0.187272 23.0567 -0.0174554 22.5371 0.00116823 22.0012V8.00117C-0.0174554 7.46524 0.187272 6.94564 0.566457 6.56646C0.945642 6.18727 1.46524 5.98254 2.00117 6.00117H6.00117V2.00117C5.98254 1.46524 6.18727 0.945642 6.56646 0.566457C6.94564 0.187272 7.46524 -0.0174554 8.00117 0.00116823H18.0012C18.5371 -0.0174554 19.0567 0.187272 19.4359 0.566457C19.8151 0.945642 20.0198 1.46524 20.0012 2.00117V16.0012C20.0195 16.537 19.8147 17.0564 19.4355 17.4356C19.0564 17.8147 18.537 18.0195 18.0012 18.0012H14.0012V22.0012C14.0195 22.537 13.8147 23.0564 13.4356 23.4355C13.0564 23.8147 12.537 24.0195 12.0012 24.0012ZM2.00117 8.00117V22.0012H12.0012V18.0012H8.00117C7.46533 18.0195 6.9459 17.8147 6.56679 17.4356C6.18767 17.0564 5.98284 16.537 6.00117 16.0012V8.00117H2.00117ZM8.00117 2.00117V16.0012H18.0012V2.00117H8.00117Z" fill="#0E7D7D"/>
</svg>
