<svg width="11" height="11" viewBox="0 0 11 11" fill="none" xmlns="http://www.w3.org/2000/svg">
<path d="M10.5196 0.806674C10.0236 0.543481 9.46826 1.0515 9.14382 1.34836C8.39824 2.06143 7.76808 2.88467 7.06305 3.63446C6.28003 4.45771 5.55629 5.28401 4.75143 6.08889C4.29285 6.53876 3.79683 7.02536 3.49111 7.58847C2.8048 6.93355 2.21208 6.22048 1.44778 5.64207C0.898726 5.22586 -0.0184355 4.92594 0.000282082 5.92057C0.0377173 7.21205 1.20445 8.5984 2.06234 9.47978C2.42421 9.85315 2.90151 10.2479 3.4568 10.2663C4.12439 10.303 4.81382 9.51651 5.21313 9.085C5.91816 8.3352 6.49217 7.4936 7.14104 6.72545C7.98021 5.71552 8.84122 4.7209 9.66168 3.69261C10.1764 3.05299 11.7986 1.47996 10.5196 0.806674ZM0.839454 5.84406C0.820736 5.84406 0.802019 5.84406 0.764584 5.86242C0.689713 5.84406 0.630441 5.82569 0.555571 5.78897C0.611723 5.75224 0.708431 5.77061 0.839454 5.84406Z" fill="#00C868"/>
</svg>
