<svg width="19" height="18" viewBox="0 0 19 18" fill="none" xmlns="http://www.w3.org/2000/svg">
<path d="M17.7692 8.80082C17.4944 8.80082 17.2746 9.02064 17.2746 9.29543V13.7946C17.2746 15.0183 16.2781 16.0112 15.058 16.0112H4.20583C2.98212 16.0112 1.98923 15.0146 1.98923 13.7946V9.22215C1.98923 8.94737 1.7694 8.72754 1.49461 8.72754C1.21983 8.72754 1 8.94737 1 9.22215V13.7946C1 15.5642 2.43987 17.0004 4.20583 17.0004H15.058C16.8276 17.0004 18.2638 15.5605 18.2638 13.7946V9.29543C18.2638 9.02431 18.044 8.80082 17.7692 8.80082Z" fill="#0E7D7D" stroke="#0E7D7D" stroke-width="0.5"/>
<path d="M6.83736 4.98988L9.13823 2.68901V12.7242C9.13823 12.999 9.35806 13.2188 9.63285 13.2188C9.90763 13.2188 10.1275 12.999 10.1275 12.7242V2.68901L12.4283 4.98988C12.5236 5.08514 12.6518 5.13643 12.7764 5.13643C12.9046 5.13643 13.0292 5.0888 13.1245 4.98988C13.3186 4.7957 13.3186 4.48428 13.1245 4.2901L9.98091 1.14655C9.88931 1.05496 9.76108 1 9.63285 1C9.50095 1 9.37638 1.05129 9.28478 1.14655L6.14124 4.2901C5.94706 4.48428 5.94706 4.7957 6.14124 4.98988C6.33176 5.1804 6.64685 5.1804 6.83736 4.98988Z" fill="#0E7D7D" stroke="#0E7D7D" stroke-width="0.5"/>
</svg>
