<svg width="23" height="23" viewBox="0 0 23 23" fill="none" xmlns="http://www.w3.org/2000/svg">
<path d="M22.3379 4.52001C22.3379 9.79084 22.3379 15.0617 22.3379 20.3325C22.3207 20.3783 22.3035 20.4242 22.2921 20.47C22.0744 21.4268 21.5129 22.0856 20.5905 22.4294C20.4301 22.4867 20.2639 22.521 20.1035 22.5726C14.2598 22.5726 8.41602 22.5726 2.57227 22.5726C2.52643 22.5554 2.4806 22.5382 2.43477 22.5268C1.67852 22.3606 1.07695 21.9653 0.698828 21.2835C0.532682 20.9913 0.458203 20.6533 0.337891 20.3325C0.337891 15.0617 0.337891 9.79084 0.337891 4.52001C0.349349 4.50283 0.366536 4.48564 0.372266 4.46845C0.544141 3.27106 1.63841 2.22262 3.08789 2.28564C3.36862 2.2971 3.65508 2.28564 3.95299 2.28564C3.95299 1.69554 3.95299 1.12835 3.95299 0.566895C4.52591 0.566895 5.09883 0.566895 5.67174 0.566895C5.67174 1.13408 5.67174 1.707 5.67174 2.27418C9.47018 2.27418 13.2342 2.27418 17.0155 2.27418C17.0155 1.69554 17.0155 1.13408 17.0155 0.566895C17.5884 0.566895 18.1613 0.566895 18.7342 0.566895C18.7342 1.13408 18.7342 1.707 18.7342 2.28564C19.1124 2.28564 19.4618 2.27418 19.8113 2.28564C20.6306 2.30856 21.2952 2.65231 21.8108 3.29397C22.0915 3.66064 22.2233 4.0846 22.3379 4.52001ZM2.05664 8.65647C2.05664 8.74813 2.05664 8.82834 2.05664 8.90282C2.05664 12.5466 2.05664 16.1903 2.05664 19.8398C2.05664 20.5273 2.3832 20.8481 3.0707 20.8481C8.58216 20.8481 14.0993 20.8481 19.6108 20.8481C20.2868 20.8481 20.6191 20.5216 20.6191 19.8512C20.6191 16.2018 20.6191 12.5466 20.6191 8.89709C20.6191 8.82261 20.6191 8.7424 20.6191 8.65647C14.4259 8.65647 8.2556 8.65647 2.05664 8.65647ZM2.05664 6.9148C8.2556 6.9148 14.4316 6.9148 20.6134 6.9148C20.6134 6.19293 20.6249 5.48824 20.6077 4.77783C20.602 4.43408 20.3441 4.09606 20.0061 4.05595C19.5879 4.00439 19.1582 4.04449 18.7171 4.04449C18.7171 4.59449 18.7171 5.15022 18.7171 5.71168C18.1384 5.71168 17.577 5.71168 16.9983 5.71168C16.9983 5.13876 16.9983 4.57731 16.9983 4.01585C13.2113 4.01585 9.44727 4.01585 5.66029 4.01585C5.66029 4.58876 5.66029 5.15022 5.66029 5.70595C5.07591 5.70595 4.51445 5.70595 3.94154 5.70595C3.94154 5.13303 3.94154 4.57731 3.94154 4.01012C3.54622 4.01012 3.1681 3.9872 2.7957 4.01585C2.40039 4.04449 2.07383 4.39397 2.06237 4.79501C2.04518 5.49397 2.05664 6.19866 2.05664 6.9148Z" fill="#3F88C5"/>
<path d="M5.30485 12.1571C4.73193 12.1571 4.18193 12.1571 3.61475 12.1571C3.61475 11.59 3.61475 11.04 3.61475 10.467C4.17047 10.467 4.73193 10.467 5.30485 10.467C5.30485 11.0228 5.30485 11.5842 5.30485 12.1571Z" fill="#3F88C5"/>
<path d="M7.05225 12.151C7.05225 11.5781 7.05225 11.0281 7.05225 10.4609C7.61943 10.4609 8.16943 10.4609 8.74235 10.4609C8.74235 11.0167 8.74235 11.5781 8.74235 12.151C8.18662 12.151 7.62516 12.151 7.05225 12.151Z" fill="#3F88C5"/>
<path d="M12.1799 12.1571C11.6069 12.1571 11.0569 12.1571 10.4897 12.1571C10.4897 11.59 10.4897 11.04 10.4897 10.467C11.0455 10.467 11.6069 10.467 12.1799 10.467C12.1799 11.0228 12.1799 11.5842 12.1799 12.1571Z" fill="#3F88C5"/>
<path d="M15.6234 10.467C15.6234 11.04 15.6234 11.5957 15.6234 12.1571C15.0563 12.1571 14.5063 12.1571 13.9333 12.1571C13.9333 11.6014 13.9333 11.04 13.9333 10.467C14.4891 10.467 15.0505 10.467 15.6234 10.467Z" fill="#3F88C5"/>
<path d="M17.3708 10.4609C17.9438 10.4609 18.4938 10.4609 19.061 10.4609C19.061 11.0281 19.061 11.5781 19.061 12.151C18.5052 12.151 17.9438 12.151 17.3708 12.151C17.3708 11.5953 17.3708 11.0339 17.3708 10.4609Z" fill="#3F88C5"/>
<path d="M3.61475 15.5891C3.61475 15.0162 3.61475 14.4605 3.61475 13.8933C4.18193 13.8933 4.73766 13.8933 5.30485 13.8933C5.30485 14.449 5.30485 15.0105 5.30485 15.5891C4.74912 15.5891 4.18766 15.5891 3.61475 15.5891Z" fill="#3F88C5"/>
<path d="M8.74845 13.9045C8.74845 14.4775 8.74845 15.0274 8.74845 15.5946C8.18127 15.5946 7.63127 15.5946 7.05835 15.5946C7.05835 15.0389 7.05835 14.4775 7.05835 13.9045C7.61408 13.9045 8.17554 13.9045 8.74845 13.9045Z" fill="#3F88C5"/>
<path d="M10.4958 13.8984C11.0688 13.8984 11.6188 13.8984 12.186 13.8984C12.186 14.4656 12.186 15.0156 12.186 15.5886C11.6302 15.5886 11.0688 15.5886 10.4958 15.5886C10.4958 15.0328 10.4958 14.4714 10.4958 13.8984Z" fill="#3F88C5"/>
<path d="M15.6234 13.9045C15.6234 14.4775 15.6234 15.0274 15.6234 15.5946C15.0563 15.5946 14.5063 15.5946 13.9333 15.5946C13.9333 15.0389 13.9333 14.4775 13.9333 13.9045C14.4891 13.9045 15.0505 13.9045 15.6234 13.9045Z" fill="#3F88C5"/>
<path d="M17.3647 15.5886C17.3647 15.0156 17.3647 14.4599 17.3647 13.8984C17.9319 13.8984 18.4877 13.8984 19.0548 13.8984C19.0548 14.4542 19.0548 15.0156 19.0548 15.5886C18.4991 15.5886 17.9377 15.5886 17.3647 15.5886Z" fill="#3F88C5"/>
<path d="M17.3647 19.0322C17.3647 18.4592 17.3647 17.9035 17.3647 17.342C17.9319 17.342 18.4877 17.342 19.0548 17.342C19.0548 17.8978 19.0548 18.4592 19.0548 19.0322C18.4991 19.0322 17.9377 19.0322 17.3647 19.0322Z" fill="#3F88C5"/>
<path d="M5.31096 17.342C5.31096 17.915 5.31096 18.465 5.31096 19.0321C4.74377 19.0321 4.19377 19.0321 3.62085 19.0321C3.62085 18.4764 3.62085 17.915 3.62085 17.342C4.17658 17.342 4.73804 17.342 5.31096 17.342Z" fill="#3F88C5"/>
<path d="M8.74235 19.0321C8.16943 19.0321 7.61943 19.0321 7.05225 19.0321C7.05225 18.465 7.05225 17.915 7.05225 17.342C7.60798 17.342 8.16943 17.342 8.74235 17.342C8.74235 17.8978 8.74235 18.4592 8.74235 19.0321Z" fill="#3F88C5"/>
<path d="M12.1799 19.0321C11.6069 19.0321 11.0569 19.0321 10.4897 19.0321C10.4897 18.465 10.4897 17.915 10.4897 17.342C11.0455 17.342 11.6069 17.342 12.1799 17.342C12.1799 17.8978 12.1799 18.4592 12.1799 19.0321Z" fill="#3F88C5"/>
<path d="M13.9333 17.3308C14.4948 17.3308 15.0505 17.3308 15.6234 17.3308C15.6234 17.898 15.6234 18.4595 15.6234 19.0324C15.062 19.0324 14.5063 19.0324 13.9333 19.0324C13.9333 18.4766 13.9333 17.9152 13.9333 17.3308Z" fill="#3F88C5"/>
</svg>
