<svg width="22" height="21" viewBox="0 0 22 21" fill="none" xmlns="http://www.w3.org/2000/svg">
<path d="M5.38052 12.9332L4.67133 15.5807L2.07927 15.6355C1.30463 14.1987 0.865234 12.5548 0.865234 10.8079C0.865234 9.11868 1.27605 7.5257 2.00426 6.12305H2.00482L4.31248 6.54612L5.32337 8.83994C5.1118 9.45676 4.99648 10.1189 4.99648 10.8079C4.99656 11.5557 5.13201 12.2722 5.38052 12.9332Z" fill="white"/>
<path d="M21.0608 8.90332C21.1777 9.51955 21.2387 10.156 21.2387 10.8064C21.2387 11.5357 21.1621 12.2471 21.016 12.9333C20.5201 15.2685 19.2243 17.3075 17.4293 18.7505L17.4287 18.75L14.5221 18.6016L14.1108 16.0336C15.3018 15.3351 16.2327 14.242 16.723 12.9333H11.2758V8.90332H16.8025H21.0608Z" fill="white"/>
<path d="M17.4287 18.7499L17.4292 18.7505C15.6835 20.1537 13.4658 20.9933 11.0518 20.9933C7.17233 20.9933 3.79946 18.8249 2.07886 15.634L5.3801 12.9316C6.24038 15.2276 8.45521 16.862 11.0518 16.862C12.1678 16.862 13.2134 16.5603 14.1106 16.0336L17.4287 18.7499Z" fill="white"/>
<path d="M17.5544 2.96534L14.2542 5.66711C13.3257 5.08669 12.228 4.7514 11.0521 4.7514C8.39673 4.7514 6.14049 6.46078 5.3233 8.83907L2.00471 6.12218H2.00415C3.69956 2.85341 7.11497 0.620117 11.0521 0.620117C13.5238 0.620117 15.7901 1.50057 17.5544 2.96534Z" fill="white"/>
</svg>
