<svg width="21" height="20" viewBox="0 0 21 20" fill="none" xmlns="http://www.w3.org/2000/svg">
<path d="M10.0352 20C15.558 20 20.0352 15.5228 20.0352 10C20.0352 4.47715 15.558 0 10.0352 0C4.51231 0 0.0351562 4.47715 0.0351562 10C0.0351562 15.5228 4.51231 20 10.0352 20Z" fill="#B6BDC4"/>
<path d="M6.5793 12.9851C6.57681 13.0719 6.52501 13.1476 6.48008 13.2208C6.27977 13.5432 6.15808 13.9167 6.13125 14.2951C6.10442 14.6576 6.12064 15.1043 5.80051 15.2827C5.61767 15.383 5.36058 15.3652 5.23889 15.5344C5.20082 15.5855 5.18273 15.6501 5.16463 15.7104C5.086 15.9928 5.00675 16.2752 4.92812 16.5577C4.82641 16.549 4.72282 16.538 4.62173 16.5269C4.74154 16.5644 4.82453 16.7244 4.75277 16.8339C4.63795 16.7742 4.48694 16.845 4.42328 16.9588C4.36275 17.0721 4.37149 17.2099 4.40519 17.3348C4.5094 17.704 4.82953 18.0018 5.20644 18.0904C5.14092 18.2128 4.9406 18.1593 4.81829 18.0775C3.94528 17.4954 3.2863 16.6087 2.98552 15.6125C2.87944 15.2612 2.81142 14.8877 2.60362 14.5856C2.43014 14.3302 2.16805 14.1432 1.99457 13.8878C1.75119 13.5211 1.70564 13.0454 1.42358 12.7101C1.2657 12.5187 1.0217 12.2837 1.16149 12.0788C1.21765 11.9945 1.33746 11.9145 1.29004 11.8253C1.27444 11.7964 1.24261 11.7785 1.21765 11.7539C1.1228 11.6536 1.18832 11.4961 1.23575 11.3669C1.31437 11.1423 1.31437 10.9023 1.28068 10.6623C1.04355 10.4531 0.856337 10.1935 0.73902 9.90181C0.669129 9.72399 0.576148 9.50186 0.382699 9.4994C0.332777 9.36157 0.280983 9.22374 0.231061 9.08591C0.212964 9.13513 0.163665 9.1659 0.109375 9.17267C0.259142 6.92 1.18021 4.87593 2.6136 3.29212C2.64543 3.27858 2.67663 3.26074 2.70845 3.24289C3.04855 3.04722 3.31938 2.75372 3.64824 2.5402C3.71564 2.4959 3.79239 2.45344 3.87601 2.46206C3.95713 2.46883 4.03389 2.55066 4.00456 2.62635C3.99333 2.65773 3.9665 2.68234 3.93904 2.70203C3.55401 3.02507 3.13217 3.3075 2.68349 3.54132C2.62983 3.56778 2.57304 3.59916 2.5487 3.65269C2.50315 3.74376 2.5799 3.85697 2.67725 3.8902C2.77398 3.92343 2.88256 3.90374 2.98178 3.88159C2.89816 3.99911 2.8732 4.15725 2.91626 4.29508C3.00861 4.30369 3.03794 4.1794 3.0654 4.09264C3.17772 3.74806 3.73498 3.60777 3.69879 3.24474C3.8498 3.32227 4.00331 3.14875 4.09567 3.00661C4.18803 2.86201 4.39333 2.71988 4.50628 2.84663C4.51252 2.91739 4.52126 2.98877 4.52812 3.06014C4.72656 3.01092 4.9275 2.95985 5.12594 2.91062C5.01299 2.98877 4.97493 3.15552 5.03982 3.2755C5.10535 3.39549 5.26759 3.45579 5.39614 3.40656C5.39427 3.51117 5.29942 3.59116 5.2133 3.65331C4.99489 3.81575 4.76026 3.9825 4.50566 4.06249L4.56431 4.18247C4.55807 4.18494 4.55121 4.1874 4.54435 4.1874C4.3821 4.20278 4.21049 4.08772 4.03701 4.10987C3.93093 4.1234 3.8005 4.1234 3.73935 4.22985C3.73061 4.24339 3.69255 4.42983 3.71938 4.41445C3.81423 4.36092 3.90846 4.30738 4.00144 4.25447C4.03015 4.33015 4.03701 4.41445 4.02141 4.4969C4.13623 4.48582 4.25604 4.50982 4.35776 4.57012C4.25168 4.81256 3.97898 4.975 3.71064 4.95469C3.70815 4.8747 3.70378 4.79471 3.70128 4.71472C3.48038 4.69688 3.30003 4.88393 3.18958 5.07099C3.07725 5.25989 2.99176 5.47586 2.80643 5.59585C2.6941 5.67153 2.55619 5.70045 2.4345 5.7626C2.31532 5.82721 2.20486 5.94965 2.22982 6.08072C2.24106 6.14286 2.28162 6.2007 2.27975 6.26531C2.27288 6.3853 2.13123 6.44129 2.03637 6.51882C1.87413 6.65234 1.83357 6.89724 1.66009 7.01476C1.53403 7.10152 1.36679 7.09968 1.22015 7.14398C1.0735 7.18828 0.926852 7.33288 0.986135 7.47317C0.913748 7.49778 0.82576 7.44425 0.818895 7.36857C0.559924 7.87128 0.38894 8.41829 0.319049 8.97884C0.447598 9.06745 0.57802 8.86501 0.602982 8.7118C0.629815 8.55858 0.765229 8.35799 0.891283 8.44906C0.861953 8.66934 0.832624 8.88716 0.803919 9.10744C0.797054 9.1499 0.792686 9.1942 0.813279 9.23174C0.83824 9.2785 0.891907 9.29819 0.933093 9.33142C1.04791 9.42925 1.03231 9.60277 1.03918 9.75168C1.04604 9.93381 1.1072 10.1116 1.20392 10.2673C1.19456 10.2359 1.18832 10.2052 1.18146 10.1738C1.35743 10.1959 1.54027 10.1399 1.67319 10.0243C1.74308 9.96211 1.80174 9.88212 1.88973 9.85074C1.98021 9.81751 2.07943 9.84151 2.17179 9.86612C2.45822 9.94365 2.76274 10.0304 2.95432 10.2525C3.05105 10.3658 3.1122 10.5085 3.22765 10.6014C3.48911 10.8192 3.93155 10.7233 4.17055 10.9657C4.36213 11.1614 4.32656 11.477 4.27477 11.7459C4.14372 11.6751 3.96837 11.853 4.04512 11.9797C4.11501 11.904 4.19614 11.8241 4.29785 11.8241C4.40144 11.8216 4.49193 11.9619 4.41517 12.0265C4.59552 11.7994 5.03733 11.893 5.10722 12.1754C5.35995 12.1932 5.61455 12.2105 5.86729 12.2308C5.81861 12.5963 6.5949 12.6178 6.5793 12.9851Z" fill="#E9EFF4"/>
<path d="M17.4365 3.13478C17.4003 3.13909 17.3623 3.13724 17.3236 3.12801C17.1545 3.09232 17.0259 2.96372 16.8811 2.8702C16.5473 2.65237 16.0917 2.62407 15.731 2.8019C15.8165 2.67945 15.8596 2.52808 15.8502 2.37918L15.7984 2.39702C15.2075 2.05921 14.5148 1.70848 13.8702 1.93553C13.7211 1.98907 13.5863 2.06906 13.4352 2.12013C13.2749 2.17551 13.097 2.19827 12.9597 2.29611C12.82 2.39394 12.7457 2.60992 12.8655 2.72744C12.9672 2.82774 13.1295 2.80067 13.2718 2.8142C13.4115 2.82774 13.5719 2.96495 13.4952 3.08309C12.8774 3.36798 12.2577 3.65534 11.6399 3.94269C11.9239 4.03375 12.1117 4.35125 12.0505 4.64045C11.8427 4.67614 11.6424 4.55185 11.4327 4.53831C11.1282 4.52293 10.8374 4.78751 10.8312 5.08779C10.8224 5.38806 11.102 5.66556 11.4065 5.66126C11.6343 5.6588 11.8577 5.52343 12.0786 5.58065C12.0873 5.37575 12.2296 5.20223 12.3756 5.05579C12.6596 4.77521 13.0652 4.5217 13.4446 4.65953C13.5688 4.70383 13.6749 4.78628 13.7785 4.86812C14.0062 5.04594 14.234 5.22562 14.4624 5.4059C14.5348 5.33268 14.6065 5.25884 14.6789 5.18808C14.8031 5.3173 14.9273 5.4459 15.0533 5.57696C15.1164 5.5345 15.1819 5.49451 15.2449 5.45205C15.2899 5.56773 15.3373 5.68095 15.3828 5.79663C15.4009 5.66987 15.4165 5.54558 15.4321 5.42067C15.5813 5.42498 15.7392 5.42928 15.8739 5.36283C16.0094 5.29822 16.1086 5.13824 16.0518 5.00041C16.0225 4.92719 15.9526 4.86935 15.9388 4.7912C15.9095 4.63553 16.1348 4.52908 16.2814 4.59984C16.4256 4.66876 16.498 4.8312 16.5591 4.98011C16.5928 4.82874 16.624 4.67983 16.6583 4.52847C16.7994 4.89396 17.0028 5.23608 17.2555 5.53635C16.7931 5.44959 16.3058 5.49943 15.8733 5.67479C16.0112 5.86616 16.2477 5.97937 16.4849 5.97014C16.591 5.96768 16.7083 5.94369 16.7894 6.01014C16.8506 6.06121 16.8661 6.14366 16.8774 6.21935C16.9136 6.43286 16.9498 6.64391 16.9835 6.85497C16.7395 6.65745 16.3881 6.6796 16.0699 6.67345C15.7516 6.66483 15.3797 6.57807 15.2624 6.28703C15.1363 6.42732 15.0802 6.6273 15.1164 6.81435C14.7869 6.73683 14.4081 6.61253 14.3133 6.29195C14.0562 6.38548 13.736 6.22365 13.6661 5.96338C13.6412 5.87231 13.6343 5.76094 13.5532 5.71233C13.5039 5.68341 13.4402 5.68772 13.3816 5.69448C12.8923 5.75048 12.405 5.80401 11.9182 5.86C11.6524 5.89138 11.3772 5.92277 11.1426 6.05137C10.9079 6.17812 10.7213 6.42732 10.7482 6.69006C10.2995 6.9528 9.91885 7.33306 9.66175 7.7804C9.58063 7.91823 9.51074 8.07636 9.54256 8.23204C9.56503 8.35202 9.64615 8.45417 9.67111 8.57231C9.71417 8.77474 9.59685 8.97041 9.54755 9.17039C9.40777 9.73956 9.84584 10.2755 10.2521 10.7062C10.4437 10.9062 10.6652 11.124 10.9448 11.1351C11.1182 11.1419 11.283 11.0662 11.4452 11.0034C11.9095 10.8231 12.415 10.7407 12.9129 10.7604C12.8 10.8471 12.9173 11.036 13.0577 11.0649C13.1975 11.0939 13.3485 11.0489 13.4839 11.0957C13.7928 11.2046 13.7504 11.6513 13.6106 11.943C13.6805 11.9295 13.7529 11.9159 13.8246 11.903C13.7866 12.0008 13.7479 12.0987 13.7098 12.194C14.1335 12.247 14.2939 12.7964 14.1953 13.2075C14.0986 13.6191 13.8508 13.9969 13.844 14.4196C13.8421 14.651 13.9139 14.8756 13.9863 15.0952C14.1672 15.6533 14.3476 16.2114 14.5285 16.7714C15.034 16.831 15.3242 16.1973 15.7934 15.9991C15.9694 15.9235 16.1766 15.9081 16.3145 15.7789C16.4474 15.6546 16.4044 15.3629 16.2334 15.3629C16.4655 15.3383 16.664 15.1291 16.6708 14.8977C16.6733 14.8331 16.664 14.7685 16.6727 14.7045C16.6883 14.6135 16.747 14.5335 16.8031 14.4553C17.1613 13.9483 17.3935 13.3674 17.6256 12.794C17.6861 12.6401 17.7473 12.4894 17.8078 12.3356C18.0375 11.7639 18.2652 11.1948 18.4949 10.6231C18.5847 10.3986 18.6752 10.1764 18.7651 9.95122C18.6409 10.1537 18.3164 10.1272 18.1311 9.97584C17.9438 9.82508 17.8465 9.59557 17.6999 9.40667C17.5757 9.24423 17.4084 9.10024 17.3498 8.90211C17.3161 8.7889 17.3223 8.66645 17.3023 8.54831C17.2568 8.29234 17.0858 8.07944 16.9685 7.84808C16.8512 7.61672 16.79 7.31707 16.9548 7.11401C17.429 7.92992 17.8602 8.76982 18.2502 9.63064C18.2933 9.49712 18.3925 9.38144 18.5186 9.31683C18.6109 9.26761 18.7145 9.24792 18.8119 9.20792C19.069 9.09655 19.2468 8.82766 19.2468 8.552C19.2443 8.27634 19.0665 8.00745 18.8069 7.89854C18.6783 7.84501 18.5317 7.82778 18.41 7.75394C18.2883 7.68318 18.2003 7.52073 18.2771 7.40259C18.3488 7.29122 18.5229 7.29368 18.6421 7.35583C18.7619 7.42044 18.8499 7.52935 18.9623 7.60257C19.0434 7.6561 19.1382 7.69118 19.2262 7.7404C19.7024 8.00929 19.8197 8.62092 19.9195 9.15439C19.9738 9.44113 20.035 9.72602 20.1073 10.006C20.1098 9.94569 20.1092 9.88354 20.1092 9.82385C20.1067 7.23831 19.0927 4.88842 17.4365 3.13478ZM18.3495 6.36518C18.2839 6.36087 18.2234 6.31841 18.171 6.27842C18.0855 6.21196 17.9994 6.13382 17.9744 6.02921C17.9451 5.90492 18.0056 5.76217 17.9382 5.65141C17.9064 5.59788 17.8502 5.56465 17.8028 5.52712C17.6786 5.42928 17.5882 5.28899 17.5545 5.13824C17.5251 5.00472 17.5676 4.82689 17.7055 4.80474C17.771 4.79367 17.8428 4.82935 17.8721 4.88904L17.7797 4.93826C17.9351 4.95611 18.0075 5.18747 17.8883 5.28715C17.8727 5.30253 17.8521 5.31607 17.8521 5.33822C17.8521 5.35175 17.8609 5.36468 17.8727 5.37391C17.9694 5.47851 18.1142 5.51604 18.2403 5.5825C18.3663 5.6471 18.4905 5.76709 18.4705 5.90492C18.43 5.9203 18.3919 5.93384 18.3513 5.94922C18.3083 5.99168 18.3426 6.06736 18.3875 6.10921C18.4325 6.15105 18.4911 6.1935 18.4936 6.25565C18.4936 6.32272 18.4169 6.36948 18.3495 6.36518Z" fill="#E9EFF4"/>
<path d="M18.3388 13.2012L18.1752 13.3152C18.2322 13.5124 18.1181 13.7435 17.9243 13.8206C17.8221 13.8613 17.686 13.8791 17.6515 13.9821C17.6227 14.0696 17.6917 14.1583 17.7011 14.2496C17.7161 14.4012 17.5719 14.5146 17.4678 14.6274C17.3637 14.7402 17.3085 14.9522 17.4471 15.02C17.4791 15.036 17.5161 15.0391 17.5518 15.0422C17.7023 15.0551 17.8672 15.0594 17.9902 14.9731C18.3426 14.726 18.0077 14.0554 18.3558 13.8015C18.4053 13.7657 18.4674 13.7398 18.4944 13.6856C18.5765 13.526 18.2736 13.3676 18.3388 13.2012Z" fill="#E9EFF4"/>
</svg>
