<svg width="26" height="25" viewBox="0 0 26 25" fill="none" xmlns="http://www.w3.org/2000/svg">
<path d="M18.4767 15.0473C18.4121 14.8109 18.1106 14.7034 17.8091 14.7034C17.5292 14.7034 17.2277 14.8109 17.1631 15.0473L15.6558 19.9699C15.6558 19.9914 15.6343 20.0344 15.6343 20.0559C15.6343 20.3139 16.0003 20.4858 16.2803 20.4858C16.4525 20.4858 16.5817 20.4213 16.6248 20.2924L16.9263 19.2605H18.7135L19.015 20.2924C19.058 20.4428 19.1872 20.4858 19.3595 20.4858C19.6394 20.4858 20.0055 20.3139 20.0055 20.0559C20.0055 20.0344 20.0055 20.0129 19.984 19.9699L18.4767 15.0473ZM17.1416 18.4222L17.8307 16.0146L18.4982 18.4222H17.1416Z" fill="#0E7D7D"/>
<path d="M22.5251 10.2107H15.0316V7.00774L17.4648 5.26655C17.6586 5.13758 17.7663 4.90112 17.7663 4.66466C17.7663 4.4282 17.6586 4.21324 17.4648 4.06277L14.9885 2.30009C14.7947 1.01032 13.675 0 12.3184 0H2.92993C1.44414 0 0.238281 1.20378 0.238281 2.68702V12.0808C0.238281 13.5641 1.44414 14.7678 2.92993 14.7678H10.4235V17.9923L7.99022 19.7334C7.79642 19.8624 7.68876 20.0989 7.68876 20.3353C7.68876 20.5718 7.79642 20.7868 7.99022 20.9372L10.4665 22.6999C10.6603 23.9897 11.7801 25 13.1366 25H22.5466C24.0324 25 25.2383 23.7962 25.2383 22.313V12.8977C25.2167 11.4144 24.0109 10.2107 22.5251 10.2107ZM2.92993 13.3276C2.2624 13.3276 1.70254 12.7687 1.70254 12.1023V2.70851C1.70254 2.04213 2.2624 1.48323 2.92993 1.48323H12.3399C13.0074 1.48323 13.5673 2.04213 13.5673 2.70851C13.5673 2.94497 13.675 3.15993 13.8688 3.3104L15.7852 4.66466L13.8688 6.01892C13.675 6.14789 13.5673 6.38435 13.5673 6.62081V10.1892H13.1151C11.6293 10.1892 10.4235 11.3929 10.4235 12.8762V13.3276H2.92993ZM23.7525 22.27C23.7525 22.9364 23.1926 23.4953 22.5251 23.4953H13.1151C12.4476 23.4953 11.8877 22.9364 11.8877 22.27C11.8877 22.0335 11.7801 21.8186 11.5863 21.6681L9.66981 20.3138L11.5863 18.9596C11.7801 18.8306 11.8877 18.5942 11.8877 18.3577V12.8977C11.8877 12.2313 12.4476 11.6724 13.1151 11.6724H14.2779H22.5036C23.1711 11.6724 23.731 12.2313 23.731 12.8977V22.27H23.7525Z" fill="#0E7D7D"/>
<path d="M9.8851 6.77124C10.122 6.77124 10.2942 6.57778 10.2942 6.36282C10.2942 6.14786 10.1004 5.95439 9.8851 5.95439H8.05478V4.94407C8.05478 4.70761 7.86098 4.53564 7.64565 4.53564C7.40879 4.53564 7.23652 4.72911 7.23652 4.94407V5.95439H5.4062C5.16934 5.95439 4.99707 6.14786 4.99707 6.36282C4.99707 6.57778 5.19087 6.77124 5.4062 6.77124H5.96606C6.0522 7.63109 6.43979 8.42645 6.99966 9.02834C6.52593 9.30779 5.9876 9.47976 5.4062 9.47976C5.16934 9.47976 4.99707 9.67322 4.99707 9.88818C4.99707 10.1031 5.19087 10.2966 5.4062 10.2966C6.24599 10.2966 7.02119 10.0387 7.64565 9.58724C8.29165 10.0387 9.06684 10.2966 9.8851 10.2966C10.122 10.2966 10.2942 10.1031 10.2942 9.88818C10.2942 9.67322 10.1004 9.47976 9.8851 9.47976C9.3037 9.47976 8.74384 9.30779 8.29165 9.02834C8.85151 8.42645 9.2391 7.63109 9.32524 6.77124H9.8851ZM7.62412 8.51243C7.17192 8.03952 6.87046 7.43762 6.78432 6.77124H8.48544C8.37778 7.43762 8.07631 8.03952 7.62412 8.51243Z" fill="#0E7D7D"/>
</svg>
