<svg width="32" height="40" viewBox="0 0 32 40" fill="none" xmlns="http://www.w3.org/2000/svg">
    <path d="M1.66667 40H29.4444C30.3649 40 31.1111 39.2538 31.1111 38.3333V11.8015C31.1111 11.3594 30.9355 10.9355 30.623 10.623L20.4882 0.488155C20.1756 0.175595 19.7517 0 19.3096 0H1.66667C0.746192 0 0 0.746193 0 1.66667V38.3333C0 39.2538 0.746191 40 1.66667 40Z" fill="white"/>
    <path fill-rule="evenodd" clip-rule="evenodd" d="M1.66667 39.1837H29.4444C29.9141 39.1837 30.2948 38.803 30.2948 38.3333V11.8015C30.2948 11.5759 30.2052 11.3597 30.0457 11.2002L19.9109 1.06539C19.7515 0.905916 19.5352 0.816327 19.3096 0.816327H1.66667C1.19704 0.816327 0.816326 1.19704 0.816326 1.66667V38.3333C0.816326 38.803 1.19704 39.1837 1.66667 39.1837ZM20.4882 0.488155L30.623 10.623C30.9355 10.9355 31.1111 11.3594 31.1111 11.8015V38.3333C31.1111 39.2538 30.3649 40 29.4444 40H1.66667C0.746191 40 0 39.2538 0 38.3333V1.66667C0 0.746193 0.746192 0 1.66667 0H19.3096C19.7517 0 20.1756 0.175595 20.4882 0.488155Z" fill="#E9E9E9"/>
    <path opacity="0.2" d="M23.8889 11.6669C23 11.6669 21.8519 11.2966 21.3889 11.1114L25 10.278L30.5556 11.1114C30.7408 11.6669 31.0556 12.6669 30.8334 12.2225C30.5556 11.6669 25 11.6669 23.8889 11.6669Z" fill="black"/>
    <path d="M21.6667 11.1111H31.1111L20 0V9.44444C20 10.3649 20.7462 11.1111 21.6667 11.1111Z" fill="#27AE60"/>
    <path d="M29.7222 11.1107C30.6111 11.1107 31.0185 12.407 31.1111 13.0552V11.1107H29.7222Z" fill="#8BFFBC"/>
    <path d="M6.53064 33.4662C6.53064 33.2073 6.59699 33.0087 6.72968 32.8704C6.86237 32.732 7.05443 32.6629 7.30585 32.6629C7.56076 32.6629 7.75456 32.7356 7.88726 32.881C8.01995 33.0229 8.0863 33.2179 8.0863 33.4662C8.0863 33.718 8.0182 33.9184 7.88202 34.0674C7.74932 34.2128 7.55727 34.2855 7.30585 34.2855C7.05443 34.2855 6.86237 34.2128 6.72968 34.0674C6.59699 33.9219 6.53064 33.7216 6.53064 33.4662Z" fill="#27AE60"/>
    <path d="M11.8262 33.2268C12.1265 33.2268 12.4268 33.1789 12.7271 33.0832V34.0248C12.5909 34.0851 12.4145 34.1347 12.198 34.1738C11.985 34.2163 11.7633 34.2376 11.5328 34.2376C10.3665 34.2376 9.78337 33.6134 9.78337 32.365V29.1942H8.99245V28.6409L9.84099 28.1834L10.26 26.9385H11.0195V28.2473H12.6695V29.1942H11.0195V32.3437C11.0195 32.6451 11.0928 32.8686 11.2395 33.014C11.3897 33.1559 11.5852 33.2268 11.8262 33.2268Z" fill="#27AE60"/>
    <path d="M15.1784 31.1254L13.2351 28.2473H14.6389L15.9589 30.3061L17.2893 28.2473H18.6826L16.7341 31.1254L18.7821 34.1312H17.3888L15.9589 31.9287L14.5341 34.1312H13.1409L15.1784 31.1254Z" fill="#27AE60"/>
    <path d="M21.9562 33.2268C22.2566 33.2268 22.5569 33.1789 22.8572 33.0832V34.0248C22.721 34.0851 22.5446 34.1347 22.3281 34.1738C22.1151 34.2163 21.8934 34.2376 21.6629 34.2376C20.4966 34.2376 19.9135 33.6134 19.9135 32.365V29.1942H19.1225V28.6409L19.9711 28.1834L20.3901 26.9385H21.1496V28.2473H22.7996V29.1942H21.1496V32.3437C21.1496 32.6451 21.2229 32.8686 21.3696 33.014C21.5198 33.1559 21.7153 33.2268 21.9562 33.2268Z" fill="#27AE60"/>
</svg>
