<svg width="32" height="40" viewBox="0 0 32 40" fill="none" xmlns="http://www.w3.org/2000/svg">
<path d="M1.66667 40H29.4444C30.3649 40 31.1111 39.2538 31.1111 38.3333V11.8015C31.1111 11.3594 30.9355 10.9355 30.623 10.623L20.4882 0.488155C20.1756 0.175595 19.7517 0 19.3096 0H1.66667C0.746192 0 0 0.746193 0 1.66667V38.3333C0 39.2538 0.746191 40 1.66667 40Z" fill="white"/>
<path fill-rule="evenodd" clip-rule="evenodd" d="M1.66667 39.1837H29.4444C29.9141 39.1837 30.2948 38.803 30.2948 38.3333V11.8015C30.2948 11.5759 30.2052 11.3597 30.0457 11.2002L19.9109 1.06539C19.7515 0.905916 19.5352 0.816327 19.3096 0.816327H1.66667C1.19704 0.816327 0.816326 1.19704 0.816326 1.66667V38.3333C0.816326 38.803 1.19704 39.1837 1.66667 39.1837ZM20.4882 0.488155L30.623 10.623C30.9355 10.9355 31.1111 11.3594 31.1111 11.8015V38.3333C31.1111 39.2538 30.3649 40 29.4444 40H1.66667C0.746191 40 0 39.2538 0 38.3333V1.66667C0 0.746193 0.746192 0 1.66667 0H19.3096C19.7517 0 20.1756 0.175595 20.4882 0.488155Z" fill="#E9E9E9"/>
<path opacity="0.5" fill-rule="evenodd" clip-rule="evenodd" d="M4.54102 6.5307C4.54102 6.19257 4.81513 5.91846 5.15326 5.91846H17.3982C17.7363 5.91846 18.0104 6.19257 18.0104 6.5307C18.0104 6.86884 17.7363 7.14295 17.3982 7.14295H5.15326C4.81513 7.14295 4.54102 6.86884 4.54102 6.5307Z" fill="#9D9D9D"/>
<path opacity="0.5" fill-rule="evenodd" clip-rule="evenodd" d="M4.54102 9.79584C4.54102 9.45771 4.81513 9.18359 5.15326 9.18359H17.3982C17.7363 9.18359 18.0104 9.45771 18.0104 9.79584C18.0104 10.134 17.7363 10.4081 17.3982 10.4081H5.15326C4.81513 10.4081 4.54102 10.134 4.54102 9.79584Z" fill="#9D9D9D"/>
<path opacity="0.5" fill-rule="evenodd" clip-rule="evenodd" d="M4.54102 14.6938C4.54102 14.3557 4.81513 14.0815 5.15326 14.0815H26.3778C26.7159 14.0815 26.99 14.3557 26.99 14.6938C26.99 15.0319 26.7159 15.306 26.3778 15.306H5.15326C4.81513 15.306 4.54102 15.0319 4.54102 14.6938Z" fill="#9D9D9D"/>
<path opacity="0.5" fill-rule="evenodd" clip-rule="evenodd" d="M4.54102 17.9594C4.54102 17.6213 4.81513 17.3472 5.15326 17.3472H26.3778C26.7159 17.3472 26.99 17.6213 26.99 17.9594C26.99 18.2975 26.7159 18.5717 26.3778 18.5717H5.15326C4.81513 18.5717 4.54102 18.2975 4.54102 17.9594Z" fill="#9D9D9D"/>
<path opacity="0.5" fill-rule="evenodd" clip-rule="evenodd" d="M4.54102 21.2246C4.54102 20.8864 4.81513 20.6123 5.15326 20.6123H26.3778C26.7159 20.6123 26.99 20.8864 26.99 21.2246C26.99 21.5627 26.7159 21.8368 26.3778 21.8368H5.15326C4.81513 21.8368 4.54102 21.5627 4.54102 21.2246Z" fill="#9D9D9D"/>
<path opacity="0.5" fill-rule="evenodd" clip-rule="evenodd" d="M4.54102 24.4897C4.54102 24.1516 4.81513 23.8774 5.15326 23.8774H26.3778C26.7159 23.8774 26.99 24.1516 26.99 24.4897C26.99 24.8278 26.7159 25.1019 26.3778 25.1019H5.15326C4.81513 25.1019 4.54102 24.8278 4.54102 24.4897Z" fill="#9D9D9D"/>
<path opacity="0.5" fill-rule="evenodd" clip-rule="evenodd" d="M4.54102 27.7553C4.54102 27.4172 4.81513 27.1431 5.15326 27.1431H26.3778C26.7159 27.1431 26.99 27.4172 26.99 27.7553C26.99 28.0934 26.7159 28.3676 26.3778 28.3676H5.15326C4.81513 28.3676 4.54102 28.0934 4.54102 27.7553Z" fill="#9D9D9D"/>
<path opacity="0.5" fill-rule="evenodd" clip-rule="evenodd" d="M4.54102 31.0204C4.54102 30.6823 4.81513 30.4082 5.15326 30.4082H26.3778C26.7159 30.4082 26.99 30.6823 26.99 31.0204C26.99 31.3586 26.7159 31.6327 26.3778 31.6327H5.15326C4.81513 31.6327 4.54102 31.3586 4.54102 31.0204Z" fill="#9D9D9D"/>
<path opacity="0.5" fill-rule="evenodd" clip-rule="evenodd" d="M4.54102 34.2856C4.54102 33.9475 4.81513 33.6733 5.15326 33.6733H26.3778C26.7159 33.6733 26.99 33.9475 26.99 34.2856C26.99 34.6237 26.7159 34.8978 26.3778 34.8978H5.15326C4.81513 34.8978 4.54102 34.6237 4.54102 34.2856Z" fill="#9D9D9D"/>
<path opacity="0.2" d="M23.8887 11.6667C22.9998 11.6667 21.8516 11.2964 21.3887 11.1112L24.9998 10.2778L30.5553 11.1112C30.7405 11.6667 31.0553 12.6667 30.8331 12.2223C30.5553 11.6667 24.9998 11.6667 23.8887 11.6667Z" fill="black"/>
<path d="M21.6667 11.1111H31.1111L20 0V9.44444C20 10.3649 20.7462 11.1111 21.6667 11.1111Z" fill="#27AE60"/>
<path d="M29.7227 11.1113C30.6115 11.1113 31.019 12.4076 31.1115 13.0558V11.1113H29.7227Z" fill="#8BFFBC"/>
</svg>
