<svg width="32" height="40" viewBox="0 0 32 40" fill="none" xmlns="http://www.w3.org/2000/svg">
<path d="M1.66667 40H29.4444C30.3649 40 31.1111 39.2538 31.1111 38.3333V11.8015C31.1111 11.3594 30.9355 10.9355 30.623 10.623L20.4882 0.488155C20.1756 0.175595 19.7517 0 19.3096 0H1.66667C0.746192 0 0 0.746193 0 1.66667V38.3333C0 39.2538 0.746191 40 1.66667 40Z" fill="white"/>
<path fill-rule="evenodd" clip-rule="evenodd" d="M1.66667 39.1837H29.4444C29.9141 39.1837 30.2948 38.803 30.2948 38.3333V11.8015C30.2948 11.5759 30.2052 11.3597 30.0457 11.2002L19.9109 1.06539C19.7515 0.905916 19.5352 0.816327 19.3096 0.816327H1.66667C1.19704 0.816327 0.816326 1.19704 0.816326 1.66667V38.3333C0.816326 38.803 1.19704 39.1837 1.66667 39.1837ZM20.4882 0.488155L30.623 10.623C30.9355 10.9355 31.1111 11.3594 31.1111 11.8015V38.3333C31.1111 39.2538 30.3649 40 29.4444 40H1.66667C0.746191 40 0 39.2538 0 38.3333V1.66667C0 0.746193 0.746192 0 1.66667 0H19.3096C19.7517 0 20.1756 0.175595 20.4882 0.488155Z" fill="#E9E9E9"/>
<path opacity="0.2" d="M23.8889 11.6667C23 11.6667 21.8519 11.2963 21.3889 11.1111L25 10.2778L30.5556 11.1111C30.7408 11.6667 31.0556 12.6667 30.8334 12.2222C30.5556 11.6667 25 11.6667 23.8889 11.6667Z" fill="black"/>
<path d="M21.6667 11.1111H31.1111L20 0V9.44444C20 10.3649 20.7462 11.1111 21.6667 11.1111Z" fill="#481ACC"/>
<path d="M29.7222 11.1111C30.6111 11.1111 31.0185 12.4074 31.1111 13.0556V11.1111H29.7222Z" fill="#95B8FF"/>
<path d="M4.29419 33.638C4.29419 33.3858 4.35983 33.1924 4.4911 33.0576C4.62237 32.9229 4.81237 32.8555 5.06109 32.8555C5.31327 32.8555 5.50499 32.9264 5.63627 33.068C5.76754 33.2062 5.83317 33.3962 5.83317 33.638C5.83317 33.8833 5.76581 34.0784 5.63108 34.2235C5.49981 34.3652 5.30981 34.436 5.06109 34.436C4.81237 34.436 4.62237 34.3652 4.4911 34.2235C4.35983 34.0819 4.29419 33.8867 4.29419 33.638Z" fill="#481ACC"/>
<path d="M10.305 34.3893C9.57959 34.3893 9.0165 34.1285 8.61578 33.6069H8.54323C8.5916 34.0905 8.61578 34.3842 8.61578 34.4878V36.8351H7.39806V28.5547H8.3826C8.41023 28.6618 8.46723 28.9174 8.5536 29.3216H8.61578C8.99577 28.7412 9.56577 28.451 10.3258 28.451C11.0408 28.451 11.597 28.7101 11.9943 29.2283C12.395 29.7465 12.5954 30.4737 12.5954 31.4098C12.5954 32.346 12.3916 33.0766 11.9839 33.6017C11.5797 34.1268 11.0201 34.3893 10.305 34.3893ZM10.0097 29.4459C9.52604 29.4459 9.17195 29.5876 8.94741 29.8709C8.72632 30.1541 8.61578 30.6067 8.61578 31.2285V31.4098C8.61578 32.1076 8.72632 32.6137 8.94741 32.9281C9.1685 33.239 9.52949 33.3944 10.0304 33.3944C10.4518 33.3944 10.7766 33.2217 11.0046 32.8763C11.2326 32.5308 11.3466 32.0386 11.3466 31.3995C11.3466 30.7569 11.2326 30.2716 11.0046 29.9434C10.78 29.6118 10.4484 29.4459 10.0097 29.4459Z" fill="#481ACC"/>
<path d="M19.0518 34.2857H17.8289V30.7621C17.8289 30.3199 17.7391 29.99 17.5595 29.7724C17.3833 29.5548 17.1018 29.4459 16.7149 29.4459C16.2001 29.4459 15.8236 29.5979 15.5852 29.9019C15.3469 30.2059 15.2277 30.7155 15.2277 31.4306V34.2857H14.01V28.5547H14.9634L15.1344 29.306H15.1966C15.3693 29.0331 15.6146 28.8224 15.9324 28.6739C16.2502 28.5253 16.6026 28.451 16.9895 28.451C18.3644 28.451 19.0518 29.1506 19.0518 30.5497V34.2857Z" fill="#481ACC"/>
<path d="M25.586 28.5547V29.2231L24.6067 29.4045C24.6965 29.5254 24.7708 29.6739 24.8295 29.8501C24.8882 30.0263 24.9176 30.2128 24.9176 30.4098C24.9176 31.0005 24.7138 31.4651 24.3061 31.8036C23.8985 32.1422 23.3372 32.3115 22.6221 32.3115C22.439 32.3115 22.2732 32.2976 22.1246 32.27C21.8621 32.4324 21.7308 32.6224 21.7308 32.84C21.7308 32.9713 21.7913 33.0697 21.9122 33.1354C22.0365 33.201 22.2628 33.2338 22.591 33.2338H23.5911C24.2232 33.2338 24.7034 33.3685 25.0316 33.638C25.3598 33.9074 25.5239 34.2961 25.5239 34.8039C25.5239 35.4533 25.2561 35.9542 24.7207 36.3066C24.1852 36.659 23.4114 36.8351 22.3993 36.8351C21.6185 36.8351 21.0226 36.697 20.6116 36.4206C20.2005 36.1442 19.9949 35.7504 19.9949 35.2392C19.9949 34.8868 20.1055 34.5897 20.3266 34.3479C20.5511 34.1095 20.8637 33.9437 21.2645 33.8504C21.1021 33.7814 20.9674 33.6708 20.8603 33.5188C20.7566 33.3634 20.7048 33.201 20.7048 33.0317C20.7048 32.8175 20.7653 32.6362 20.8862 32.4876C21.0071 32.3391 21.1867 32.1923 21.4251 32.0472C21.128 31.9194 20.8862 31.7121 20.6996 31.4254C20.5166 31.1352 20.425 30.7967 20.425 30.4098C20.425 29.7879 20.6202 29.306 21.0105 28.964C21.4044 28.622 21.964 28.451 22.6894 28.451C22.8518 28.451 23.0211 28.4631 23.1973 28.4873C23.3769 28.508 23.5116 28.5305 23.6014 28.5547H25.586ZM21.0831 35.177C21.0831 35.4395 21.2005 35.6416 21.4355 35.7832C21.6738 35.9249 22.0072 35.9957 22.4355 35.9957C23.0988 35.9957 23.5928 35.9007 23.9175 35.7107C24.2422 35.5207 24.4046 35.2685 24.4046 34.9542C24.4046 34.7054 24.3148 34.5275 24.1351 34.4204C23.959 34.3168 23.6291 34.265 23.1454 34.265H22.2231C21.8742 34.265 21.5961 34.3462 21.3888 34.5085C21.185 34.6743 21.0831 34.8972 21.0831 35.177ZM21.6065 30.4098C21.6065 30.769 21.698 31.0454 21.8811 31.2388C22.0676 31.4323 22.3336 31.529 22.6791 31.529C23.3838 31.529 23.7362 31.1525 23.7362 30.3994C23.7362 30.0263 23.6481 29.7396 23.4719 29.5392C23.2992 29.3354 23.0349 29.2335 22.6791 29.2335C22.3267 29.2335 22.059 29.3337 21.8759 29.534C21.6963 29.7344 21.6065 30.0263 21.6065 30.4098Z" fill="#481ACC"/>
</svg>
