<svg width="32" height="40" viewBox="0 0 32 40" fill="none" xmlns="http://www.w3.org/2000/svg">
<path d="M1.66667 40H29.4444C30.3649 40 31.1111 39.2538 31.1111 38.3333V11.8015C31.1111 11.3594 30.9355 10.9355 30.623 10.623L20.4882 0.488155C20.1756 0.175595 19.7517 0 19.3096 0H1.66667C0.746192 0 0 0.746193 0 1.66667V38.3333C0 39.2538 0.746191 40 1.66667 40Z" fill="white"/>
<path fill-rule="evenodd" clip-rule="evenodd" d="M1.66667 39.1837H29.4444C29.9141 39.1837 30.2948 38.803 30.2948 38.3333V11.8015C30.2948 11.5759 30.2052 11.3597 30.0457 11.2002L19.9109 1.06539C19.7515 0.905916 19.5352 0.816327 19.3096 0.816327H1.66667C1.19704 0.816327 0.816326 1.19704 0.816326 1.66667V38.3333C0.816326 38.803 1.19704 39.1837 1.66667 39.1837ZM20.4882 0.488155L30.623 10.623C30.9355 10.9355 31.1111 11.3594 31.1111 11.8015V38.3333C31.1111 39.2538 30.3649 40 29.4444 40H1.66667C0.746191 40 0 39.2538 0 38.3333V1.66667C0 0.746193 0.746192 0 1.66667 0H19.3096C19.7517 0 20.1756 0.175595 20.4882 0.488155Z" fill="#E9E9E9"/>
<path opacity="0.2" d="M23.8889 11.6667C23 11.6667 21.8519 11.2963 21.3889 11.1111L25 10.2778L30.5556 11.1111C30.7408 11.6667 31.0556 12.6667 30.8334 12.2222C30.5556 11.6667 25 11.6667 23.8889 11.6667Z" fill="black"/>
<path d="M21.6667 11.1111H31.1111L20 0V9.44444C20 10.3649 20.7462 11.1111 21.6667 11.1111Z" fill="#27AE60"/>
<path d="M29.7222 11.1111C30.6111 11.1111 31.0185 12.4074 31.1111 13.0556V11.1111H29.7222Z" fill="#8BFFBC"/>
<path d="M6.53052 33.4664C6.53052 33.2075 6.59686 33.0089 6.72956 32.8706C6.86225 32.7323 7.05431 32.6631 7.30573 32.6631C7.56064 32.6631 7.75444 32.7358 7.88713 32.8812C8.01983 33.0231 8.08617 33.2182 8.08617 33.4664C8.08617 33.7182 8.01808 33.9186 7.8819 34.0676C7.7492 34.213 7.55715 34.2857 7.30573 34.2857C7.05431 34.2857 6.86225 34.213 6.72956 34.0676C6.59686 33.9222 6.53052 33.7218 6.53052 33.4664Z" fill="#27AE60"/>
<path d="M11.826 33.227C12.1263 33.227 12.4266 33.1792 12.727 33.0834V34.025C12.5908 34.0853 12.4144 34.135 12.1979 34.174C11.9849 34.2166 11.7632 34.2378 11.5327 34.2378C10.3664 34.2378 9.78325 33.6136 9.78325 32.3652V29.1945H8.99233V28.6412L9.84087 28.1837L10.2599 26.9388H11.0194V28.2475H12.6693V29.1945H11.0194V32.3439C11.0194 32.6454 11.0927 32.8688 11.2394 33.0142C11.3895 33.1561 11.5851 33.227 11.826 33.227Z" fill="#27AE60"/>
<path d="M15.1783 31.1256L13.235 28.2475H14.6388L15.9587 30.3063L17.2892 28.2475H18.6824L16.7339 31.1256L18.782 34.1314H17.3887L15.9587 31.9289L14.534 34.1314H13.1407L15.1783 31.1256Z" fill="#27AE60"/>
<path d="M21.9561 33.227C22.2564 33.227 22.5567 33.1792 22.857 33.0834V34.025C22.7209 34.0853 22.5445 34.135 22.328 34.174C22.115 34.2166 21.8933 34.2378 21.6628 34.2378C20.4965 34.2378 19.9133 33.6136 19.9133 32.3652V29.1945H19.1224V28.6412L19.971 28.1837L20.39 26.9388H21.1495V28.2475H22.7994V29.1945H21.1495V32.3439C21.1495 32.6454 21.2228 32.8688 21.3695 33.0142C21.5196 33.1561 21.7152 33.227 21.9561 33.227Z" fill="#27AE60"/>
</svg>
