<svg width="32" height="40" viewBox="0 0 32 40" fill="none" xmlns="http://www.w3.org/2000/svg">
<path d="M1.66667 40H29.4444C30.3649 40 31.1111 39.2538 31.1111 38.3333V11.8015C31.1111 11.3594 30.9355 10.9355 30.623 10.623L20.4882 0.488155C20.1756 0.175595 19.7517 0 19.3096 0H1.66667C0.746192 0 0 0.746193 0 1.66667V38.3333C0 39.2538 0.746191 40 1.66667 40Z" fill="white"/>
<path fill-rule="evenodd" clip-rule="evenodd" d="M1.66667 39.1837H29.4444C29.9141 39.1837 30.2948 38.803 30.2948 38.3333V11.8015C30.2948 11.5759 30.2052 11.3597 30.0457 11.2002L19.9109 1.06539C19.7515 0.905916 19.5352 0.816327 19.3096 0.816327H1.66667C1.19704 0.816327 0.816326 1.19704 0.816326 1.66667V38.3333C0.816326 38.803 1.19704 39.1837 1.66667 39.1837ZM20.4882 0.488155L30.623 10.623C30.9355 10.9355 31.1111 11.3594 31.1111 11.8015V38.3333C31.1111 39.2538 30.3649 40 29.4444 40H1.66667C0.746191 40 0 39.2538 0 38.3333V1.66667C0 0.746193 0.746192 0 1.66667 0H19.3096C19.7517 0 20.1756 0.175595 20.4882 0.488155Z" fill="#E9E9E9"/>
<path opacity="0.2" d="M23.8889 11.6667C23 11.6667 21.8519 11.2963 21.3889 11.1111L25 10.2778L30.5556 11.1111C30.7408 11.6667 31.0556 12.6667 30.8334 12.2222C30.5556 11.6667 25 11.6667 23.8889 11.6667Z" fill="black"/>
<path d="M21.6667 11.1111H31.1111L20 0V9.44444C20 10.3649 20.7462 11.1111 21.6667 11.1111Z" fill="#27AE60"/>
<path d="M29.7222 11.1111C30.6111 11.1111 31.0185 12.4074 31.1111 13.0556V11.1111H29.7222Z" fill="#8BFFBC"/>
<path d="M7.33984 33.638C7.33984 33.3858 7.40548 33.1924 7.53675 33.0576C7.66802 32.9229 7.85802 32.8556 8.10674 32.8556C8.35892 32.8556 8.55065 32.9264 8.68192 33.068C8.81319 33.2062 8.87883 33.3962 8.87883 33.638C8.87883 33.8833 8.81146 34.0784 8.67674 34.2235C8.54547 34.3652 8.35547 34.436 8.10674 34.436C7.85802 34.436 7.66802 34.3652 7.53675 34.2235C7.40548 34.0819 7.33984 33.8867 7.33984 33.638Z" fill="#27AE60"/>
<path d="M11.7184 31.358L9.796 28.5547H11.1847L12.4905 30.56L13.8067 28.5547H15.185L13.2574 31.358L15.2835 34.2857H13.9051L12.4905 32.1405L11.0811 34.2857H9.70273L11.7184 31.358Z" fill="#27AE60"/>
<path d="M17.5065 34.2857H16.2887V26.2229H17.5065V34.2857Z" fill="#27AE60"/>
<path d="M23.1028 32.6535C23.1028 33.2131 22.8989 33.6432 22.4913 33.9437C22.0837 34.2408 21.4999 34.3894 20.7399 34.3894C19.9764 34.3894 19.3633 34.2736 18.9004 34.0422V32.9903C19.574 33.3012 20.201 33.4566 20.7813 33.4566C21.531 33.4566 21.9058 33.2304 21.9058 32.7778C21.9058 32.6327 21.8643 32.5118 21.7814 32.4151C21.6985 32.3184 21.562 32.2182 21.3721 32.1146C21.1821 32.0109 20.9178 31.8935 20.5792 31.7622C19.9194 31.5066 19.4721 31.2509 19.2372 30.9953C19.0057 30.7397 18.89 30.408 18.89 30.0004C18.89 29.5099 19.0869 29.1299 19.4807 28.8604C19.878 28.5875 20.4169 28.4511 21.0974 28.4511C21.771 28.4511 22.4084 28.5875 23.0095 28.8604L22.6157 29.7776C21.9973 29.522 21.4774 29.3941 21.056 29.3941C20.4134 29.3941 20.0922 29.5772 20.0922 29.9434C20.0922 30.123 20.1751 30.275 20.3409 30.3994C20.5102 30.5238 20.8763 30.6948 21.4394 30.9124C21.9127 31.0955 22.2564 31.263 22.4706 31.415C22.6848 31.567 22.8437 31.7432 22.9473 31.9436C23.0509 32.1405 23.1028 32.3771 23.1028 32.6535Z" fill="#27AE60"/>
</svg>
