<svg width="24" height="21" viewBox="0 0 24 21" fill="none" xmlns="http://www.w3.org/2000/svg">
<path d="M13.1186 8.79948H10.4766V6.1575C10.4766 5.95569 10.3849 5.75387 10.2564 5.62544C10.128 5.49701 9.92618 5.40527 9.72436 5.40527C9.30238 5.40527 8.97213 5.73552 8.97213 6.1575V8.79948H6.3118C6.10998 8.79948 5.90816 8.89122 5.77973 9.01965C5.77973 9.01965 5.77974 9.01965 5.76139 9.03799C5.63296 9.16642 5.55957 9.3499 5.55957 9.55171C5.55957 9.68014 5.59626 9.79023 5.65131 9.90031C5.77974 10.1388 6.03659 10.3039 6.33015 10.3039H8.97213V12.9459C8.97213 13.1477 9.06386 13.3496 9.19229 13.478C9.32072 13.6064 9.52254 13.6982 9.72436 13.6982C10.1463 13.6982 10.4766 13.3679 10.4766 12.9459V10.3223H13.1186C13.3204 10.3223 13.5222 10.2306 13.6506 10.1021C13.7791 9.9737 13.8708 9.77188 13.8708 9.57006C13.8708 9.14808 13.5406 8.79948 13.1186 8.79948Z" fill="#3F88C5"/>
<path d="M18.7329 18.2666C18.6045 18.2666 18.4944 18.3033 18.3843 18.3767C17.467 18.9638 16.4395 19.3674 15.3754 19.5509C15.0085 19.6243 14.77 19.9545 14.8433 20.3215C14.8984 20.6334 15.1736 20.8719 15.4855 20.8719C15.5222 20.8719 15.5589 20.8719 15.5956 20.8535C15.8891 20.7985 16.1827 20.7435 16.4579 20.6517C16.4579 20.6517 16.4579 20.6517 16.4762 20.6517C16.8432 20.5049 17.1504 20.4618 17.4806 20.2783C17.6091 20.2049 17.89 20.0764 18.0185 20.003C18.3304 19.8012 19.6063 19.2027 19.1709 18.492C18.9084 18.2666 18.9347 18.2666 18.7329 18.2666Z" fill="#3F88C5"/>
<path d="M23.4223 9.67178C23.4957 10.0204 23.5155 10.3704 23.5522 10.719L23.6082 11.2804C23.6363 11.4318 23.6313 11.4487 23.6496 11.8815V11.8999V11.9182V11.9366V11.9549V11.9733V11.9916V12.01C23.6313 12.1201 23.6313 12.2118 23.6313 12.3219V12.3402V12.3586V12.3769V12.3953C23.6129 12.7439 23.3194 13.0191 22.9708 13.0191H22.9341C22.5672 13.0007 22.2919 12.6888 22.3103 12.3219C22.3286 12.1567 22.3286 11.9733 22.3286 11.7898C22.3286 10.8725 22.1819 9.97344 21.8883 9.11113C21.7782 8.76253 21.9617 8.37725 22.3103 8.26716C22.3837 8.24882 22.4571 8.23047 22.5305 8.23047C22.8057 8.23047 23.0625 8.39559 23.1543 8.6708L23.3744 9.44138L23.4223 9.67178Z" fill="#3F88C5"/>
<path d="M22.5861 13.7164C22.5127 13.698 22.4393 13.6797 22.366 13.6797C22.0907 13.6797 21.8339 13.8448 21.7422 14.12C21.3752 15.1475 20.8248 16.0832 20.0909 16.9088C19.8524 17.184 19.8707 17.606 20.146 17.8445C20.2744 17.9546 20.4212 18.0096 20.5863 18.0096C20.7698 18.0096 20.9532 17.9362 21.0817 17.7894C21.1 17.7527 21.1367 17.7344 21.155 17.716C21.155 17.716 21.155 17.716 21.1734 17.6977C21.1734 17.6977 21.1734 17.6794 21.1917 17.6794L21.2101 17.661C21.2101 17.661 21.2101 17.6427 21.2284 17.6427C21.2284 17.6427 21.2284 17.6427 21.2284 17.6243C21.2284 17.6243 21.2284 17.606 21.2468 17.606C21.4303 17.2941 21.6137 16.9822 21.7788 16.6703C21.944 16.34 22.2375 16.0019 22.366 15.6533C23.1113 14.12 22.9347 13.8265 22.5861 13.7164Z" fill="#3F88C5"/>
<path d="M21.6868 6.81743C21.5767 6.89082 21.4483 6.92751 21.3198 6.92751C21.1734 6.92751 20.8587 6.88666 20.7716 6.72324C20.6845 6.55981 19.6575 5.62935 19.1549 5.18454C18.8613 4.98272 18.7696 4.57909 18.9714 4.26719C19.0998 4.08372 19.3017 3.97363 19.5218 3.97363C19.6503 3.97363 19.7787 4.01033 19.8888 4.08372L19.8888 4.08372C20.1273 4.24884 20.3658 4.41397 20.6043 4.59743C20.8245 4.7809 21.0446 4.98271 21.2648 5.18452L21.2648 5.18454L21.2831 5.20289L21.3382 5.25793L21.3565 5.27628L21.3749 5.29462L21.3932 5.31297L21.4116 5.33132L21.4666 5.38636C21.485 5.38636 21.485 5.40471 21.485 5.40471C21.5217 5.4414 21.54 5.47809 21.5767 5.51479L21.8519 5.90008C22.0721 6.19363 21.9803 6.61561 21.6868 6.81743Z" fill="#3F88C5"/>
<path d="M17.2283 2.94647C17.3384 2.59787 17.1549 2.23093 16.8063 2.12085C16.6963 2.08415 16.5862 2.04746 16.4761 2.02911H16.4578C16.4578 2.02911 16.4578 2.02911 16.4394 2.02911C16.4394 2.02911 16.4394 2.02911 16.4211 2.02911C16.4211 2.02911 16.4211 2.02911 16.4027 2.02911C16.4027 2.02911 16.4027 2.02911 16.3844 2.02911C16.3844 2.02911 16.3844 2.02911 16.366 2.02911C16.366 2.02911 16.366 2.02911 16.3477 2.02911C16.3477 2.02911 16.3477 2.02911 16.3293 2.02911C16.3293 2.02911 16.3293 2.02911 16.311 2.02911C16.311 2.02911 16.311 2.02911 16.2926 2.02911C16.2926 2.02911 16.2926 2.02911 16.2743 2.02911C16.2743 2.02911 16.2743 2.02911 16.2559 2.02911C16.2559 2.02911 16.2559 2.02911 16.2376 2.02911C16.0725 1.99242 15.9073 1.95572 15.7239 1.93738C14.0543 0.689774 12.0545 0.0109319 9.94454 0.0109319C7.13743 -0.117498 4.69727 0.891592 2.88091 2.7263C1.06455 4.56101 0.0371094 6.98283 0.0371094 9.56976C0.0371094 12.1567 1.0462 14.5785 2.86256 16.4132C4.5138 18.0645 6.67875 19.0552 8.99049 19.2203C8.95379 19.4955 9.08222 19.7707 9.33908 19.9175C10.4399 20.5046 11.6508 20.8716 12.9351 21C12.9535 21 12.9718 21 12.9902 21C13.3204 21 13.614 20.7431 13.6506 20.3945C13.6873 20.0276 13.4121 19.7157 13.0635 19.679C12.3297 19.6056 11.5958 19.4405 10.9169 19.1836C13.0452 18.9268 15.0083 17.9727 16.5495 16.4316C18.3842 14.5969 19.3749 12.1751 19.3749 9.58811C19.3749 7.23968 18.5493 5.01969 17.0265 3.27671C17.1182 3.16663 17.1916 3.0749 17.2283 2.94647ZM17.8705 9.56976C17.8705 14.0648 14.2011 17.7342 9.70602 17.7342C9.21065 17.7342 8.73363 17.6975 8.2566 17.6058C7.39429 17.459 6.58702 17.1655 5.83479 16.7618C3.30289 15.3674 1.55992 12.6704 1.55992 9.56976C1.55992 5.07473 5.22933 1.40531 9.72437 1.40531C10.605 1.40531 11.4673 1.55209 12.2563 1.80895L14.5863 3.01985C16.5862 4.52432 17.8705 6.89109 17.8705 9.56976Z" fill="#3F88C5"/>
</svg>
