<svg width="13" height="12" viewBox="0 0 13 12" fill="none" xmlns="http://www.w3.org/2000/svg">
<path d="M11.7133 0.735892C11.1987 0.439309 10.6227 1.01178 10.2861 1.3463C9.51257 2.14983 8.85881 3.07752 8.12738 3.92243C7.31503 4.85012 6.56418 5.78125 5.72918 6.68824C5.25343 7.19519 4.73883 7.74352 4.42166 8.37807C3.70965 7.64006 3.09473 6.83653 2.3018 6.18474C1.73219 5.71572 0.780679 5.37776 0.800097 6.49857C0.838934 7.95389 2.04936 9.51612 2.93938 10.5093C3.3148 10.9301 3.80998 11.3749 4.38606 11.3956C5.07866 11.437 5.79391 10.5507 6.20817 10.0645C6.93961 9.21954 7.53511 8.27116 8.20829 7.40556C9.07889 6.26751 9.97214 5.1467 10.8233 3.98796C11.3573 3.26719 13.0403 1.49459 11.7133 0.735892ZM1.6707 6.41235C1.65128 6.41235 1.63186 6.41235 1.59302 6.43304C1.51535 6.41235 1.45386 6.39166 1.37618 6.35027C1.43444 6.30889 1.53477 6.32958 1.6707 6.41235Z" fill="#00D06C"/>
</svg>
