<svg width="62" height="62" viewBox="0 0 62 62" fill="none" xmlns="http://www.w3.org/2000/svg">
<path opacity="0.3" d="M8.08193 15.1184C4.96453 19.5806 3.19189 25.0208 3.19189 30.8888C3.19189 46.1702 15.6004 58.5787 30.8817 58.5787C46.1631 58.5787 58.5716 46.1702 58.5716 30.8888C58.5716 15.6075 46.1631 3.19897 30.8817 3.19897C29.1702 3.19897 27.4587 3.38235 25.8083 3.68798" stroke="#0E7D7D" stroke-miterlimit="10" stroke-linecap="round" stroke-linejoin="round"/>
<path opacity="0.3" d="M12.7886 9.86157C11.8717 10.6562 10.9548 11.512 10.1602 12.4288" stroke="#0E7D7D" stroke-miterlimit="10" stroke-linecap="round" stroke-linejoin="round"/>
<path d="M52.5216 40.0913C57.6139 28.134 52.0487 14.3126 40.0913 9.22033C28.134 4.12807 14.3126 9.6933 9.22035 21.6506C4.12809 33.6079 9.69333 47.4294 21.6506 52.5216C33.608 57.6139 47.4294 52.0486 52.5216 40.0913Z" fill="#0E7D7D"/>
<path d="M22.0884 31.1652L29.2936 39L41.0884 23" stroke="white" stroke-width="3" stroke-miterlimit="10" stroke-linecap="round" stroke-linejoin="round"/>
</svg>
