<svg width="20" height="21" viewBox="0 0 20 21" fill="none" xmlns="http://www.w3.org/2000/svg">
<path d="M8.45824 19.5843H4.21105C3.20824 19.5843 2.40206 18.7781 2.40206 17.7753V3.22472C2.40206 2.22191 3.20824 1.41573 4.21105 1.41573H14.2981C15.3009 1.41573 16.1071 2.22191 16.1071 3.22472V9.87079C16.1071 10.264 16.4217 10.5787 16.815 10.5787C17.2082 10.5787 17.5228 10.264 17.5228 9.87079V3.22472C17.5228 1.45506 16.0678 0 14.2981 0H4.21105C2.44138 0 0.986328 1.45506 0.986328 3.22472V17.7753C0.986328 19.5449 2.44138 21 4.21105 21H8.45824C8.8515 21 9.1661 20.6854 9.1661 20.2921C9.1661 19.8989 8.8515 19.5843 8.45824 19.5843Z" fill="#3F88C5"/>
<path d="M13.551 4.97461H4.89927C4.50601 4.97461 4.19141 5.28922 4.19141 5.68248C4.19141 6.07573 4.50601 6.39034 4.89927 6.39034H13.5313C13.9245 6.39034 14.2392 6.07573 14.2392 5.68248C14.2392 5.28922 13.9246 4.97461 13.551 4.97461Z" fill="#3F88C5"/>
<path d="M13.551 8.23828H4.89927C4.50601 8.23828 4.19141 8.55289 4.19141 8.94615C4.19141 9.3394 4.50601 9.65401 4.89927 9.65401H13.5313C13.9245 9.65401 14.2392 9.3394 14.2392 8.94615C14.2392 8.55289 13.9246 8.23828 13.551 8.23828Z" fill="#3F88C5"/>
<path d="M10.7785 12.368C10.7785 11.9748 10.4639 11.6602 10.0706 11.6602H4.89927C4.50601 11.6602 4.19141 11.9748 4.19141 12.368C4.19141 12.7613 4.50601 13.0759 4.89927 13.0759H10.0706C10.4639 13.0759 10.7785 12.7416 10.7785 12.368Z" fill="#3F88C5"/>
<path d="M18.9585 11.994C18.0147 11.0502 16.4613 11.0502 15.5175 11.994L11.1523 16.3592C11.054 16.4575 10.995 16.5558 10.9754 16.6934L10.2282 19.7215C10.1692 19.9575 10.2282 20.1934 10.4051 20.3704C10.5428 20.508 10.7197 20.5867 10.9164 20.5867C10.9557 20.5867 10.995 20.5867 11.0344 20.567L14.2394 19.9968C14.3771 19.9771 14.5147 19.8985 14.613 19.8002L18.9585 15.4547C19.922 14.4912 19.922 12.9575 18.9585 11.994ZM13.7675 18.6597L11.8405 19.0137L12.2928 17.2243L15.3799 14.1373L16.8349 15.5923L13.7675 18.6597ZM17.9754 14.4519L17.8377 14.5895L16.3827 13.1344L16.5203 12.9968C16.9136 12.6035 17.5821 12.6035 17.9754 12.9968C18.3686 13.3901 18.3686 14.0586 17.9754 14.4519Z" fill="#3F88C5"/>
</svg>
