<svg width="15" height="15" viewBox="0 0 15 15" fill="none" xmlns="http://www.w3.org/2000/svg">
<path d="M0.826352 14.9959C0.595465 14.9955 0.375362 14.8981 0.219744 14.7276C0.0612562 14.5584 -0.0174969 14.3296 0.00327405 14.0987L0.204928 11.8814L9.52053 2.56906L12.4318 5.47947L3.11863 14.791L0.901253 14.9926C0.875737 14.9951 0.850222 14.9959 0.826352 14.9959ZM13.0129 4.89755L10.1024 1.98715L11.8482 0.241398C12.0026 0.0868427 12.2121 0 12.4305 0C12.649 0 12.8585 0.0868427 13.0129 0.241398L14.7586 1.98715C14.9132 2.14153 15 2.35102 15 2.56948C15 2.78793 14.9132 2.99742 14.7586 3.1518L13.0137 4.89673L13.0129 4.89755Z" fill="#0E7D7D"/>
</svg>
