<svg width="22" height="21" viewBox="0 0 22 21" fill="none" xmlns="http://www.w3.org/2000/svg">
<path d="M15.6632 12.6395C15.609 12.4409 15.3557 12.3506 15.1025 12.3506C14.8674 12.3506 14.6141 12.4409 14.5599 12.6395L13.2937 16.7745C13.2937 16.7925 13.2756 16.8287 13.2756 16.8467C13.2756 17.0634 13.5831 17.2079 13.8183 17.2079C13.963 17.2079 14.0715 17.1537 14.1077 17.0453L14.3609 16.1786H15.8622L16.1154 17.0453C16.1516 17.1717 16.2601 17.2079 16.4048 17.2079C16.64 17.2079 16.9475 17.0634 16.9475 16.8467C16.9475 16.8287 16.9475 16.8106 16.9294 16.7745L15.6632 12.6395ZM14.5418 15.4744L15.1206 13.452L15.6813 15.4744H14.5418Z" fill="#3F88C5"/>
<path d="M19.0637 8.57696H12.7691V5.8865L14.8131 4.4239C14.9758 4.31556 15.0663 4.11694 15.0663 3.91831C15.0663 3.71969 14.9758 3.53912 14.8131 3.41273L12.733 1.93207C12.5702 0.848667 11.6296 0 10.4901 0H2.60376C1.35569 0 0.342773 1.01118 0.342773 2.25709V10.1479C0.342773 11.3938 1.35569 12.405 2.60376 12.405H8.89833V15.1135L6.8544 16.5761C6.69161 16.6844 6.60117 16.8831 6.60117 17.0817C6.60117 17.2803 6.69161 17.4609 6.8544 17.5873L8.9345 19.0679C9.09729 20.1513 10.0379 21 11.1774 21H19.0818C20.3299 21 21.3428 19.9888 21.3428 18.7429V10.8341C21.3247 9.58813 20.3118 8.57696 19.0637 8.57696ZM2.60376 11.1952C2.04303 11.1952 1.57275 10.7257 1.57275 10.1659V2.27515C1.57275 1.71539 2.04303 1.24592 2.60376 1.24592H10.5081C11.0689 1.24592 11.5392 1.71539 11.5392 2.27515C11.5392 2.47377 11.6296 2.65434 11.7924 2.78074L13.4022 3.91831L11.7924 5.05589C11.6296 5.16423 11.5392 5.36285 11.5392 5.56148V8.5589H11.1593C9.91125 8.5589 8.89833 9.57008 8.89833 10.816V11.1952H2.60376ZM20.0947 18.7068C20.0947 19.2666 19.6244 19.736 19.0637 19.736H11.1593C10.5986 19.736 10.1283 19.2666 10.1283 18.7068C10.1283 18.5082 10.0379 18.3276 9.87507 18.2012L8.26525 17.0636L9.87507 15.9261C10.0379 15.8177 10.1283 15.6191 10.1283 15.4205V10.8341C10.1283 10.2743 10.5986 9.80482 11.1593 9.80482H12.1361H19.0456C19.6063 9.80482 20.0766 10.2743 20.0766 10.8341V18.7068H20.0947Z" fill="#3F88C5"/>
<path d="M8.44603 5.68747C8.645 5.68747 8.7897 5.52496 8.7897 5.34439C8.7897 5.16383 8.62691 5.00132 8.44603 5.00132H6.90856V4.15265C6.90856 3.95402 6.74577 3.80957 6.56489 3.80957C6.36593 3.80957 6.22123 3.97208 6.22123 4.15265V5.00132H4.68376C4.48479 5.00132 4.34009 5.16383 4.34009 5.34439C4.34009 5.52496 4.50288 5.68747 4.68376 5.68747H5.15404C5.22639 6.40974 5.55197 7.07784 6.02226 7.58343C5.62433 7.81817 5.17213 7.96262 4.68376 7.96262C4.48479 7.96262 4.34009 8.12513 4.34009 8.3057C4.34009 8.48627 4.50288 8.64878 4.68376 8.64878C5.38918 8.64878 6.04035 8.4321 6.56489 8.05291C7.10753 8.4321 7.75869 8.64878 8.44603 8.64878C8.645 8.64878 8.7897 8.48627 8.7897 8.3057C8.7897 8.12513 8.62691 7.96262 8.44603 7.96262C7.95766 7.96262 7.48738 7.81817 7.10753 7.58343C7.57781 7.07784 7.9034 6.40974 7.97575 5.68747H8.44603ZM6.54681 7.15007C6.16696 6.75282 5.91373 6.24723 5.84138 5.68747H7.27032C7.17988 6.24723 6.92665 6.75282 6.54681 7.15007Z" fill="#3F88C5"/>
</svg>
