<svg width="16" height="17" viewBox="0 0 16 17" fill="none" xmlns="http://www.w3.org/2000/svg">
<path d="M15.6235 6.67822L14.3938 6.41089C14.2869 6.0835 14.1544 5.76416 13.998 5.45654L14.6788 4.39758C14.8004 4.20837 14.7737 3.95996 14.6147 3.80103L12.699 1.88525C12.54 1.72632 12.2916 1.69958 12.1024 1.82117L11.0435 2.50195C10.7358 2.34558 10.4165 2.21313 10.0891 2.1062L9.82178 0.876465C9.77405 0.656738 9.57947 0.5 9.35461 0.5H6.64539C6.42053 0.5 6.22595 0.656738 6.17822 0.876465L5.91089 2.1062C5.5835 2.21313 5.26416 2.34558 4.95654 2.50195L3.89758 1.82117C3.70837 1.69958 3.45996 1.72632 3.30103 1.88525L1.38525 3.80103C1.22632 3.95996 1.19958 4.20837 1.32117 4.39758L2.00195 5.45654C1.84558 5.76416 1.71313 6.0835 1.6062 6.41089L0.376465 6.67822C0.156738 6.72607 0 6.92053 0 7.14539V9.85461C0 10.0795 0.156738 10.2739 0.376465 10.3218L1.6062 10.5891C1.71313 10.9165 1.84558 11.2358 2.00195 11.5435L1.32117 12.6024C1.19958 12.7916 1.22632 13.04 1.38525 13.199L3.30103 15.1147C3.45996 15.2737 3.70837 15.3004 3.89758 15.1788L4.95654 14.498C5.26416 14.6544 5.5835 14.7869 5.91089 14.8938L6.17822 16.1235C6.22595 16.3433 6.42053 16.5 6.64539 16.5H9.35461C9.57947 16.5 9.77405 16.3433 9.82178 16.1235L10.0891 14.8938C10.4165 14.7869 10.7358 14.6544 11.0435 14.498L12.1024 15.1788C12.2916 15.3004 12.54 15.2738 12.699 15.1147L14.6147 13.199C14.7737 13.04 14.8004 12.7916 14.6788 12.6024L13.998 11.5435C14.1544 11.2358 14.2869 10.9165 14.3938 10.5891L15.6235 10.3218C15.8433 10.2739 16 10.0795 16 9.85461V7.14539C16 6.92053 15.8433 6.72607 15.6235 6.67822ZM10.8685 8.5C10.8685 10.0817 9.58167 11.3685 8 11.3685C6.41833 11.3685 5.13147 10.0817 5.13147 8.5C5.13147 6.91833 6.41833 5.63147 8 5.63147C9.58167 5.63147 10.8685 6.91833 10.8685 8.5Z" fill="#0E7D7D"/>
</svg>
