<svg width="9" height="8" viewBox="0 0 9 8" fill="none" xmlns="http://www.w3.org/2000/svg">
<path d="M8.60692 0.460049C8.20109 0.266812 7.74676 0.639804 7.48131 0.857757C6.87129 1.38129 6.3557 1.98572 5.77886 2.53622C5.13821 3.14065 4.54605 3.74732 3.88753 4.33827C3.51233 4.66857 3.1065 5.02583 2.85636 5.43927C2.29484 4.95842 1.80988 4.43488 1.18454 4.01021C0.735322 3.70463 -0.0150836 3.48443 0.000230794 4.21468C0.0308596 5.16289 0.985457 6.18076 1.68737 6.82787C1.98344 7.102 2.37396 7.39186 2.82829 7.40534C3.3745 7.4323 3.93858 6.85484 4.26529 6.53802C4.84213 5.98752 5.31177 5.36961 5.84267 4.80563C6.52927 4.06414 7.23373 3.33388 7.90501 2.57891C8.32616 2.1093 9.6534 0.954376 8.60692 0.460049ZM0.686826 4.15851C0.671512 4.15851 0.656197 4.15851 0.625569 4.17199C0.564311 4.15851 0.515815 4.14503 0.454558 4.11807C0.500501 4.0911 0.579625 4.10458 0.686826 4.15851Z" fill="white"/>
</svg>
