<svg width="19" height="18" viewBox="0 0 19 18" fill="none" xmlns="http://www.w3.org/2000/svg">
<path d="M15.9162 6.66824L15.8306 6.63772L15.4962 5.83948L15.5324 5.75746C16.5455 3.45992 16.4756 3.39139 16.3076 3.22482L14.9563 1.90658C14.9011 1.85177 14.8041 1.81322 14.7204 1.81322C14.6444 1.81322 14.4141 1.81322 12.4184 2.71713L12.3383 2.75305L11.5149 2.42147L11.4819 2.3395C10.5434 0.015625 10.4472 0.015625 10.2137 0.015625H8.30536C8.07269 0.015625 7.96672 0.015625 7.09645 2.34354L7.06369 2.42829L6.24457 2.7622L6.16625 2.72964C4.8154 2.16013 4.02666 1.87134 3.82106 1.87134C3.73763 1.87134 3.64027 1.90877 3.58478 1.96343L2.23223 3.28547C2.06065 3.45471 1.98949 3.52558 3.05558 5.77518L3.09477 5.85861L2.75983 6.65597L2.67786 6.68766C0.299561 7.60675 0.299561 7.69637 0.299561 7.93575V9.80578C0.299561 10.0458 0.299561 10.1455 2.68258 10.9995L2.76776 11.0296L3.10275 11.8246L3.06678 11.9058C2.05374 14.2045 2.11799 14.2667 2.29045 14.4382L3.63969 15.7582C3.69625 15.8126 3.79414 15.8515 3.87762 15.8515C3.95316 15.8515 4.18291 15.8515 6.17998 14.948L6.25995 14.9106L7.08389 15.2438L7.11592 15.3262C8.05502 17.6493 8.15149 17.6493 8.38519 17.6493H10.2941C10.5338 17.6493 10.6332 17.6493 11.5041 15.3198L11.5366 15.235L12.357 14.9033L12.4351 14.9352C13.7848 15.5063 14.5732 15.7945 14.7775 15.7945C14.8602 15.7945 14.9584 15.7582 15.0148 15.7024L16.3696 14.3775C16.54 14.2073 16.611 14.1378 15.543 11.8903L15.5033 11.8059L15.8376 11.012L15.9175 10.9807C18.2996 10.0568 18.2996 9.96675 18.2996 9.72707V7.85816C18.2995 7.61819 18.2995 7.51909 15.9162 6.66824ZM9.29951 11.8653C7.59401 11.8653 6.20656 10.5044 6.20656 8.8328C6.20656 7.16118 7.59406 5.80205 9.29951 5.80205C11.0043 5.80205 12.3915 7.16147 12.3915 8.8328C12.3915 10.5041 11.0043 11.8653 9.29951 11.8653Z" fill="#0E7D7D"/>
</svg>
