<svg width="22" height="21" viewBox="0 0 22 21" fill="none" xmlns="http://www.w3.org/2000/svg">
<path d="M20.6801 10.0934C20.3455 10.0934 20.0779 10.3619 20.0779 10.6976V16.1935C20.0779 17.6883 18.8647 18.9011 17.3794 18.9011H4.16792C2.67817 18.9011 1.46943 17.6838 1.46943 16.1935V10.6081C1.46943 10.2724 1.20181 10.0039 0.867281 10.0039C0.532756 10.0039 0.265137 10.2724 0.265137 10.6081V16.1935C0.265137 18.3551 2.01805 20.1095 4.16792 20.1095H17.3794C19.5338 20.1095 21.2822 18.3506 21.2822 16.1935V10.6976C21.2822 10.3664 21.0146 10.0934 20.6801 10.0934Z" fill="#3B3B3B"/>
<path d="M14.1779 10.6165L11.3768 13.4271L11.3768 1.1688C11.3768 0.833142 11.1092 0.564615 10.7746 0.564615C10.4401 0.564615 10.1725 0.833142 10.1725 1.1688L10.1725 13.4271L7.37142 10.6165C7.25545 10.5001 7.09934 10.4375 6.94768 10.4375C6.79157 10.4375 6.63992 10.4956 6.52395 10.6165C6.28756 10.8537 6.28756 11.2341 6.52395 11.4713L10.3509 15.3112C10.4624 15.4231 10.6185 15.4902 10.7746 15.4902C10.9352 15.4902 11.0869 15.4276 11.1984 15.3112L15.0253 11.4713C15.2617 11.2341 15.2617 10.8537 15.0253 10.6165C14.7934 10.3837 14.4098 10.3837 14.1779 10.6165Z" fill="#3B3B3B"/>
</svg>
