<svg width="16" height="11" viewBox="0 0 16 11" fill="none" xmlns="http://www.w3.org/2000/svg">
<path d="M8.15097 0.898438C5.19943 0.898438 2.52282 2.51325 0.547754 5.13614C0.386589 5.35103 0.386589 5.65124 0.547754 5.86613C2.52282 8.49217 5.19943 10.107 8.15097 10.107C11.1025 10.107 13.7791 8.49217 15.7542 5.86928C15.9154 5.6544 15.9154 5.35419 15.7542 5.1393C13.7791 2.51325 11.1025 0.898438 8.15097 0.898438ZM8.3627 8.74498C6.40343 8.86823 4.78546 7.25341 4.9087 5.29099C5.00982 3.67301 6.32127 2.36157 7.93924 2.26044C9.89851 2.1372 11.5165 3.75201 11.3932 5.71444C11.289 7.32925 9.97751 8.6407 8.3627 8.74498ZM8.26473 7.24709C7.20926 7.31345 6.33707 6.44442 6.40659 5.38895C6.46031 4.51676 7.16818 3.81206 8.04037 3.75517C9.09584 3.68881 9.96803 4.55784 9.89851 5.61332C9.84163 6.48867 9.13376 7.19337 8.26473 7.24709Z" fill="#0E7D7D"/>
</svg>
