<svg width="24" height="21" viewBox="0 0 24 21" fill="none" xmlns="http://www.w3.org/2000/svg">
<path d="M8.85199 3.23481C8.79716 3.03377 8.54128 2.94238 8.28541 2.94238C8.04781 2.94238 7.79193 3.03377 7.7371 3.23481L6.45773 7.42019C6.45773 7.43847 6.43945 7.47502 6.43945 7.4933C6.43945 7.71262 6.75016 7.85883 6.98776 7.85883C7.13397 7.85883 7.24363 7.804 7.28018 7.69434L7.53606 6.81706H9.05303L9.3089 7.69434C9.34546 7.82228 9.45512 7.85883 9.60133 7.85883C9.83893 7.85883 10.1496 7.71262 10.1496 7.4933C10.1496 7.47502 10.1496 7.45674 10.1314 7.42019L8.85199 3.23481ZM7.71883 6.10426L8.30368 4.05727L8.88854 6.10426H7.71883Z" fill="#3F88C5"/>
<path d="M18.7401 7.84073H16.1082V5.28198C16.1082 1.64491 13.4764 0 10.8445 0H5.56254C2.93068 0 0.298828 1.40731 0.298828 5.28198C0.298828 9.06527 2.93068 10.5457 5.56254 10.5457H8.19439C8.37716 10.5457 8.54165 10.564 8.70614 10.6005C8.37716 11.295 8.19439 12.1358 8.19439 13.1044V15.7363C8.19439 18.6423 10.5521 21 13.4581 21C13.4581 19.5379 14.6461 18.3681 16.09 18.3681H18.7218C21.3537 18.3681 23.9855 16.8877 23.9855 13.1044C24.0221 9.22976 21.3719 7.84073 18.7401 7.84073ZM8.21267 9.15666H5.56254C4.39282 9.15666 1.68786 8.77285 1.68786 5.28198C1.68786 3.9295 2.07167 2.90601 2.8393 2.26632C3.49726 1.71802 4.46593 1.40731 5.56254 1.40731H10.8445C12.7087 1.40731 14.7192 2.43081 14.7192 5.28198V7.84073V7.91384C14.7192 8.37076 14.6461 8.82768 14.4816 9.22976C14.0612 10.3812 13.1108 11.2768 11.9228 11.624C11.667 11.0392 11.2832 10.5091 10.808 10.107C10.4424 9.79634 10.0221 9.54047 9.54687 9.37598C9.1265 9.22976 8.68786 9.15666 8.21267 9.15666ZM18.7401 16.9791H16.1082C14.4268 16.9791 13.0012 18.0026 12.3798 19.4648C10.7714 18.9896 9.6017 17.5091 9.6017 15.7363V13.1044C9.6017 12.3551 9.72964 11.7337 9.96724 11.2219C10.4973 11.6971 10.8262 12.4099 10.8262 13.1775C13.2753 13.1775 15.3406 11.4961 15.9255 9.22976H18.7218C19.8184 9.22976 20.7871 9.54047 21.445 10.0888C22.2127 10.7285 22.5965 11.752 22.5965 13.1044C22.6148 16.6136 19.9098 16.9791 18.7401 16.9791Z" fill="#3F88C5"/>
<path d="M15.6697 13.1773H20.0196C20.3851 13.1773 20.6775 12.8848 20.6775 12.5193C20.6775 12.1538 20.3851 11.8613 20.0196 11.8613H15.6697C15.3041 11.8613 15.0117 12.1538 15.0117 12.5193C15.03 12.8848 15.3224 13.1773 15.6697 13.1773Z" fill="#3F88C5"/>
<path d="M20.6775 14.53C20.6775 14.1645 20.3851 13.8721 20.0196 13.8721H12.9099C12.5444 13.8721 12.252 14.1645 12.252 14.53C12.252 14.8956 12.5444 15.188 12.9099 15.188H20.0196C20.3851 15.188 20.6775 14.8956 20.6775 14.53Z" fill="#3F88C5"/>
</svg>
